<?xml version="1.0" encoding="utf-8"?>
<!-- Generator: Adobe Illustrator 21.1.0, SVG Export Plug-In . SVG Version: 6.00 Build 0)  -->
<svg version="1.1" id="Layer_1" xmlns="http://www.w3.org/2000/svg" xmlns:xlink="http://www.w3.org/1999/xlink" x="0px" y="0px"
	 viewBox="0 0 342 226" style="enable-background:new 0 0 342 226;" xml:space="preserve">
<style type="text/css">
	.st0{fill:#FAE6E5;}
	.st1{fill:#4E57F4;}
	.st2{fill:#FFFFFF;}
	.st3{fill:#EABAB9;}
	.st4{fill:#F4CCCA;}
	.st5{fill:#DCDDFD;}
	.st6{fill:#133821;}
	.st7{fill:#E9E6DC;}
	.st8{fill:#F5F5F5;}
	.st9{fill:#FF902C;}
	.st10{fill:#41CDFC;}
	.st11{fill:#0860B8;}
	.st12{fill:#ED4E39;}
	.st13{fill:#EEEEEE;}
	.st14{fill:#E3E4FD;}
	.st15{fill:none;stroke:#4E57F4;stroke-width:4;stroke-miterlimit:10;}
	.st16{fill:#3B41B7;}
</style>
<title>about</title>
<g id="Layer_2">
	<g id="Layer_1-2">
		<path class="st0" d="M45,109c0,0-17-15-16-23s16-24,25-19s9,24,9,33L45,109z"/>
		<rect x="144" y="100" class="st1" width="54" height="117"/>
		<path class="st0" d="M171,118L171,118c-9.9,0-18-8.1-18-18V82h36v18C189,109.9,180.9,118,171,118z"/>
		<path class="st2" d="M156,28c0,0,3-11-7-17S138,0,138,0s-3,17,4,19c0,0-17,2-21-5c0,0,0,18,15,18c0,0-17-2-19,6c0,0,8-7,15,3
			c0,0-10-4-11,12c0,0,4-11,11-5c0,0-10,7-6,24s-6,20-6,20s23-10,19-26c0,0,10,16-5,28c0,0,20-6,24-26S156,28,156,28z"/>
		<path class="st2" d="M186,28c0,0-3-11,7-17s11-11,11-11s3,17-4,19c0,0,17,2,21-5c0,0,0,18-15,18c0,0,17-2,19,6c0,0-8-7-15,3
			c0,0,10-4,11,12c0,0-4-11-11-5c0,0,10,7,6,24s6,20,6,20s-23-10-19-26c0,0-10,16,5,28c0,0-20-6-24-26S186,28,186,28z"/>
		<path class="st3" d="M153,93.1c10.2,9.2,25.8,9.2,36,0V82h-36V93.1z"/>
		<path class="st0" d="M171,91L171,91c-14.9,0-27-12.1-27-27l0,0V41c0-12.2,9.8-22,22-22h10c12.2,0,22,9.8,22,22v23
			C198,78.9,185.9,91,171,91L171,91z"/>
		<path class="st4" d="M175,88c-14.9,0-27-12.1-27-27V38c0-6.3,2.7-12,6.9-16c-6.5,3.8-10.9,10.9-10.9,19v23c0,14.9,12.1,27,27,27
			c7,0,13.3-2.6,18.1-7C185,86.5,180.2,88,175,88z"/>
		<circle class="st1" cx="191.5" cy="51.5" r="13.5"/>
		<circle class="st5" cx="193.5" cy="50.5" r="13.5"/>
		<circle class="st1" cx="155.5" cy="51.5" r="13.5"/>
		<circle class="st5" cx="157.5" cy="50.5" r="13.5"/>
		<path class="st1" d="M170,49h10c0.6,0,1,0.4,1,1l0,0c0,0.6-0.4,1-1,1h-10c-0.6,0-1-0.4-1-1l0,0C169,49.4,169.4,49,170,49z"/>
		<path class="st6" d="M149,68c0,0,10-2,19,1s26-1,26-1s-6,17.9-22,16C155,82,151,76,149,68z"/>
		<path class="st7" d="M168,69c-9-3-19-1-19-1c0.4,1.7,1,3.4,1.7,5h40.9c1-1.6,1.8-3.3,2.4-5C194,68,177,72,168,69z"/>
		<path class="st2" d="M173,64c-1.4-1.2-3.3-1.6-5-1c-3,1-15,5-23,3c0,0,0,1,3,2h-2c0,0,9,6,15,1c0,0.6-0.4,1-1,1
			C160,70,170,75,173,64z"/>
		<path class="st2" d="M173,64c1.4-1.2,3.3-1.6,5-1c3,1,15,5,23,3c0,0,0,1-3,2h2c0,0-9,6-15,1c0,0.6,0.4,1,1,1C186,70,176,75,173,64
			z"/>
		<path class="st8" d="M69,61.4l6.4,6.4l0,0L34,109.1c-1.8,1.8-4.6,1.8-6.4,0l0,0c-1.8-1.8-1.8-4.6,0-6.4L69,61.4L69,61.4z"/>
		<path class="st1" d="M30.8,109.4c-1.9,0-3.5-1.5-3.5-3.5c0-1,0.4-1.9,1.1-2.5L69,62.8l5,5l-40.7,40.7
			C32.6,109.1,31.7,109.4,30.8,109.4z"/>
		
			<rect x="71.5" y="56.5" transform="matrix(0.7071 -0.7071 0.7071 0.7071 -22.9247 70.6085)" class="st8" width="4.5" height="13"/>
		<path class="st4" d="M63,100l5.6-16.8c0.2-0.7,0.1-1.5-0.5-2l-7.5-7.5c-0.9-0.9-2.4-1.1-3.5-0.3l-9.8,7c-1.3,0.9-1.5,2.6-0.6,3.9
			h0c0.8,1,2.1,1.4,3.3,0.9l7-3.1c0,0-12.6,12.3-5.3,23.7C52,106,63,100,63,100z"/>
		<path class="st0" d="M297,109c0,0,17-15,16-23s-16-24-25-19s-9,24-9,33L297,109z"/>
		<path class="st8" d="M314.4,109.1L314.4,109.1c-1.8,1.8-4.6,1.8-6.4,0l-41.4-41.4l0,0l6.4-6.4l0,0l41.4,41.4
			C316.1,104.5,316.1,107.4,314.4,109.1z"/>
		<path class="st9" d="M311.2,109.4c-0.9,0-1.8-0.4-2.5-1L268,67.8l5-5l40.7,40.7c1.4,1.4,1.4,3.6,0.1,4.9
			C313,109.1,312.1,109.5,311.2,109.4L311.2,109.4z"/>
		
			<rect x="261.7" y="60.7" transform="matrix(0.7071 -0.7071 0.7071 0.7071 34.0305 208.1042)" class="st8" width="13" height="4.5"/>
		<path class="st8" d="M292.5,213L292.5,213c-2.5,0-4.5-2-4.5-4.5V150l0,0h9l0,0v58.5C297,211,295,213,292.5,213z"/>
		<path class="st10" d="M292.5,212c-1.9,0-3.5-1.6-3.5-3.5V151h7v57.5C296,210.4,294.4,212,292.5,212z"/>
		<rect x="286" y="145.5" class="st8" width="13" height="4.5"/>
		<path class="st8" d="M310.5,213L310.5,213c-2.5,0-4.5-2-4.5-4.5V150l0,0h9l0,0v58.5C315,211,313,213,310.5,213z"/>
		<path class="st11" d="M310.5,212c-1.9,0-3.5-1.6-3.5-3.5V151h7v57.5C314,210.4,312.4,212,310.5,212z"/>
		<rect x="304" y="145.5" class="st8" width="13" height="4.5"/>
		<path class="st8" d="M328.5,213L328.5,213c-2.5,0-4.5-2-4.5-4.5V150l0,0h9l0,0v58.5C333,211,331,213,328.5,213z"/>
		<path class="st12" d="M328.5,212c-1.9,0-3.5-1.6-3.5-3.5V151h7v57.5C332,210.4,330.4,212,328.5,212z"/>
		<rect x="322" y="145.5" class="st8" width="13" height="4.5"/>
		<path class="st4" d="M279,100l-5.5-16.4c-0.3-1-0.1-2.1,0.7-2.8l7.2-7.2c0.9-0.9,2.4-1.1,3.5-0.3l9.8,7c1.3,0.9,1.5,2.6,0.6,3.9
			l0,0c-0.8,1-2.1,1.4-3.3,0.9l-7-3.1c0,0,12.6,12.3,5.3,23.7C290,106,279,100,279,100z"/>
		<path class="st2" d="M122,107.1L90,163l-27-63l-18,9l32,72.1c2.4,5.4,7.8,8.9,13.7,8.9c5.1,0,9.9-2.6,12.7-7l22.6-36.2V217h18v-99
			v-18h-9.9C129.1,100,124.5,102.7,122,107.1z"/>
		<path class="st2" d="M279,100l-27,63l-32-55.9c-2.5-4.4-7.1-7.1-12.2-7.1H198v18v99h18v-70.2l22.6,36.2c2.7,4.4,7.5,7,12.7,7
			c5.9,0,11.3-3.5,13.7-8.9l32-72.1L279,100z"/>
		<path class="st13" d="M292.8,106.9L263,174.1c-2.4,5.4-7.8,8.9-13.7,8.9c-5.1,0-9.9-2.6-12.7-7L214,139.8V194c0,8.8-7.2,16-16,16
			h0v7h18v-70.2l22.6,36.2c2.7,4.4,7.5,7,12.7,7c5.9,0,11.3-3.5,13.7-8.9l32-72.1L292.8,106.9z"/>
		<path class="st13" d="M49.2,106.9L79,174.1c2.4,5.4,7.8,8.9,13.7,8.9c5.1,0,9.9-2.6,12.7-7l22.6-36.2V194c0,8.8,7.2,16,16,16h0v7
			h-18v-70.2L103.4,183c-2.7,4.4-7.5,7-12.7,7c-5.9,0-11.3-3.5-13.7-8.9L45,109L49.2,106.9z"/>
		<rect y="217" class="st1" width="342" height="9"/>
		<path class="st2" d="M148.2,32.7c0,0.2-0.1,0.6,0,0.5l0.1-0.7L148.2,32.7z"/>
		<path class="st2" d="M148.2,33.9c0.1-0.5,0.2-1,0.3-1.5c-0.1,0.6-0.1,0.4-0.3,1.1c0,0.1,0-0.2,0-0.5c0,0.2,0-0.2-0.1,0.3
			s0,0.5,0.1,0.1C148.3,33.6,148.2,33.8,148.2,33.9z"/>
		<path class="st2" d="M150.9,35.4L150.9,35.4C150.9,35.4,150.9,35.4,150.9,35.4z"/>
		<path class="st2" d="M152.6,36.1c0,0,0,0.1,0,0.1C152.6,36.2,152.6,36.2,152.6,36.1z"/>
		<path class="st2" d="M152.8,36.9L152.8,36.9C152.8,36.9,152.8,36.9,152.8,36.9z"/>
		<path class="st2" d="M150.9,35.4v0.2C151,35.4,150.9,35.5,150.9,35.4z"/>
		<path class="st2" d="M148.9,32.4c0,0.1,0,0.1-0.1,0.2L148.9,32.4L148.9,32.4z"/>
		<path class="st2" d="M150.1,35.8L150.1,35.8l-0.1,0.3L150.1,35.8z"/>
		<path class="st2" d="M149.4,35.8c0,0,0.1-0.5,0.1-0.8c0,0.1,0,0.3-0.1,0.4L149.4,35.8z"/>
		<path class="st2" d="M148.6,34.7L148.6,34.7L148.6,34.7z"/>
		<path class="st2" d="M150.5,36v0.2V36z"/>
		<path class="st2" d="M168.3,36.3L168.3,36.3C168.3,36.3,168.3,36.3,168.3,36.3z"/>
		<polygon class="st2" points="167.9,39.1 167.9,39.2 167.8,39.5 		"/>
		<path class="st2" d="M153.2,37.7L153.2,37.7C153.2,37.8,153.2,37.7,153.2,37.7z"/>
		<path class="st2" d="M158.3,38.4c0.1-0.5,0.3-0.6,0.3-1.2C158.4,37.6,158.3,38,158.3,38.4z"/>
		<path class="st2" d="M148.9,32.5L148.9,32.5C148.9,32.5,148.9,32.5,148.9,32.5z"/>
		<path class="st2" d="M158.6,37.2L158.6,37.2L158.6,37.2z"/>
		<path class="st2" d="M154.5,37.6v-0.2V37.6z"/>
		<path class="st2" d="M153.7,36.7L153.7,36.7C153.7,36.7,153.7,36.7,153.7,36.7z"/>
		<path class="st2" d="M155.2,37C155.2,37,155.2,37.1,155.2,37L155.2,37C155.2,37,155.2,37,155.2,37z"/>
		<path class="st2" d="M155.7,37.1V37l0,0V37.1z"/>
		<path class="st14" d="M171,50.5c0-3-1-5.7-2.6-8l-18.8,18.9c2.2,1.6,5,2.6,8,2.6c0.1,0,0.2,0,0.3,0L171,50.8
			C171,50.7,171,50.6,171,50.5z"/>
		<path class="st14" d="M146.3,58L165,39.3c-1.1-0.8-2.4-1.3-3.7-1.7l-16.7,16.7C144.9,55.6,145.5,56.8,146.3,58z"/>
		<path class="st2" d="M166.6,36l-0.1,0.5C166.6,36.1,166.7,36,166.6,36z"/>
		<path class="st2" d="M148.8,32.7c0-0.1,0-0.2,0.1-0.2l0,0L148.8,32.7z"/>
		<path class="st2" d="M156.1,32.6L156.1,32.6C156.2,32.7,156.1,32.6,156.1,32.6z"/>
		<path class="st2" d="M162.9,34.9L162.9,34.9C162.9,34.8,162.9,34.8,162.9,34.9z"/>
		<path class="st2" d="M156.5,32.7c0,0.1,0,0.3,0,0.4V33V32.7z"/>
		<path class="st2" d="M166.5,36.5L166.5,36.5z"/>
		<path class="st2" d="M167.4,35.4c-0.1,0-0.3,0.7-0.4,1.1c-0.2,0.2,0.1-0.5,0.2-0.9c-0.1,0.2-0.4,0.8-0.4,0.8
			c0-0.1,0.1-0.2,0.1-0.3c-0.3,0.5-0.2,0-0.5,0.6l0.1-0.2c-0.1,0.3-0.2,0.7-0.3,1c0,0-0.2,0.4-0.1,0c0,0,0.1-0.2,0.1-0.3l-0.1,0.2
			c0.2-0.7,0.1-0.2,0.3-0.7c-0.1,0.2-0.4,0.7-0.4,0.5c0.2-0.7,0.2-0.2,0.3-0.8v0.3c0.3-1,0,0.1,0.3-1c0-0.2-0.2,0.3-0.3,0.1
			c-0.1,0.3-0.2,0.5-0.3,0.9c-0.4,0.6,0.4-1.7,0-0.8c-0.2,0.4-0.5,1.2-0.4,0.8l0.3-0.7c-0.1-0.1-0.4,1-0.4,0.5
			c0.1-0.3,0.2-0.2,0.2-0.3c0.1-0.6-0.2,0.4-0.2,0.4l0.2-0.7c-0.1,0.1-0.4,0.5-0.6,0.6c0.1-0.2,0.1-0.4,0.2-0.6
			c-0.3,0.3-0.3-0.2-0.4-0.6l-0.2,0.5c0-0.1,0-0.3,0.1-0.4c0-0.2-0.1,0.3-0.2,0.6c0,0,0.1-0.3,0.1-0.5c-0.3,0.4-0.6,0.9-0.6,0.3
			l0.1-0.2c0-0.3-0.4,1.1-0.4,0.6v-0.1c-0.1-0.3-0.5,0.2-0.4-0.7c-0.3,0.8-0.1-0.4-0.4,0.7c0.1-0.4,0.1-0.8,0.1-1.2
			c0-0.1-0.3,0.7-0.4,0.8l0.2-0.6l-0.3,0.6l0.2-0.7l-0.1,0.1c0,0.2,0,0.3-0.1,0.5c-0.1,0.3-0.1-0.5,0-0.8l-0.3,0.5
			c0-0.2,0.1-0.3,0.2-0.5c-0.3,0.6,0.2-0.6-0.1-0.1c0,0.1-0.1,0.3-0.1,0.5c0.1-0.4,0-0.4-0.1-0.3l0.1-0.4c-0.1-0.1-0.3,0.1-0.5,0.1
			c0,0.3-0.1,0.7-0.3,1l0.2-0.6c-0.1,0.2-0.1,0.5-0.2,0.7c0-0.3,0.1-0.6,0.3-0.9l-0.1,0.2c0-0.2,0.1-0.3,0.2-0.5
			c-0.1,0.4,0.1-0.7-0.2,0V34c-0.1,0-0.3,0.2-0.4,0.2c-0.1,0.3-0.2,0.6-0.3,0.8c0-0.2,0-0.7-0.1-0.6c-0.1,0.2-0.2,0.5-0.3,0.8
			c0.1-0.5,0-0.5,0.2-0.8c-0.1,0-0.2,0-0.4,0.4c0,0.2,0,0.3-0.1,0.5c-0.1,0.1,0-0.2,0.1-0.5l0,0c-0.4,0.7,0-1.5-0.4-0.5l0,0
			l-0.3,0.5c0-0.1,0.1-0.4,0.2-0.7c-0.4,0.8-0.2-0.2-0.5,0.3c0.3-1.5-0.4,0-0.3-1l-0.1,0.3c-0.1,0.3,0-0.2,0-0.3
			c0,0.2-0.1,0.3-0.1,0.5c-0.4,0.3-0.5-0.7-0.8-1c-0.1-0.1-0.5,1.8-0.4,0.9l0.2-0.6c-0.4,0.7-0.5-0.1-0.8,0.5c0-0.1,0.1-0.2,0.1-0.3
			c0.1-0.5-0.2-0.1-0.3,0.3c0-0.2,0-0.4,0.1-0.5c0-0.3-0.3,0.6-0.2,0.1c0-0.1,0-0.1,0.1-0.2c-0.1,0.2-0.1-0.1-0.2,0.5
			c0-0.3-0.2,0.2-0.2-0.1c-0.2,0.6-0.1-0.3-0.3,0.5c0.2-0.9,0-0.8-0.1-0.3c0.1-0.3,0-0.3,0.1-0.7c-0.1,0-0.2,0.2-0.2,0.6
			c0.1-1.1-0.4,0.8-0.2-0.6c-0.2,0.3-0.4,0.6-0.7,0.9c0.2-0.9,0.2,0,0.4-1c-0.2,0.3-0.5,1.1-0.6,0.8c0-0.2,0.1-0.4,0.1-0.5
			c-0.2,0.3-0.3-0.1-0.5,0.3c0-0.1,0-0.2,0.1-0.2c0,0,0-0.1-0.1,0.3v-0.1c-0.1,0.5-0.2,1-0.4,1.5c0.3-1.1-0.1-0.3,0.3-1.8
			c-0.1,0.2-0.1,0.3-0.1,0.5c0-0.2,0-0.4,0.1-0.5c-0.1,0.2-0.2,0.6-0.3,0.6c0-0.2,0.1-0.3,0.1-0.5c-0.1,0.4-0.2,0.7-0.3,0.6
			s0-0.3,0.1-0.3c-0.1,0-0.4,1-0.5,0.6c0.2-0.8,0-0.3,0.1-1l-0.1,0.2v0.4c-0.1,0-0.2,0.5-0.2,0.3l0.1-0.3l-0.1,0.1V34
			c-0.1,0.4-0.2,0.9-0.2,0.7s-0.1,0,0-0.5l0,0c-0.1,0.2-0.2,0.5-0.2,0.3s0.2-0.8,0.2-1c-0.1,0.6-0.2,0.1-0.4,0.8
			c0-0.2,0.1-0.5,0.1-0.6l-0.1,0.5c0-0.2,0-0.4,0.1-0.5c-0.1-0.1-0.1,0.9-0.2,0.5c0,0,0-0.1,0.1-0.2c-0.1-0.2-0.3,0.3-0.3,0
			c0.1-0.7,0.1-0.2,0.2-0.8c-0.2,0.1-0.5,0.8-0.6,0.6v0.1c-0.2,1,0-0.5-0.2-0.1c0-0.2,0.1-0.3,0.1-0.5c-0.1-0.2-0.2,0.2-0.4,0.5
			l0.1-0.3c0-0.3-0.1-0.2-0.2-0.3c-0.1,0.2-0.1,0.4-0.1,0.6c0.1-1.6-0.5,0.8-0.4-0.5c0-0.1,0.1-0.1,0.1-0.2l-0.2,0.2
			c0,0.2-0.1,0.4-0.1,0.6c-0.1,0.3-0.1,0.5-0.2,0.5c0.1-0.3,0.1-0.7,0.1-1l-0.1,0.4c0.1-0.8-0.2,0.9-0.2,0.3V34
			c-0.1,0.1-0.1,0.4-0.2,0.3c0-0.2,0.1-0.4,0.2-0.7c-0.1,0-0.3,1-0.3,0.5c0-0.1,0.1-0.1,0.1-0.3c0-0.6,0-0.5,0-0.6l0,0l-0.1-0.3v0
			c-0.3,1.4-0.2,0.2-0.4,1.1c0.1-0.4,0.2-0.7,0.2-1.1c0-0.2,0-0.4,0-0.5c-0.1,0.5,0-0.4-0.2,0.3c0-0.2,0-0.3,0-0.5
			c-0.1,0.1,0,0.3-0.1,0.6c-0.2,0.6-0.1-0.8-0.4,0c-0.2,0.3-0.3,1-0.5,1.3c0-0.2,0.1-0.5,0.1-0.7c0-0.3-0.1-0.3-0.1,0
			c0-0.2,0.1-0.4,0.1-0.5c-0.1,0-0.1,0.7-0.1,0.4s0.1-0.5,0.2-0.8c-0.1,0.2-0.2,0.5-0.3,0.7c0-0.2,0.1-0.5,0.2-0.7
			c-0.2,0.2-0.3,0.5-0.3,0.8v0.2c0-0.2,0-0.4,0.1-0.5c0.1-0.4,0,0.2,0,0.4l-0.1,0.1c-0.1,1.1,0.2-0.2,0.3-0.1l-0.2,0.8l0.2-0.7
			c0,0.3-0.1,0.5-0.1,0.8c0,0.4,0.1-0.3,0.1,0.2c0,0,0,0.1,0,0.1l0.1-0.2c0,0.2-0.1,0.6-0.1,0.5c0,0.5,0.3-0.6,0.2,0l0,0
			c0.2-0.3,0.1-0.6,0.3-1.3l0.2,1.6l0.1-0.6c0,0,0,0.1,0,0.3c0.1-0.4,0-0.3,0.1-0.7c0,0.6,0.2-0.2,0.1,0.7c0.1-0.5,0-0.4,0.1-0.7
			c-0.1,1,0.1-0.2,0.1,0.3s-0.1,0.2-0.1,0.7c0.2-0.9,0.1,0.2,0.2,0c0.1-0.7,0.2-0.3,0.3-0.5c0,0.2,0.1,0.4,0.1,0.7v0.1
			c0.1-0.7,0.2-0.6,0.3-0.7c0,0.3-0.1,0.5-0.2,0.8H150c0-0.1,0.1-0.3,0.1-0.4l-0.1,0.5c0.1,0,0.3-0.6,0.3-0.2
			c0.1-0.6,0.2-1.2,0.3-1.7c0,0.3-0.1,0.6-0.2,0.8c0,0,0.1-0.2,0.1-0.1l-0.1,0.5c0,0.2,0.1-0.4,0.1-0.3c-0.1,0.4,0,0.3-0.1,0.6
			c0,0,0-0.2,0,0c0,0.2,0,0.4,0,0.6c0-0.2,0.1-0.4,0.1-0.6c0.1,0-0.1,0.5,0,0.7c0.1-0.3,0.1,0,0.2-0.6c0,0.1,0,0.3,0,0.4
			c0.1-0.3,0.2,0,0.3-0.7v-0.1l0,0c0.2-0.6,0.2,0.4,0.4,0.2v0.2c0.1-0.2,0.2-0.1,0.3-0.5c0,0.2,0,0.4-0.1,0.6c0.1-0.1,0.1-0.3,0.1,0
			s0,0.3-0.1,0.2c0,0.2,0,0.5,0.2,0c-0.1,0.5-0.1,0.6,0,0.5V36c0.1-0.1,0.1,0,0.1,0l-0.1,0.7c0,0.8,0.5-1.3,0.4,0
			c0.1-0.5,0-0.3,0.1-0.9c0.1,0.1-0.1,1,0,1.1c0,0.4,0.3-0.9,0.3-0.7c0-0.4,0.1-0.7,0.3-1.1c0,0.4-0.1,0.8-0.2,1.2c0,0,0-0.1,0-0.1
			c-0.1,0.1-0.1,0.3-0.1,0.4l0.1-0.2c0,0.2,0.1,0.2,0,0.6c0.1-0.2,0.1-0.3,0.1-0.5c0,0.3,0.1,0,0.2,0.3c0-0.1,0-0.3,0.1-0.4
			c0.1,0.3,0.1-0.4,0.3-0.5c0,0.4-0.2,0.8,0,0.6c0,0.3-0.1,0.5-0.2,0.8c0.2-0.4,0.1,0.3,0.1,0.4l-0.1,0.2c0-0.1,0.1-0.1,0.1-0.1
			l0.1-0.5c0,0.1,0,0.2,0,0.3c0.1-0.3,0.1-0.8,0.3-1.2c0,0.2,0.1-0.2,0,0.4c-0.1-0.2-0.1,0.6-0.2,0.7c0-0.1,0.1-0.1,0.1,0
			c0,0.1,0,0.1,0,0.2c0,0.6,0.2-0.7,0.3-0.7c-0.1,0.3-0.1,0.7-0.1,0.6c0-0.3,0.1-0.6,0.2-0.8c0,0.3,0.1-0.2,0.1-0.2v-0.1
			c0.1-0.3,0.1-0.3,0.2-0.4c-0.1,0.3-0.1,0.2-0.1,0.3c0.2-0.6,0,0.7,0.1,0.3c0,0.2-0.1,0.7-0.1,0.8c0.2-0.4,0,0.5,0.1,0.1
			c0-0.3,0.1-0.5,0.2-0.8l-0.2,0.3l0.2-0.7c0,0-0.1,0.3-0.2,0.2c0.1-0.2,0.1-0.4,0.1-0.7c-0.1,0.7,0.2-0.4,0.2,0.1l-0.2,1.2
			c0,0.5,0.3-0.6,0.4-0.2v-0.2c0.1-0.5,0.1,0,0.2-0.2c-0.1,0.3-0.1,0.5-0.1,0.8c0.1-0.3,0.1,0,0.3-0.7v0.5c0.1,0.2,0.4-1.1,0.4-0.9
			c-0.1,0.3-0.2,0.7-0.3,1c0,0,0,0.1,0.1-0.2c0,0.3,0.2-0.5,0.2-0.1c0.1-0.2,0.1-0.6,0.2-0.5v0.2c0.1-0.2,0.1-0.4,0.2-0.7
			c-0.2,1.2,0.3,0,0.2,1c0.1-0.1,0.2-0.2,0.3-0.2c0,0.1,0,0.2,0,0.2c0,0.4,0.3-1.1,0.3-0.7c-0.1,0.6-0.1,0.3-0.1,0.6
			c-0.3,1.3,0.2-0.2,0.1,0.6v0.1c0,0.4,0.2-0.5,0.3-0.3v0.2c0.1-0.4,0.3-0.7,0.5-1c-0.1,0.2-0.2,0.5-0.2,0.8
			c0.1-0.3,0.2-0.6,0.3-0.9c0,0.4-0.1,0.7-0.1,1.1h-0.1c-0.1,0.7,0.1,0,0.1,0.1l-0.1,0.3c0.1-0.1,0.3-0.8,0.4-0.8v-0.2
			c0.2-0.7,0,0.4,0.1-0.1l-0.2,0.8c0.1-0.3,0.3-0.6,0.4-0.8c-0.1,0.4-0.3,0.8-0.5,1.2c0,0,0.2,0,0.3-0.4c0,0.1-0.1,0.3-0.1,0.1
			c0.2-0.6,0.3-0.9,0.4-0.8c-0.4,1.5,0.1,0.4-0.1,1.6c0.3-0.5,0.2,0.3,0.4,0.3c0.2-1.2,0.1,0,0.3-1.2c0.1-0.1,0.1,0,0.1,0l-0.1,0.7
			c-0.1,0.3-0.1,0.3-0.2,0.5c0.1,0.1-0.1,0.5-0.1,0.8c0.1-0.4,0.2-0.6,0.2-0.4l0.1-0.6c0.3-0.6-0.1,1,0.1,0.4l-0.1,0.4
			c0.1-0.2,0.2,0.1,0.5-0.9c0,0.2-0.1,0.4-0.1,0.5c0.1,0.2,0.6-0.9,0.6-0.3l-0.1,0.3c0-0.1,0.2-0.5,0.1-0.2c0,0.1-0.1,0.2-0.1,0.3
			c0-0.1,0.2-0.5,0.2-0.3l-0.1,0.3c0,0.4,0.4-0.7,0.6-0.9c-0.2,0.4-0.2,0.9-0.2,1.3v0.1c0.1,0.2,0.5-0.6,0.7-0.9
			c-0.1,1,0.2,0.5,0.2,1c0.1-0.3,0.1-0.5,0.2-0.7c0,0.2,0.3-0.6,0,0.2l0,0c-0.2,0.8-0.1,0.6,0,0.6l0.3-1c-0.3,1.5,0.6-0.4,0.3,0.9
			c0.1-0.2,0.2-0.2,0.3-0.5l-0.2,0.5c0.1,0.2,0.1,0.3,0.3,0.2l-0.1,0.4c0.1,0,0.6-1.5,0.6-1.5l-0.2,0.8c0.1,0,0,0.8,0.4,0.1
			c0,0.1-0.1,0.3-0.1,0.4c0.1,0,0.1,0.6,0.4-0.5c-0.2,0.7,0.1,0.1,0.3-0.2l-0.2,0.5c0.1-0.4,0.3-0.7,0.5-1c0,0.1-0.1,0.4-0.1,0.3
			c0,0.3,0.2-0.5,0.2-0.2l-0.1,0.3c0.1,0.1,0.1-0.1,0.3-0.5c0.1-0.2,0.1,0.2-0.1,0.7c0.1-0.3,0.3-0.7,0.3-0.5c0,0.1-0.1,0.2-0.1,0.3
			c0,0.4,0.4-0.6,0.3,0c-0.1,0.2-0.1,0.3-0.1,0.3s-0.1-0.1-0.1-0.1c-0.1,0.4-0.2,0.8-0.4,1.3c0.2-0.3,0.5-1.1,0.5-0.9v0.2v0
			c0,0,0,0,0.1-0.1c0,0.1,0,0.2,0,0.2c-0.1,0.4,0,0.2,0,0.3c0.1-0.3,0.2-0.6,0.3-0.9c0,0,0,0.1-0.1,0.1v0l0,0h-0.1
			c0.1-0.3,0.2-0.5,0.2-0.2l0.3-0.8c-0.2,0.8-0.2,1.2-0.4,1.7c0.2-0.3,0.2-0.7,0.2-1c0.1-0.1-0.1,0.3-0.1,0.5c0,0.1-0.1,0.1-0.1,0.2
			c0.1-0.2,0.2,0,0.5-0.7c0,0.3-0.3,0.6-0.1,0.5l-0.1,0.2c-0.2,1.2,0.9-1.7,0.7-0.2c0-0.1,0-0.2,0.1-0.3c0,0.7,0.8-0.4,0.6,0.7
			c0,0.2,0.2-0.2,0.3-0.5l-0.2,0.6l0.3-0.6c0.3-0.4-0.4,1.5,0.1,0.6l0.1-0.4c0,0.1,0.2-0.2,0.1,0.3c0-0.1,0.2-0.4,0.1-0.2l-0.1,0.3
			l0.3-0.5c0,0.3-0.5,1.2-0.4,1.3c0.2-0.3,0.4-0.7,0.5-1c0-0.2,0.1-0.3,0.1-0.5l0.1-0.1c0.4-0.8,0.7-1.5,0.9-2.4l-0.3,0.5l0.1-0.4
			h0.1c0.1-0.4-0.1-0.1-0.2,0.2c0.1-0.2,0.1-0.3,0.1-0.5l-0.4,0.8c0.1-0.3,0.2-0.6,0.3-0.9c-0.2,0.4-0.3,0.8-0.4,1
			c0.1-0.4,0.3-0.7,0.1-0.4c0.1-0.2,0.1-0.3,0.2-0.5c-0.1,0.3-0.2,0.1-0.4,0.5c0.1-0.5-0.2,0.1,0.1-0.8c-0.1,0.2-0.2,0.4-0.4,0.6
			c0.4-1-0.1-0.1,0.3-1.2c-0.4,0.9-0.3,0.3-0.6,0.8c0-0.1,0.1-0.2,0.1-0.2c0-0.2,0-0.4,0.1-0.5c-0.2,0.5-0.4,0.9-0.6,1.3
			c0.2-0.7,0.4-0.8,0.6-1.5c-0.2,0.6-0.3,0.6-0.5,1.1c0.1-0.3,0.1-0.6,0.2-0.8c-0.3,0.9-0.1,0.1-0.3,0.7c0.1-0.5,0.3-0.9,0.1-0.6
			C167.2,35.8,167.3,35.6,167.4,35.4z M165.1,36.4L165.1,36.4L165.1,36.4z M164.9,36.4C164.9,36.4,165,36.4,164.9,36.4
			c0,0.1,0,0.2-0.1,0.4C164.9,36.6,164.9,36.5,164.9,36.4L164.9,36.4z M164,40.1c0,0.1,0,0,0-0.2l0.1,0v-0.1L164,40.1z"/>
		<path class="st2" d="M164.3,39.4L164.3,39.4v-0.1V39.4L164.3,39.4z"/>
		<path class="st2" d="M150.9,35.3L150.9,35.3L150.9,35.3z"/>
		<polygon class="st2" points="163.1,34.7 163.1,34.8 163.1,34.7 		"/>
		<path class="st2" d="M150.4,33.3c0,0,0-0.1,0-0.1V33.3z"/>
		<path class="st2" d="M150.1,33.1v-0.2C150,33,150,33,150.1,33.1z"/>
		<path class="st2" d="M149.8,32.8V33l0,0V32.8z"/>
		<path class="st2" d="M154.5,33L154.5,33C154.5,32.8,154.5,32.9,154.5,33z"/>
		<path class="st2" d="M152.9,34c0-0.1,0.1-0.2,0.1-0.3S152.9,33.7,152.9,34z"/>
		<polygon class="st2" points="156.1,32.6 156.1,32.6 156.1,32.6 		"/>
		<path class="st2" d="M153,33.8C153,33.6,153,33.7,153,33.8C152.9,33.8,153,33.8,153,33.8z"/>
		<path class="st2" d="M148.6,32.3L148.6,32.3L148.6,32.3L148.6,32.3z"/>
		<path class="st2" d="M148.6,32.4L148.6,32.4C148.6,32.5,148.6,32.5,148.6,32.4z"/>
		<path class="st2" d="M148.5,32.6l0.1-0.1C148.6,32.5,148.5,32.4,148.5,32.6z"/>
		<path class="st2" d="M149,32.6v-0.2V32.6z"/>
		<path class="st2" d="M149.1,32.6c0,0,0-0.4-0.1-0.3v0.2C149.1,32.2,149,32.9,149.1,32.6z"/>
		<path class="st2" d="M149.1,35.2l-0.1-0.2c0,0.2,0,0.4-0.1,0.5C149,36.2,149,35.1,149.1,35.2z"/>
		<path class="st2" d="M149.4,35.5c-0.1,0.1-0.1,0.3-0.1,0.4C149.4,35.8,149.4,35.7,149.4,35.5z"/>
		<path class="st2" d="M151.5,35.9l-0.1,0.5C151.4,36.3,151.4,36.2,151.5,35.9z"/>
		<polygon class="st2" points="152.4,33.4 152.4,33 152.3,33.5 		"/>
		<polygon class="st2" points="151.9,37 151.9,37.1 152,36.9 		"/>
		<path class="st2" d="M155.5,37.5l0.1-0.6C155.6,37,155.4,37.7,155.5,37.5z"/>
		<path class="st2" d="M157.1,37.3c-0.1,0.3-0.1,0.5,0,0.2C157.1,37.4,157.2,37.2,157.1,37.3z"/>
		<polygon class="st2" points="161.3,39.4 161.2,39.6 161.3,39.4 		"/>
		<path class="st2" d="M193.8,36.6c0.2-0.1,0.5-0.3,0.4-0.2l-0.6,0.3L193.8,36.6z"/>
		<path class="st2" d="M194.8,35.9c-0.5,0.2-0.9,0.4-1.4,0.6l1-0.5c0.1,0-0.2,0.1-0.4,0.3c0.2-0.1-0.1,0.1,0.3-0.1s0.4-0.3,0-0.2
			C194.5,36,194.7,35.9,194.8,35.9z"/>
		<path class="st2" d="M193.9,32.6L193.9,32.6C193.9,32.7,193.9,32.6,193.9,32.6z"/>
		<path class="st2" d="M192.6,30.9c0,0,0.1,0,0.1-0.1C192.6,30.8,192.6,30.8,192.6,30.9z"/>
		<path class="st2" d="M192.7,30.1L192.7,30.1C192.7,30,192.7,30,192.7,30.1z"/>
		<path class="st2" d="M193.9,32.6l0.1-0.2C193.9,32.6,193.9,32.6,193.9,32.6z"/>
		<path class="st2" d="M193.2,36.3l0.2-0.1L193.2,36.3L193.2,36.3z"/>
		<path class="st2" d="M194.9,33L194.9,33l0.2-0.2L194.9,33z"/>
		<path class="st2" d="M195.4,33.6c0,0-0.5,0.3-0.7,0.4c0.1-0.1,0.2-0.1,0.3-0.2L195.4,33.6z"/>
		<path class="st2" d="M195.1,35L195.1,35L195.1,35z"/>
		<path class="st2" d="M194.7,32.5l0.1-0.1L194.7,32.5z"/>
		<path class="st2" d="M179.2,37.1L179.2,37.1L179.2,37.1z"/>
		<polygon class="st2" points="176.8,35.5 176.8,35.5 176.6,35.3 		"/>
		<path class="st2" d="M192.4,29L192.4,29C192.4,29,192.4,29,192.4,29z"/>
		<path class="st2" d="M185.2,28.4c0.2,0.5,0,0.7,0.2,1.2C185.4,29.1,185.4,28.7,185.2,28.4z"/>
		<path class="st2" d="M193.3,36.2L193.3,36.2C193.3,36.2,193.2,36.2,193.3,36.2z"/>
		<path class="st2" d="M185.5,29.5L185.5,29.5L185.5,29.5z"/>
		<path class="st2" d="M190.5,28.6l-0.1,0.2C190.5,28.7,190.5,28.6,190.5,28.6z"/>
		<path class="st2" d="M191.4,29.8L191.4,29.8C191.4,29.8,191.4,29.8,191.4,29.8z"/>
		<path class="st2" d="M189.6,29.1C189.6,29.1,189.6,29,189.6,29.1L189.6,29.1C189.6,29.1,189.6,29,189.6,29.1z"/>
		<path class="st2" d="M189,29v0.1l0,0V29z"/>
		<path class="st2" d="M180.2,35.9l-0.3-0.4C180.2,35.8,180.2,36,180.2,35.9z"/>
		<path class="st2" d="M193.5,36.1l-0.2,0.1l0,0L193.5,36.1z"/>
		<path class="st2" d="M188.5,33.4L188.5,33.4C188.5,33.4,188.5,33.4,188.5,33.4z"/>
		<path class="st2" d="M183.2,33.9L183.2,33.9C183.2,34,183.2,34,183.2,33.9z"/>
		<path class="st2" d="M188.3,33.4c0-0.1,0-0.3,0-0.4v0.1V33.4z"/>
		<path class="st2" d="M179.9,35.5L179.9,35.5z"/>
		<path class="st2" d="M180.3,36.9c0.1,0-0.4-0.6-0.7-0.9c-0.1-0.2,0.4,0.4,0.6,0.7c-0.1-0.2-0.5-0.8-0.4-0.8
			c0.1,0.1,0.1,0.2,0.2,0.3c-0.3-0.5,0.1-0.1-0.3-0.8l0.1,0.1l-0.6-0.8c0,0-0.2-0.4,0.1,0c0,0,0.1,0.2,0.2,0.3l-0.1-0.2
			c0.4,0.5,0.1,0.2,0.4,0.6c-0.1-0.2-0.4-0.7-0.2-0.6c0.4,0.5,0,0.3,0.5,0.7l-0.2-0.2c0.7,0.8-0.1,0,0.7,0.8
			c0.2,0.1-0.1-0.3,0.1-0.3c-0.2-0.3-0.3-0.4-0.6-0.8c-0.3-0.6,1.1,1.3,0.7,0.5c-0.2-0.4-0.7-1.1-0.4-0.8l0.4,0.6
			c0.1,0-0.6-0.9-0.2-0.6c0.2,0.3,0.1,0.3,0.1,0.3c0.4,0.5-0.2-0.4-0.2-0.4l0.4,0.5c0-0.2-0.1-0.6-0.1-0.8c0.1,0.2,0.2,0.4,0.4,0.5
			c-0.1-0.4,0.3-0.1,0.7,0.1l-0.3-0.5c0.1,0.1,0.2,0.2,0.2,0.3c0.2,0.2-0.2-0.3-0.3-0.5c0,0,0.2,0.3,0.3,0.4
			c-0.2-0.5-0.3-1.1,0.1-0.6l0.1,0.2c0.2,0.2-0.5-1.1-0.2-0.7V34c0.3,0.1,0.2-0.4,0.8,0.3c-0.4-0.8,0.3,0.2-0.2-0.8
			c0.2,0.3,0.5,0.6,0.8,0.9c0.1,0-0.3-0.7-0.3-0.8l0.3,0.5l-0.2-0.6l0.4,0.6V34c-0.1-0.1-0.2-0.3-0.2-0.4c-0.1-0.3,0.4,0.3,0.5,0.6
			l-0.1-0.5c0.1,0.1,0.1,0.3,0.2,0.5c-0.2-0.6,0.3,0.6,0.1,0c-0.1-0.1-0.1-0.3-0.2-0.5c0.2,0.3,0.3,0.3,0.3,0.1l0.2,0.4
			c0.1,0,0.1-0.3,0.3-0.3c-0.2-0.3-0.3-0.6-0.4-0.9l0.3,0.6c-0.1-0.2-0.2-0.4-0.3-0.7c0.2,0.3,0.3,0.6,0.4,0.9v-0.2l0.2,0.5
			c-0.1-0.4,0.3,0.6,0.1-0.1l0.1,0.2c0.1,0,0.1-0.3,0.2-0.3c-0.1-0.3-0.2-0.6-0.2-0.9c0.1,0.1,0.4,0.5,0.4,0.5
			c-0.1-0.3-0.1-0.5-0.2-0.8c0.2,0.5,0.3,0.4,0.3,0.8c0.1-0.1,0.1-0.2,0.1-0.6c-0.1-0.1-0.1-0.3-0.2-0.5c0-0.1,0.1,0.2,0.2,0.4v0
			c0-0.8,0.8,1.3,0.6,0.3v-0.5c0.1,0.1,0.1,0.4,0.2,0.7c-0.1-0.9,0.2,0.1,0.2-0.5c0.4,1.5,0.3-0.2,0.5,0.8l-0.1-0.3
			c0-0.3,0.1,0.2,0.1,0.3c0-0.2-0.1-0.3-0.1-0.5c0.2-0.5,0.6,0.5,0.8,0.8c0.1,0.1,0-1.9,0.1-1v0.7c0.2-0.8,0.3,0,0.5-0.6
			c0,0.1,0,0.2-0.1,0.3c0,0.5,0.1,0,0.2-0.3c0,0,0,0.3,0,0.5s0.2-0.6,0.1-0.1c0,0.1,0,0.1,0,0.2c0.1-0.2,0.1,0.1,0.1-0.5
			c0,0.3,0.2-0.2,0.1,0.1c0.1-0.6,0,0.3,0.2-0.5c-0.2,0.9-0.1,0.7,0.1,0.3c-0.1,0.3,0,0.3-0.1,0.7c0,0,0.1-0.2,0.2-0.6
			c-0.2,1.1,0.4-0.8,0.1,0.5c0.2-0.3,0.4-0.6,0.7-0.8c-0.3,0.8-0.2,0-0.5,0.9c0.2-0.3,0.6-1,0.6-0.8c-0.1,0.2-0.1,0.3-0.2,0.5
			c0.3-0.3,0.1,0.2,0.5-0.2c0,0.1-0.1,0.1-0.1,0.2c0,0,0,0.1,0.2-0.2L190,33c0.2-0.5,0.5-0.9,0.8-1.3c-0.6,1,0,0.3-0.8,1.6
			c0.1-0.1,0.2-0.3,0.3-0.5c-0.1,0.2-0.2,0.3-0.3,0.5c0.2-0.2,0.4-0.6,0.4-0.5l-0.3,0.4c0.2-0.3,0.5-0.6,0.4-0.4s-0.1,0.2-0.2,0.2
			s0.7-0.8,0.6-0.4c-0.5,0.7-0.1,0.3-0.6,0.9l0.2-0.2l0.2-0.3c0,0,0.4-0.4,0.3-0.2l-0.2,0.2h0.2l0.1-0.3c0.3-0.3,0.6-0.8,0.5-0.5
			c-0.1,0,0,0-0.2,0.4l0,0c0.2-0.2,0.4-0.3,0.3-0.2l-0.6,0.8c0.4-0.5,0.2,0,0.7-0.5c-0.1,0.1-0.4,0.4-0.4,0.5l0.4-0.4
			c-0.1,0.2-0.2,0.3-0.3,0.4c0,0.1,0.6-0.7,0.4-0.4c0,0-0.1,0.1-0.1,0.1c-0.1,0.2,0.4-0.1,0.3,0.1c-0.5,0.6-0.2,0.1-0.6,0.6
			c0.2,0,0.8-0.5,0.8-0.2v-0.1c0.8-0.7-0.3,0.4,0.1,0.1c-0.1,0-0.4,0.4-0.4,0.3c-0.1,0.2,0.3,0,0.7-0.2l-0.2,0.2
			c-0.1,0.2,0,0.2-0.1,0.3c0.2-0.1,0.3-0.2,0.5-0.4c-1.1,1.1,0.9-0.2,0,0.7c-0.1,0-0.1,0.1-0.2,0.1h0.3c0.2-0.1,0.3-0.3,0.5-0.4
			c0.2-0.2,0.4-0.2,0.4-0.2c-0.3,0.2-0.6,0.4-0.8,0.6l0.4-0.3c-0.6,0.5,0.8-0.5,0.4-0.1l-0.2,0.1c0.1,0,0.4-0.2,0.4-0.1
			c-0.4,0.3-0.2,0.1-0.6,0.4c0.1,0,0.9-0.5,0.5-0.1c-0.1,0.1-0.2,0-0.3,0.1c-0.5,0.4-0.4,0.3-0.4,0.4l0,0l-0.2,0.2l0.1-0.1
			c1.2-0.7,0.3,0,1.1-0.4c-0.3,0.2-0.7,0.4-0.9,0.6c-0.1,0.1-0.3,0.2-0.4,0.3c0.4-0.2-0.3,0.3,0.4-0.1c-0.1,0.1-0.3,0.2-0.4,0.3
			c0.2,0,0.3-0.2,0.5-0.3c0.6-0.3-0.6,0.6,0.3,0.2c0.4-0.1,1-0.4,1.3-0.5c-0.2,0.1-0.4,0.2-0.6,0.3c-0.2,0.2-0.2,0.2,0.1,0.1
			c-0.2,0.1-0.3,0.2-0.5,0.3c0.1,0,0.6-0.3,0.4-0.1l-0.7,0.3c0.2,0,0.5-0.2,0.7-0.2c-0.2,0.1-0.4,0.2-0.7,0.3c0.3,0,0.6-0.1,0.8-0.3
			l0.1-0.1c-0.2,0.1-0.3,0.2-0.5,0.3c-0.4,0.2,0.1-0.2,0.3-0.3h0.1c1-0.6-0.2,0-0.2-0.2l0.8-0.4l-0.6,0.3c0.2-0.2,0.5-0.3,0.7-0.4
			c0.3-0.3-0.3,0.1,0.1-0.2l0.1-0.1l-0.2,0.1c0.2-0.1,0.5-0.3,0.4-0.2c0.4-0.3-0.6,0.2-0.1-0.2l0,0c-0.3,0-0.5,0.3-1.2,0.6l1.3-0.8
			l-0.5,0.3c0,0,0-0.1,0.3-0.2c-0.2,0.1-0.4,0.2-0.6,0.3c0.4-0.3-0.3,0,0.5-0.5c-0.4,0.2-0.3,0.3-0.6,0.3c0.9-0.6-0.2,0,0.2-0.3
			s0.3-0.1,0.6-0.4c-0.8,0.5,0.1-0.2-0.1-0.2c-0.6,0.4-0.3,0.1-0.6,0.1c0.2-0.1,0.2-0.4,0.4-0.6l0.1-0.1c-0.6,0.4-0.6,0.3-0.7,0.3
			c0.2-0.2,0.4-0.3,0.7-0.4v0c-0.1,0.1-0.3,0.2-0.4,0.2l0.4-0.3c-0.1-0.1-0.6,0.3-0.4-0.1c-0.4,0.4-0.9,0.8-1.4,1.1
			c0.2-0.2,0.4-0.4,0.7-0.5c0,0-0.2,0.1-0.1,0l0.4-0.3c0.1-0.2-0.3,0.2-0.3,0.2c0.3-0.2,0.2-0.2,0.4-0.4c0,0-0.1,0.1,0,0
			c0.1-0.2,0.2-0.3,0.4-0.5c-0.1,0.1-0.3,0.2-0.5,0.3c-0.1,0,0.4-0.3,0.5-0.5c-0.2,0.2,0-0.1-0.5,0.3c0,0,0.2-0.2,0.3-0.3
			c-0.2,0.1-0.2-0.1-0.6,0.3l0,0l0,0c-0.5,0.3,0-0.4-0.2-0.4l0.1-0.1c-0.2,0.1-0.2,0-0.6,0.2c0.1-0.2,0.2-0.3,0.4-0.5
			c-0.1,0.1-0.3,0.2-0.1-0.1s0.2-0.2,0.2-0.1c0.1-0.2,0.3-0.4-0.2-0.1c0.4-0.3,0.4-0.5,0.3-0.4l-0.2,0.3c-0.1,0-0.1,0-0.1-0.1
			L194,31c0.4-0.7-1.2,0.8-0.4-0.3c-0.3,0.3-0.1,0.3-0.5,0.7c0-0.1,0.5-0.9,0.5-0.9c0.1-0.4-0.7,0.7-0.6,0.4
			c-0.2,0.3-0.4,0.6-0.7,0.8c0.2-0.4,0.4-0.7,0.7-1c0,0,0,0.1-0.1,0.1c0.1-0.1,0.2-0.2,0.3-0.3l-0.1,0.2c0.1-0.2,0-0.3,0.3-0.6
			c-0.1,0.1-0.3,0.2-0.3,0.4c0.1-0.3-0.1-0.1-0.1-0.4c-0.1,0.1-0.1,0.2-0.2,0.3c0-0.3-0.3,0.3-0.5,0.4c0.1-0.3,0.5-0.7,0.2-0.5
			c0.1-0.3,0.3-0.5,0.5-0.7c-0.3,0.3,0-0.4,0-0.5L193,29c-0.1,0.1-0.1,0.1-0.1,0l-0.2,0.4c0-0.1,0-0.2,0.1-0.3
			c-0.2,0.3-0.4,0.7-0.7,1c0.1-0.2-0.3,0.2,0.1-0.4c0,0.3,0.3-0.6,0.5-0.6c-0.1,0-0.1,0-0.1-0.1c0-0.1,0.1-0.1,0.1-0.1
			c0.1-0.6-0.4,0.6-0.5,0.5c0.2-0.3,0.3-0.6,0.2-0.5s-0.3,0.5-0.4,0.8c0-0.3-0.2,0.1-0.2,0.1v0.1c-0.2,0.3-0.2,0.3-0.3,0.3
			c0.1-0.3,0.1-0.1,0.2-0.3c-0.3,0.5,0.1-0.6-0.1-0.3c0.1-0.2,0.3-0.6,0.3-0.8c-0.3,0.4,0.1-0.5-0.2-0.2c-0.1,0.3-0.2,0.5-0.4,0.7
			l0.3-0.2l-0.4,0.6c0,0,0.2-0.2,0.2-0.1c-0.1,0.2-0.2,0.4-0.3,0.6c0.2-0.7-0.3,0.3-0.2-0.1l0.2-1c0.1-0.5-0.5,0.5-0.5,0.1v0.2
			c-0.2,0.4-0.1,0-0.2,0.2c0.1-0.2,0.2-0.5,0.2-0.8c-0.1,0.3-0.1-0.1-0.4,0.7l0.1-0.5c-0.1-0.2-0.5,1-0.6,0.9c0.1-0.3,0.2-0.7,0.3-1
			c0,0-0.1-0.1-0.1,0.2c0-0.3-0.3,0.5-0.2,0.1c-0.1,0.2-0.2,0.6-0.2,0.5s0-0.2,0-0.2c-0.1,0.2-0.2,0.4-0.2,0.7c0.1-1.2-0.4,0-0.3-1
			c-0.1,0.1-0.2,0.2-0.3,0.2c0-0.1,0-0.2,0-0.1c-0.1-0.4-0.2,1.1-0.3,0.7c0-0.6,0.1-0.3,0.1-0.6c0.1-1.3-0.2,0.1-0.2-0.6v-0.1
			c0-0.5-0.2,0.5-0.3,0.4s0-0.1,0-0.2c0,0.4-0.2,0.7-0.4,1c0-0.3,0-0.5,0-0.8c0,0.3,0,0.7-0.1,1c-0.1-0.4-0.1-0.7-0.1-1.1h0.1
			c0-0.7-0.1,0-0.2-0.1v-0.3c-0.1,0.1-0.1,0.9-0.3,0.8v0.2c0,0.8-0.1-0.4-0.1,0.1l-0.1-0.8c-0.1,0.3-0.1,0.6-0.2,0.9
			c0-0.4,0.1-0.8,0.1-1.2c-0.1,0-0.2,0.1-0.2,0.5c0-0.1,0-0.3,0.1-0.1c0,0.6-0.1,0.9-0.2,0.9c-0.1-1.5-0.3-0.4-0.5-1.5
			c-0.1,0.6-0.4-0.2-0.7,0c0.3,1.1-0.1,0,0.2,1.3c0,0.1-0.1,0.1-0.1,0l-0.3-0.7c-0.1-0.3,0-0.3-0.1-0.5c-0.1-0.1-0.1-0.5-0.3-0.8
			c0.1,0.4,0.1,0.6,0,0.5l0.2,0.5c0,0.7-0.4-1-0.4-0.3v-0.4c0,0.2-0.3,0.1-0.1,1c-0.1-0.2-0.1-0.4-0.1-0.5c-0.3-0.1-0.1,1.1-0.5,0.6
			l-0.1-0.3c0,0.1,0.1,0.5,0,0.3c0-0.1-0.1-0.2-0.1-0.3c0,0.1,0.1,0.5,0,0.4l-0.1-0.3c-0.3-0.3,0,0.9-0.1,1.1
			c-0.1-0.4-0.3-0.8-0.7-1.1v-0.1c-0.3,0-0.1,0.8-0.1,1.2c-0.5-0.8-0.6-0.2-1-0.6c0.1,0.2,0.2,0.5,0.3,0.7c-0.1-0.1,0.1,0.6-0.2-0.1
			l0,0c-0.4-0.7-0.4-0.5-0.4-0.5l0.4,1c-0.9-1.3-0.2,0.7-0.9-0.5c0.1,0.3,0,0.3,0.1,0.5l-0.3-0.5c-0.2-0.1-0.3-0.1-0.4,0.1l-0.2-0.4
			c-0.1,0,0.7,1.5,0.6,1.5l-0.4-0.7c-0.1,0.1-0.6-0.5-0.4,0.3c-0.1-0.1-0.1-0.2-0.2-0.4c-0.1,0-0.6-0.3,0.1,0.6
			c-0.4-0.6-0.2,0-0.1,0.4l-0.3-0.5c0.2,0.3,0.3,0.6,0.4,1c-0.1,0-0.3-0.4-0.1-0.3c-0.2-0.2,0.2,0.5,0,0.3l-0.2-0.3
			c-0.1,0,0,0.2,0.2,0.5c0.1,0.2-0.2,0-0.5-0.5c0.2,0.3,0.4,0.6,0.2,0.5c-0.1-0.1-0.1-0.2-0.2-0.3c-0.3-0.2,0.2,0.7-0.2,0.2
			c-0.1-0.1-0.1-0.2-0.2-0.3c0.1,0,0.2-0.1,0.2,0c-0.3-0.3-0.5-0.7-0.7-1.1c0.1,0.4,0.5,1.1,0.3,1l-0.1-0.1v0c0,0,0,0,0,0.1
			s-0.1-0.1-0.1-0.1c-0.3-0.3-0.2-0.1-0.3-0.1c0.2,0.3,0.3,0.5,0.5,0.8c0,0,0-0.1,0-0.1c0,0,0,0,0-0.1l0,0c0,0,0-0.1,0.1-0.1
			c0.1,0.3,0.2,0.5,0,0.2l0.5,0.8c-0.5-0.6-0.8-0.9-1.1-1.3c0,0.5,0.1,0.9,0.4,1.2c0.1,0.1-0.2-0.2-0.3-0.3c0-0.1-0.1-0.2-0.1-0.2
			c0.1,0.3-0.1,0.2,0.3,0.8c-0.3-0.2-0.4-0.6-0.4-0.4l-0.1-0.2c-0.9-0.8,0.8,1.7-0.3,0.7c0.1,0.1,0.1,0.1,0.2,0.2
			c-0.7-0.3-0.1,0.9-1,0.3c-0.2-0.1,0.1,0.3,0.3,0.6l-0.4-0.5l0.4,0.6c0.2,0.5-1.1-1-0.6-0.1l0.3,0.3c-0.1,0,0,0.3-0.3,0
			c0,0.1,0.3,0.3,0.1,0.2l-0.2-0.2l0.3,0.5c-0.2-0.1-0.8-0.9-1-0.8c0.2,0.3,0.4,0.7,0.7,0.9c0,0,0.2,0.1,0.4,0.3l0.1,0.2
			c0.6,0.6,1.2,1.2,1.8,1.8l-0.3-0.5l0.3,0.3v0.1c0.3,0.3,0.1,0-0.1-0.2c0.1,0.1,0.2,0.2,0.4,0.3l-0.6-0.7c0.2,0.2,0.4,0.5,0.6,0.7
			c-0.3-0.3-0.6-0.6-0.7-0.8c0.3,0.3,0.5,0.5,0.3,0.3c0.1,0.1,0.2,0.2,0.3,0.4c-0.2-0.2,0-0.2-0.3-0.5c0.4,0.4,0-0.2,0.6,0.5
			c-0.2-0.2-0.3-0.4-0.4-0.6c0.6,0.8,0.1,0,0.9,0.8c-0.6-0.8-0.1-0.4-0.4-0.9c0,0.1,0.1,0.2,0.1,0.2c0.2,0.1,0.3,0.2,0.4,0.3
			c-0.3-0.4-0.6-0.8-0.8-1.2c0.5,0.5,0.6,0.7,1,1.3c-0.4-0.5-0.3-0.6-0.7-1c0.2,0.2,0.4,0.4,0.6,0.6c-0.6-0.8-0.1-0.2-0.4-0.7
			c0.4,0.3,0.6,0.7,0.5,0.4C180,36.5,180.2,36.7,180.3,36.9z M180.7,34.5L180.7,34.5L180.7,34.5z M180.9,34.4
			C180.8,34.4,180.8,34.4,180.9,34.4c-0.2-0.1-0.2-0.2-0.3-0.3C180.7,34.2,180.8,34.3,180.9,34.4z M178.4,31.4c0-0.1,0,0,0.1,0.1
			c0,0,0,0.1,0,0.1v0.1L178.4,31.4z"/>
		<path class="st2" d="M178.8,32L178.8,32L178.8,32L178.8,32L178.8,32z"/>
		<path class="st2" d="M193.8,32.7L193.8,32.7L193.8,32.7L193.8,32.7z"/>
		<polygon class="st2" points="183.2,34.3 183.1,34.1 183.2,34.3 		"/>
		<path class="st2" d="M192.9,34.6l-0.1,0.1L192.9,34.6z"/>
		<path class="st2" d="M193,35l-0.1,0.2C192.9,35.1,193,35.1,193,35z"/>
		<path class="st2" d="M192.9,35.4l0.2-0.1l0,0L192.9,35.4z"/>
		<path class="st2" d="M189.7,33.2L189.7,33.2C189.7,33.3,189.7,33.2,189.7,33.2z"/>
		<path class="st2" d="M191.4,32.7l-0.2,0.2C191.2,32.9,191.2,32.9,191.4,32.7z"/>
		<polygon class="st2" points="188.6,33.4 188.6,33.4 188.5,33.4 		"/>
		<path class="st2" d="M191.2,32.8C191.1,32.9,191.2,32.9,191.2,32.8S191.2,32.8,191.2,32.8z"/>
		<path class="st2" d="M193.3,36.5L193.3,36.5L193.3,36.5L193.3,36.5z"/>
		<path class="st2" d="M193.3,36.5L193.3,36.5C193.4,36.5,193.4,36.5,193.3,36.5z"/>
		<path class="st2" d="M193.5,36.4h-0.1C193.4,36.4,193.4,36.5,193.5,36.4z"/>
		<path class="st2" d="M193.3,36l-0.2,0.1L193.3,36z"/>
		<path class="st2" d="M193.2,36c0,0-0.4,0.3-0.2,0.2l0.1-0.1C192.9,36.3,193.5,35.8,193.2,36z"/>
		<path class="st2" d="M195.1,34.3l-0.1,0.2c0.2-0.1,0.4-0.3,0.5-0.3C196,33.7,195.1,34.4,195.1,34.3z"/>
		<path class="st2" d="M195.2,33.8c0.1,0,0.3-0.2,0.4-0.2C195.4,33.6,195.3,33.7,195.2,33.8z"/>
		<path class="st2" d="M193.6,31.8l0.4-0.4C193.9,31.5,193.9,31.6,193.6,31.8z"/>
		<polygon class="st2" points="191.5,33.4 191.3,33.7 191.6,33.3 		"/>
		<polygon class="st2" points="193.7,30.5 193.8,30.5 193.6,30.6 		"/>
		<path class="st2" d="M189.2,28.5l-0.1,0.6C189.1,29,189.3,28.3,189.2,28.5z"/>
		<path class="st2" d="M187.1,29c0-0.3-0.1-0.5-0.1-0.2C187,28.9,187.1,29.1,187.1,29z"/>
		<polygon class="st2" points="181.3,29.5 181.2,29.3 181.3,29.5 		"/>
		<polyline class="st15" points="279,217 279,163 342,163 		"/>
		<path class="st16" d="M144,204.3V217h54v-51.1C185.1,184.3,166.1,198,144,204.3z"/>
		<path class="st14" d="M207,50.5c0-3-1-5.7-2.6-8l-18.8,18.9c2.2,1.6,5,2.6,8,2.6c0.1,0,0.2,0,0.3,0L207,50.8
			C207,50.7,207,50.6,207,50.5z"/>
		<path class="st14" d="M182.3,58L201,39.3c-1.1-0.8-2.4-1.3-3.7-1.7l-16.7,16.7C180.9,55.6,181.5,56.8,182.3,58z"/>
	</g>
</g>
</svg>
