<?xml version="1.0" encoding="utf-8"?>
<!-- Generator: Adobe Illustrator 21.1.0, SVG Export Plug-In . SVG Version: 6.00 Build 0)  -->
<svg version="1.1" id="Layer_1" xmlns="http://www.w3.org/2000/svg" xmlns:xlink="http://www.w3.org/1999/xlink" x="0px" y="0px"
	 viewBox="0 0 378 252" style="enable-background:new 0 0 378 252;" xml:space="preserve">
<style type="text/css">
	.st0{fill:#073971;}
	.st1{fill:#052B55;}
	.st2{fill:#9CBFE3;}
	.st3{fill:#CEDFF1;}
	.st4{fill:#6BA0D4;}
	.st5{fill:#ED4E39;}
	.st6{fill:none;stroke:#0860B8;stroke-width:2;stroke-miterlimit:10;}
	.st7{fill:#0860B8;}
</style>
<title>brand-book</title>
<g id="Layer_2">
	<g id="Layer_1-2">
		<path class="st0" d="M0,9h378v234H0V9z"/>
		<path class="st1" d="M9,234h360v9H9V234z"/>
		<path class="st2" d="M9,18h360v216H9V18z"/>
		<path class="st3" d="M9,18h18v216H9V18z"/>
		<path class="st4" d="M297,18h9v216h-9V18z M351,18h18v216h-18V18z"/>
		<path class="st3" d="M189,18L297,0v252l-108-18V18z"/>
		<path class="st5" d="M324,18v108l4.5-4.5l4.5,4.5V18H324z"/>
		<g>
			<path class="st6" d="M45,118.7h126 M45,127.7h126 M45,136.7h126 M45,145.7h63 M45,172.7h126 M45,181.7h126 M45,190.7h126
				 M45,199.7h63"/>
			<g>
				<path class="st7" d="M46.6,59.9h-3.5l-0.7,1.8h-2.2l3.8-9.3h2l3.7,9.3h-2.2L46.6,59.9z M46,58.3l-1.1-3.1l-1.2,3.1H46z"/>
				<path class="st7" d="M55,52.3c1.2,0,2.5,0.2,3.7,1.3c0.8,0.8,1.3,1.9,1.3,3.3c0,1.5-0.5,2.5-1.3,3.3c-1.3,1.3-2.9,1.4-3.7,1.4
					h-3v-9.3H55z M54.2,59.9h0.6c0.4,0,1.4,0,2.1-0.6c0.5-0.4,0.9-1.2,0.9-2.3c0-1-0.4-1.7-0.8-2c-0.7-0.7-1.6-0.8-2.3-0.8h-0.6
					V59.9z"/>
				<path class="st7" d="M68.4,59.9h-3.5l-0.7,1.8h-2.2l3.8-9.3h2l3.7,9.3h-2.2L68.4,59.9z M67.8,58.3l-1.1-3.1l-1.2,3.1H67.8z"/>
				<path class="st7" d="M77,52.3c0.8,0,1.7,0.1,2.5,0.8c0.8,0.7,0.9,1.6,0.9,2.3c0,1.2-0.4,1.8-0.8,2.2c-0.7,0.8-1.7,0.8-2.4,0.8
					h-1.3v3.3h-2.2v-9.3H77z M75.9,56.6h0.8c0.3,0,0.8,0,1.2-0.4c0.2-0.2,0.4-0.5,0.4-0.9c0-0.4-0.1-0.7-0.4-0.9
					c-0.3-0.3-0.8-0.4-1.2-0.4h-0.7V56.6z"/>
				<path class="st7" d="M86.9,54.1v7.5h-2.2v-7.5h-2v-1.8h6.2v1.8H86.9z"/>
				<path class="st7" d="M93.6,52.3v9.3h-2.2v-9.3H93.6z"/>
				<path class="st7" d="M98.5,52.3l2.4,6l2.4-6h2.3l-4,9.3h-1.5l-4-9.3H98.5z"/>
				<path class="st7" d="M112.5,59.9h-3.5l-0.7,1.8H106l3.8-9.3h2l3.7,9.3h-2.2L112.5,59.9z M111.9,58.3l-1.1-3.1l-1.2,3.1H111.9z"
					/>
				<path class="st7" d="M125.4,52.3c0.5,0,1.7,0,2.4,0.7c0.6,0.6,0.7,1.4,0.7,1.8c0,0.4-0.1,0.8-0.3,1.2c-0.2,0.4-0.6,0.6-0.8,0.7
					c0.4,0.1,1,0.3,1.3,0.6c0.3,0.3,0.6,0.8,0.6,1.7c0,0.9-0.4,1.5-0.7,1.9c-0.8,0.7-1.9,0.8-2.5,0.8h-3.5v-9.3H125.4z M124.7,56.1
					h0.4c0.3,0,0.8,0,1.1-0.3c0.2-0.1,0.4-0.4,0.4-0.8s-0.2-0.7-0.4-0.8c-0.3-0.2-0.7-0.2-1.1-0.2h-0.3V56.1z M124.7,60h0.5
					c0.5,0,1.2,0,1.6-0.4c0.2-0.2,0.3-0.4,0.3-0.8c0-0.4-0.2-0.6-0.3-0.8c-0.4-0.4-1.1-0.4-1.5-0.4h-0.6V60z"/>
				<path class="st7" d="M135.5,52.3c1.2,0,1.9,0.4,2.4,0.8c0.4,0.4,0.8,1.1,0.8,2.1c0,0.6-0.1,1.3-0.7,1.9
					c-0.3,0.3-0.8,0.6-1.3,0.7l2.9,3.8h-2.6l-2.5-3.7v3.7h-2.2v-9.3H135.5z M134.4,56.6h0.5c0.4,0,0.9,0,1.3-0.4
					c0.2-0.2,0.4-0.4,0.4-0.9c0-0.5-0.3-0.8-0.4-1c-0.4-0.3-0.9-0.3-1.2-0.3h-0.5V56.6z"/>
				<path class="st7" d="M147.8,59.9h-3.5l-0.7,1.8h-2.2l3.8-9.3h2l3.7,9.3h-2.2L147.8,59.9z M147.2,58.3l-1.1-3.1l-1.2,3.1H147.2z"
					/>
				<path class="st7" d="M153.2,61.7v-9.3h1.9l5.1,6v-6h2.2v9.3h-1.9l-5.1-6.1v6.1H153.2z"/>
				<path class="st7" d="M168.7,52.3c1.2,0,2.5,0.2,3.7,1.3c0.8,0.8,1.3,1.9,1.3,3.3c0,1.5-0.5,2.5-1.3,3.3
					c-1.3,1.3-2.9,1.4-3.7,1.4h-3v-9.3H168.7z M167.9,59.9h0.6c0.4,0,1.4,0,2.1-0.6c0.5-0.4,0.9-1.2,0.9-2.3c0-1-0.4-1.7-0.8-2
					c-0.7-0.7-1.6-0.8-2.3-0.8h-0.6V59.9z"/>
				<path class="st7" d="M67.4,73.4h4.6v0.1c0,1.1-0.4,2.9-1.4,3.9c-1,1.1-2.2,1.3-3.3,1.3c-1.1,0-2.3-0.2-3.4-1.3
					c-0.5-0.6-1.4-1.7-1.4-3.6c0-1.5,0.6-2.7,1.3-3.5c1.1-1.2,2.6-1.4,3.7-1.4c0.8,0,1.8,0.1,2.6,0.7c0.6,0.4,1.2,1.1,1.5,1.7
					l-1.9,1.1c-0.2-0.4-0.5-0.7-0.8-1c-0.4-0.3-0.9-0.4-1.4-0.4c-0.9,0-1.5,0.3-1.9,0.8c-0.5,0.5-0.8,1.3-0.8,2.2
					c0,1.1,0.4,1.8,0.8,2.1c0.5,0.6,1.2,0.7,1.9,0.7c0.9,0,1.4-0.3,1.6-0.5c0.1-0.1,0.5-0.4,0.7-1.1h-2.3V73.4z"/>
				<path class="st7" d="M83,74.7c0,0.9-0.1,2-1,3C81,78.5,80,78.7,79,78.7s-2-0.1-2.9-1.1c-0.9-1-1-2.1-1-3v-5.5h2.2v5.5
					c0,0.4,0,1.1,0.5,1.6c0.4,0.4,0.9,0.5,1.3,0.5s0.9-0.1,1.3-0.5c0.5-0.5,0.5-1.2,0.5-1.6v-5.5H83V74.7z"/>
				<path class="st7" d="M88.6,69.1v9.3h-2.2v-9.3H88.6z"/>
				<path class="st7" d="M95,69.1c1.2,0,2.5,0.2,3.7,1.3c0.8,0.8,1.3,1.9,1.3,3.3c0,1.5-0.5,2.5-1.3,3.3c-1.3,1.3-2.9,1.4-3.7,1.4
					h-3v-9.3H95z M94.2,76.7h0.6c0.4,0,1.4,0,2.1-0.6c0.5-0.4,0.9-1.2,0.9-2.3c0-1-0.4-1.7-0.8-2c-0.7-0.7-1.6-0.8-2.3-0.8h-0.6
					V76.7z"/>
				<path class="st7" d="M108.4,70.9h-3.1v1.8h3v1.8h-3v2.1h3.1v1.8h-5.3v-9.3h5.3V70.9z"/>
				<path class="st7" d="M113.7,69.1v7.5h2.9v1.8h-5.1v-9.3H113.7z"/>
				<path class="st7" d="M121.4,69.1v9.3h-2.2v-9.3H121.4z"/>
				<path class="st7" d="M124.9,78.5v-9.3h1.9l5.1,6v-6h2.2v9.3h-1.9l-5.1-6.1v6.1H124.9z"/>
				<path class="st7" d="M142.7,70.9h-3.1v1.8h3v1.8h-3v2.1h3.1v1.8h-5.3v-9.3h5.3V70.9z"/>
				<path class="st7" d="M150.6,71.4c-0.7-0.6-1.3-0.7-1.6-0.7c-0.3,0-0.7,0-0.9,0.3c-0.1,0.1-0.2,0.4-0.2,0.6
					c0,0.2,0.1,0.4,0.2,0.5c0.2,0.2,0.5,0.3,1.2,0.5L150,73c0.4,0.2,0.9,0.4,1.3,0.7c0.5,0.5,0.7,1.2,0.7,1.7c0,1-0.3,1.8-0.8,2.3
					c-0.8,0.9-2,1-2.6,1c-0.7,0-1.3-0.1-1.8-0.4c-0.5-0.2-1-0.7-1.4-1l1.1-1.5c0.2,0.2,0.6,0.6,0.9,0.7c0.4,0.2,0.7,0.3,1.2,0.3
					c0.3,0,0.7-0.1,1-0.3c0.2-0.2,0.3-0.4,0.3-0.8c0-0.3-0.1-0.5-0.3-0.7c-0.3-0.2-0.8-0.4-1.1-0.5l-0.8-0.3
					c-0.4-0.2-0.9-0.4-1.3-0.7c-0.5-0.5-0.6-1.2-0.6-1.6c0-0.8,0.3-1.5,0.8-2.1c0.7-0.7,1.4-0.9,2.3-0.9c0.6,0,1.7,0.1,2.8,0.9
					L150.6,71.4z"/>
			</g>
		</g>
	</g>
</g>
</svg>
