<svg xmlns="http://www.w3.org/2000/svg" xmlns:xlink="http://www.w3.org/1999/xlink" viewBox="0 0 180 194.27">
  <defs>
    <style>
      .cls-1{fill:none;}.cls-2{fill:#ff902c;}.cls-3{fill:#77271d;}.cls-4{fill:#ed4e39;}.cls-5{fill:#ffa656;}.cls-6{fill:#b23b2b;}.cls-7{fill:#f17161;}.cls-8{clip-path:url(#clip-path);}.cls-9{clip-path:url(#clip-path-2);}.cls-10{fill:url(#linear-gradient);}.cls-11{fill:#fff;}.cls-12{fill:#4cdf83;}.cls-13{fill:#41cdfc;}.cls-14{fill:#2cb566;}.cls-15{fill:#0860b8;}.cls-16{fill:url(#linear-gradient-2);}.cls-17{fill:url(#linear-gradient-3);}.cls-18{fill:url(#linear-gradient-4);}.cls-19{fill:url(#linear-gradient-5);}.cls-20{fill:url(#linear-gradient-6);}.cls-21{fill:url(#linear-gradient-7);}.cls-22{fill:url(#linear-gradient-8);}.cls-23{fill:url(#linear-gradient-9);}.cls-24{fill:url(#linear-gradient-10);}.cls-25{fill:url(#linear-gradient-11);}.cls-26{fill:url(#linear-gradient-12);}.cls-27{fill:url(#linear-gradient-13);}.cls-28{fill:url(#linear-gradient-14);}.cls-29{fill:url(#linear-gradient-15);}.cls-30{fill:url(#linear-gradient-16);}.cls-31{fill:url(#linear-gradient-17);}.cls-32{fill:url(#linear-gradient-18);}.cls-33{fill:url(#linear-gradient-19);}.cls-34{fill:url(#linear-gradient-20);}.cls-35{fill:url(#linear-gradient-21);}.cls-36{fill:url(#linear-gradient-22);}.cls-37{fill:url(#linear-gradient-23);}.cls-38{fill:url(#linear-gradient-24);}.cls-39{fill:url(#linear-gradient-25);}.cls-40{fill:url(#linear-gradient-26);}.cls-41{fill:url(#linear-gradient-27);}.cls-42{fill:url(#linear-gradient-28);}.cls-43{fill:url(#linear-gradient-29);}.cls-44{fill:url(#linear-gradient-30);}.cls-45{fill:url(#linear-gradient-32);}.cls-46{fill:url(#linear-gradient-33);}.cls-47{fill:url(#linear-gradient-34);}.cls-48{fill:url(#linear-gradient-35);}.cls-49{fill:url(#linear-gradient-36);}.cls-50{fill:url(#linear-gradient-37);}.cls-51{fill:url(#linear-gradient-38);}.cls-52{fill:#ffd3ab;}
    </style>
    <clipPath id="clip-path" transform="translate(0 -3.73)">
      <path class="cls-1" d="M115.13 176.69l-5.36-34.47 31.1-8.92 5.36 34.47-31.1 8.92z"/>
    </clipPath>
    <clipPath id="clip-path-2" transform="translate(0 -3.73)">
      <path class="cls-1" d="M18 72l72 27 72-27h18V0H0v72h18z"/>
    </clipPath>
    <linearGradient id="linear-gradient" x1="49.5" y1="75.66" x2="49.5" y2="142.66" gradientTransform="matrix(1 0 0 -1 0 163.93)" gradientUnits="userSpaceOnUse">
      <stop offset="0" stop-color="#052b55"/>
      <stop offset="1" stop-color="#4e57f4"/>
    </linearGradient>
    <linearGradient id="linear-gradient-2" x1="52.79" y1="121.59" x2="45.64" y2="114.43" gradientTransform="matrix(1 0 0 -1 0 163.93)" gradientUnits="userSpaceOnUse">
      <stop offset="0" stop-color="#41cdfc"/>
      <stop offset="1" stop-color="#0860b8"/>
    </linearGradient>
    <linearGradient id="linear-gradient-3" x1="66.85" y1="129.65" x2="60.56" y2="123.35" xlink:href="#linear-gradient-2"/>
    <linearGradient id="linear-gradient-4" x1="63.85" y1="120.96" x2="63.85" y2="85.78" xlink:href="#linear-gradient-2"/>
    <linearGradient id="linear-gradient-5" x1="-373.71" y1="873.1" x2="-373.71" y2="837.92" gradientTransform="matrix(0 1 1 0 -791.66 434.27)" xlink:href="#linear-gradient-2"/>
    <linearGradient id="linear-gradient-6" x1="-221.6" y1="-253.6" x2="-221.6" y2="-288.78" gradientTransform="matrix(1 0 0 -1 285.45 -206.89)" xlink:href="#linear-gradient-2"/>
    <linearGradient id="linear-gradient-7" x1=".85" y1="587.65" x2=".85" y2="552.47" gradientTransform="matrix(0 1 1 0 -506.21 63.45)" xlink:href="#linear-gradient-2"/>
    <linearGradient id="linear-gradient-8" x1="39.59" y1="103.37" x2="47.12" y2="103.37" gradientTransform="matrix(1 0 0 -1 0 163.93)" gradientUnits="userSpaceOnUse">
      <stop offset="0" stop-color="#0860b8"/>
      <stop offset="1" stop-color="#41cdfc"/>
    </linearGradient>
    <linearGradient id="linear-gradient-9" x1="51.92" y1="91.44" x2="46.51" y2="86.04" xlink:href="#linear-gradient-2"/>
    <linearGradient id="linear-gradient-10" x1="66.97" y1="83.52" x2="61.09" y2="77.63" xlink:href="#linear-gradient-2"/>
    <linearGradient id="linear-gradient-11" x1="82.07" y1="92.31" x2="74.91" y2="85.15" xlink:href="#linear-gradient-2"/>
    <linearGradient id="linear-gradient-12" x1="89.41" y1="106.33" x2="83.48" y2="100.41" xlink:href="#linear-gradient-2"/>
    <linearGradient id="linear-gradient-13" x1="81.19" y1="120.71" x2="75.79" y2="115.3" xlink:href="#linear-gradient-2"/>
    <linearGradient id="linear-gradient-14" x1="83.98" y1="123.49" x2="43.05" y2="82.57" xlink:href="#linear-gradient-2"/>
    <linearGradient id="linear-gradient-15" x1="71.62" y1="135.85" x2="30.7" y2="94.92" gradientTransform="matrix(1 0 0 -1 0 167.66)" xlink:href="#linear-gradient-2"/>
    <linearGradient id="linear-gradient-16" x1="83.98" y1="123.49" x2="43.05" y2="82.57" xlink:href="#linear-gradient-2"/>
    <linearGradient id="linear-gradient-17" x1="83.98" y1="123.49" x2="43.05" y2="82.57" gradientTransform="matrix(1 0 0 -1 0 167.66)" xlink:href="#linear-gradient-2"/>
    <linearGradient id="linear-gradient-18" x1="96.33" y1="111.14" x2="55.4" y2="70.21" xlink:href="#linear-gradient-2"/>
    <linearGradient id="linear-gradient-19" x1="92.62" y1="114.85" x2="51.7" y2="73.92" xlink:href="#linear-gradient-2"/>
    <linearGradient id="linear-gradient-20" x1="75.32" y1="132.15" x2="34.39" y2="91.22" gradientTransform="matrix(1 0 0 -1 0 167.66)" xlink:href="#linear-gradient-2"/>
    <linearGradient id="linear-gradient-21" x1="92.62" y1="114.85" x2="51.7" y2="73.92" gradientTransform="matrix(1 0 0 -1 0 167.66)" xlink:href="#linear-gradient-2"/>
    <linearGradient id="linear-gradient-22" x1="75.33" y1="132.14" x2="34.4" y2="91.21" gradientTransform="matrix(1 0 0 -1 0 167.66)" xlink:href="#linear-gradient-2"/>
    <linearGradient id="linear-gradient-23" x1="74.22" y1="133.25" x2="33.3" y2="92.32" xlink:href="#linear-gradient-2"/>
    <linearGradient id="linear-gradient-24" x1="80.59" y1="126.88" x2="39.67" y2="85.95" xlink:href="#linear-gradient-2"/>
    <linearGradient id="linear-gradient-25" x1="87.36" y1="120.11" x2="46.43" y2="79.19" xlink:href="#linear-gradient-2"/>
    <linearGradient id="linear-gradient-26" x1="93.83" y1="113.64" x2="52.9" y2="72.71" xlink:href="#linear-gradient-2"/>
    <linearGradient id="linear-gradient-27" x1="98.17" y1="109.3" x2="57.25" y2="68.37" xlink:href="#linear-gradient-2"/>
    <linearGradient id="linear-gradient-28" x1="101.17" y1="106.3" x2="60.25" y2="65.37" xlink:href="#linear-gradient-2"/>
    <linearGradient id="linear-gradient-29" x1="101.18" y1="106.29" x2="60.26" y2="65.36" xlink:href="#linear-gradient-2"/>
    <linearGradient id="linear-gradient-30" x1="98.57" y1="108.91" x2="57.64" y2="67.98" xlink:href="#linear-gradient-2"/>
    <linearGradient id="linear-gradient-32" x1="87.36" y1="120.11" x2="46.43" y2="79.19" gradientTransform="matrix(1 0 0 -1 0 167.66)" xlink:href="#linear-gradient-2"/>
    <linearGradient id="linear-gradient-33" x1="80.59" y1="126.88" x2="39.67" y2="85.95" gradientTransform="matrix(1 0 0 -1 0 167.66)" xlink:href="#linear-gradient-2"/>
    <linearGradient id="linear-gradient-34" x1="74.51" y1="132.96" x2="33.58" y2="92.04" gradientTransform="matrix(1 0 0 -1 0 167.66)" xlink:href="#linear-gradient-2"/>
    <linearGradient id="linear-gradient-35" x1="69.39" y1="138.08" x2="28.46" y2="97.16" gradientTransform="matrix(1 0 0 -1 0 167.66)" xlink:href="#linear-gradient-2"/>
    <linearGradient id="linear-gradient-36" x1="66.77" y1="140.7" x2="25.84" y2="99.77" gradientTransform="matrix(1 0 0 -1 0 167.66)" xlink:href="#linear-gradient-2"/>
    <linearGradient id="linear-gradient-37" x1="66.76" y1="140.7" x2="25.83" y2="99.78" gradientTransform="matrix(1 0 0 -1 0 167.66)" xlink:href="#linear-gradient-2"/>
    <linearGradient id="linear-gradient-38" x1="69.09" y1="138.38" x2="28.17" y2="97.45" gradientTransform="matrix(1 0 0 -1 0 167.66)" xlink:href="#linear-gradient-2"/>
  </defs>
  <title>
    brand-assets
  </title>
  <g id="Layer_2" data-name="Layer 2">
    <g id="Layer_1-2" data-name="Layer 1">
      <g id="Layer_2-2" data-name="Layer 2">
        <g id="Layer_1-2-2" data-name="Layer 1-2">
          <path class="cls-2" d="M162 167.27l-72 27-72-27v-99l72 27 72-27v99z"/>
          <path class="cls-3" d="M90 41.27l-72 27 72 27 72-27-72-27z"/>
          <path class="cls-4" d="M90 95.27v99l72-27v-99l-72 27zm0 0l-18 27-54-27v-27l72 27z"/>
          <path class="cls-5" d="M90 95.27l-18 18-72-27 18-18 72 27z"/>
          <path class="cls-6" d="M90 95.27l18 27 54-27v-27l-72 27z"/>
          <path class="cls-7" d="M90 95.27l18 18 72-27-18-18-72 27z"/>
          <path class="cls-5" d="M90 41.27l-18-18-72 27 18 18 72-27z"/>
          <path class="cls-7" d="M90 41.27l18-18 72 27-18 18-72-27z"/>
          <path class="cls-8 cls-3" d="M113.66 137.38a4.9 4.9 0 0 0-3.22 5.42 3.62 3.62 0 0 0 4.56 3.19 4.9 4.9 0 0 0 3.22-5.42 3.62 3.62 0 0 0-4.56-3.19m23.34-6.69a4.9 4.9 0 0 0-3.22 5.42 3.62 3.62 0 0 0 4.56 3.19 4.9 4.9 0 0 0 3.22-5.42 3.62 3.62 0 0 0-4.56-3.19m6.55 16.12l-31.1 8.92c1.48 9.52 9.65 15.23 18.23 12.77s14.35-12.17 12.87-21.69"/>
          <g class="cls-9">
            <path class="cls-10" d="M25 21.27h49v67H25z"/>
            <path class="cls-11" d="M72 23.27v63H27v-63h45m4-4H23v71h53z"/>
            <path class="cls-12" d="M51.683 64.344l26.07-61.72 86.593 36.578-26.072 61.72z"/>
            <path class="cls-11" d="M78.8 5.27l82.91 35-24.51 58-82.91-35 24.51-58M76.67 0l-1.56 3.68-24.51 58L49 65.4l3.68 1.56 82.91 35 3.68 1.56 1.56-3.68 24.51-58L167 38.1l-3.68-1.56-82.91-35z"/>
            <path class="cls-13" d="M154.71 56.84L64.8 38.4l14-33.16 82.91 35.02-7 16.58z"/>
            <path class="cls-14" d="M71.8 21.82a45 45 0 0 1 23.94 59L54.29 63.27z"/>
            <path class="cls-15" d="M161.93 40.88v13.47h-13.74l13.74-13.47zm-28.04 27.71h28.04V58.11h-17.42l-10.62 10.48zm-17.9 17.68h45.94V72.35h-31.9l-14.04 13.92z"/>
            <path class="cls-11" d="M44.84 71.62a1.23 1.23 0 0 0-1.07.62l-4.43-1.86a1.24 1.24 0 1 0-2.2.45 6.94 6.94 0 0 1-2.86 1.15 1.24 1.24 0 0 0-2.17 0 6.86 6.86 0 0 1-2.86-1.15 1.23 1.23 0 0 0-1.72-1.73 6.87 6.87 0 0 1-1.15-2.83 1.24 1.24 0 0 0 0-2.17 6.87 6.87 0 0 1 1.15-2.86 1.23 1.23 0 0 0 1.72-1.72 6.87 6.87 0 0 1 2.86-1.15 1.24 1.24 0 0 0 2.17 0 6.81 6.81 0 0 1 2.86 1.15 1.24 1.24 0 1 0 2.2.45l4.46-1.84a1.25 1.25 0 1 0-.17-.39l-4.46 1.87a1.23 1.23 0 0 0-1-.57H38l-.82-3.2 2.7-1.47a1.24 1.24 0 1 0-.2-.37l-2.61 1.42-.7-2.74a1.24 1.24 0 1 0-1.72-1.41h-2.89A1.24 1.24 0 1 0 30 52.62l-.73 2.76-2.65-1.44a1.24 1.24 0 1 0-.9.81l1.83 4.42a1.24 1.24 0 0 0-.38.37l-4.46-1.87a1.24 1.24 0 1 0-1.85.78l-1.11 2.76h-.25a1.24 1.24 0 1 0 1 1.92l4 1.76a1.2 1.2 0 0 0 0 .58l-4 1.75a1.24 1.24 0 1 0-1 1.9h.25l1.1 2.73a1.24 1.24 0 1 0 1.88.82l4.45-1.86a1.24 1.24 0 0 0 .38.37l-1.83 4.42a1.24 1.24 0 1 0 .9.81l2.65-1.44.72 2.73a1.24 1.24 0 1 0 1.73 1.34h2.94a1.24 1.24 0 1 0 1.72-1.34l.7-2.74 2.61 1.42a1.24 1.24 0 1 0 .2-.37l-2.7-1.47.82-3.2h.09a1.23 1.23 0 0 0 1-.57l4.45 1.86a1.24 1.24 0 1 0 1.46-1h-.24zM32 72.97l-2.45 1.3-.81-3 .18-.1a7.29 7.29 0 0 0 3 1.26 1.19 1.19 0 0 0 0 .58zm-4.8-3.56a1.23 1.23 0 0 0-.1.19l-6.36-1.61v-.11a1.24 1.24 0 0 0 0-.27l4-1.76a1.23 1.23 0 0 0 1 .55h.19a7.29 7.29 0 0 0 1.29 3zm-1.45-5.49a1.23 1.23 0 0 0-1 .55l-4-1.76a1.23 1.23 0 0 0 0-.29v-.09l6.36-1.61a1.23 1.23 0 0 0 .1.18 7.29 7.29 0 0 0-1.26 3zm3.16-4.73l-.18-.1.81-3.08L32 57.35a1.19 1.19 0 0 0 0 .58 7.29 7.29 0 0 0-3.06 1.27zm8.69-.1l-.18.1a7.23 7.23 0 0 0-3-1.26 1.19 1.19 0 0 0 0-.58L36.9 56zm-7.19-6.36h.1a1.24 1.24 0 0 0 1.22-1h2.94a1.24 1.24 0 0 0 1.22 1H36l.73 2.84-2.57 1.4a1.23 1.23 0 0 0-1.93 0l-2.54-1.37zm-4.29 1.86a1.24 1.24 0 0 0 .3-.27l2.74 1.49-.84 3.18h-.37zm-4.86 4h.25a1.23 1.23 0 0 0 1-.57L27 59.95a1.24 1.24 0 0 0 0 .27v.05l-6.36 1.61a1.24 1.24 0 0 0-.48-.54zm1.32 13.62a1.23 1.23 0 0 0-1.34-.58l-1.09-2.72a1.24 1.24 0 0 0 .47-.53L27 70.01v.09a1.24 1.24 0 0 0 0 .27zm3.84 3.77a1.24 1.24 0 0 0-.3-.27L28 71.27h.37l.84 3.18zM36 77.59h-.09a1.24 1.24 0 0 0-1.22 1h-2.93a1.24 1.24 0 0 0-1.22-1h-.1l-.75-2.86 2.54-1.38a1.23 1.23 0 0 0 1.93 0l2.57 1.4zm.83-3.27l-2.48-1.35a1.19 1.19 0 0 0 0-.58 7.37 7.37 0 0 0 3-1.26l.18.1z"/>
            <path class="cls-16" d="M51.92 48.63l-8.72-1.56.12-.67 7.76 1.39-1.38-7.76.66-.12 1.56 8.72z"/>
            <path class="cls-17" d="M63.85 43.86l-5.39-7.75.55-.39 4.84 6.95 4.57-6.65.55.38-5.12 7.46z"/>
            <path class="cls-18" d="M63.51 42.97h.68v35.18h-.68z"/>
            <path class="cls-19" d="M46.26 60.22h35.18v.68H46.26z"/>
            <path class="cls-20" d="M51.177 48.37l.48-.48 24.877 24.876-.48.48z"/>
            <path class="cls-21" d="M51.177 72.766L76.053 47.89l.48.48L51.66 73.248z"/>
            <path class="cls-22" d="M40 65.95l-.41-.54L46 60.56l-6.41-4.85.41-.54 7.12 5.39L40 65.95z"/>
            <path class="cls-23" d="M50.36 81.21l-.66-.12 1.38-7.76-7.76 1.39-.12-.67 8.72-1.56-1.56 8.72z"/>
            <path class="cls-24" d="M68.7 84.82l-4.82-6.38-4.1 6.36-.56-.36 4.61-7.17 5.41 7.15-.54.4z"/>
            <path class="cls-25" d="M77.34 81.21l-1.55-8.72 8.71 1.56-.12.67-7.76-1.39 1.39 7.76-.67.12z"/>
            <path class="cls-26" d="M87.73 65.2l-7.21-4.64 7.21-4.64.36.57-6.32 4.07 6.32 4.07-.36.57z"/>
            <path class="cls-27" d="M75.79 48.63l1.55-8.72.67.12-1.39 7.76 7.76-1.39.12.67-8.71 1.56z"/>
            <rect class="cls-28" x="57.09" y="53.8" width="13.53" height="13.53" rx="6.76" ry="6.76"/>
            <path class="cls-29" d="M51.49 46.56a1.64 1.64 0 0 1 1.65 1.64 1.64 1.64 0 0 1-1.65 1.64 1.64 1.64 0 0 1-1.65-1.64 1.64 1.64 0 0 1 1.65-1.64z"/>
            <rect class="cls-30" x="74.56" y="46.56" width="3.29" height="3.29" rx="1.64" ry="1.64"/>
            <path class="cls-31" d="M51.49 71.27a1.64 1.64 0 0 1 1.65 1.64 1.64 1.64 0 0 1-1.65 1.64 1.64 1.64 0 0 1-1.65-1.64 1.64 1.64 0 0 1 1.65-1.64z"/>
            <rect class="cls-32" x="74.56" y="71.27" width="3.29" height="3.29" rx="1.64" ry="1.64"/>
            <rect class="cls-33" x="79.5" y="58.91" width="3.29" height="3.29" rx="1.64" ry="1.64"/>
            <path class="cls-34" d="M46.56 58.91a1.64 1.64 0 0 1 1.65 1.64 1.64 1.64 0 0 1-1.65 1.64 1.64 1.64 0 0 1-1.65-1.64 1.64 1.64 0 0 1 1.65-1.64z"/>
            <path class="cls-35" d="M65.5 77.86a1.64 1.64 0 0 1-1.64 1.65 1.64 1.64 0 0 1-1.64-1.65 1.64 1.64 0 0 1 1.64-1.65 1.64 1.64 0 0 1 1.64 1.65z"/>
            <path class="cls-36" d="M65.5 43.27a1.64 1.64 0 0 1-1.64 1.65 1.64 1.64 0 0 1-1.65-1.65 1.64 1.64 0 0 1 1.64-1.65 1.64 1.64 0 0 1 1.65 1.65z"/>
            <rect class="cls-37" x="67.05" y="34.56" width="3.29" height="3.29" rx="1.64" ry="1.64"/>
            <rect class="cls-38" x="76.03" y="38.33" width="3.29" height="3.29" rx="1.64" ry="1.64"/>
            <rect class="cls-39" x="82.8" y="45.09" width="3.29" height="3.29" rx="1.64" ry="1.64"/>
            <rect class="cls-40" x="86.27" y="54.56" width="3.29" height="3.29" rx="1.64" ry="1.64"/>
            <rect class="cls-41" x="86.26" y="63.26" width="3.29" height="3.29" rx="1.64" ry="1.64"/>
            <rect class="cls-42" x="82.79" y="72.73" width="3.29" height="3.29" rx="1.64" ry="1.64"/>
            <rect class="cls-43" x="76.03" y="79.5" width="3.29" height="3.29" rx="1.64" ry="1.64"/>
            <rect class="cls-44" x="67.33" y="82.97" width="3.29" height="3.29" rx="1.64" ry="1.64"/>
            <path class="cls-40" d="M61.15 84.62a1.64 1.64 0 0 1-1.64 1.65 1.64 1.64 0 0 1-1.64-1.65 1.64 1.64 0 0 1 1.63-1.65 1.64 1.64 0 0 1 1.65 1.65z"/>
            <path class="cls-45" d="M51.68 81.15A1.64 1.64 0 0 1 50 82.79a1.64 1.64 0 0 1-1.64-1.65A1.64 1.64 0 0 1 50 79.5a1.64 1.64 0 0 1 1.68 1.65z"/>
            <path class="cls-46" d="M44.91 74.38a1.64 1.64 0 0 1-1.64 1.65 1.64 1.64 0 0 1-1.64-1.65 1.64 1.64 0 0 1 1.64-1.65 1.64 1.64 0 0 1 1.64 1.65z"/>
            <path class="cls-47" d="M41.44 65.68a1.64 1.64 0 0 1-1.64 1.65 1.64 1.64 0 0 1-1.64-1.65 1.64 1.64 0 0 1 1.64-1.65 1.64 1.64 0 0 1 1.64 1.65z"/>
            <path class="cls-48" d="M41.44 55.45a1.64 1.64 0 0 1-1.64 1.65 1.64 1.64 0 0 1-1.64-1.65 1.64 1.64 0 0 1 1.64-1.65 1.64 1.64 0 0 1 1.64 1.65z"/>
            <path class="cls-49" d="M44.91 46.74a1.64 1.64 0 0 1-1.64 1.65 1.64 1.64 0 0 1-1.64-1.65 1.64 1.64 0 0 1 1.64-1.65 1.64 1.64 0 0 1 1.64 1.65z"/>
            <path class="cls-50" d="M51.67 39.97A1.64 1.64 0 0 1 50 41.61a1.64 1.64 0 0 1-1.64-1.65A1.64 1.64 0 0 1 50 38.32a1.64 1.64 0 0 1 1.67 1.65z"/>
            <path class="cls-51" d="M60.38 35.92a1.64 1.64 0 0 1-1.64 1.65 1.64 1.64 0 0 1-1.64-1.65 1.64 1.64 0 0 1 1.64-1.65 1.64 1.64 0 0 1 1.64 1.65z"/>
            <path class="cls-52" d="M126 77.27a18 18 0 0 0-24-17 27 27 0 0 0-48 17 9 9 0 0 0 0 18h72a9 9 0 0 0 0-18z"/>
          </g>
        </g>
      </g>
    </g>
  </g>
</svg>
