<svg xmlns="http://www.w3.org/2000/svg" viewBox="0 0 16 15"><defs><style>.cls-1{fill:#041d39;}</style></defs><title>dot-pattern</title><g id="Layer_2" data-name="Layer 2"><g id="Layer_1-2" data-name="Layer 1"><circle class="cls-1" cx="0.5" cy="0.5" r="0.5"/><circle class="cls-1" cx="2.5" cy="0.5" r="0.5"/><circle class="cls-1" cx="4.5" cy="0.5" r="0.5"/><circle class="cls-1" cx="6.5" cy="0.5" r="0.5"/><circle class="cls-1" cx="8.5" cy="0.5" r="0.5"/><circle class="cls-1" cx="10.5" cy="0.5" r="0.5"/><circle class="cls-1" cx="12.5" cy="0.5" r="0.5"/><circle class="cls-1" cx="14.5" cy="0.5" r="0.5"/><circle class="cls-1" cx="1.5" cy="2.5" r="0.5"/><circle class="cls-1" cx="3.5" cy="2.5" r="0.5"/><circle class="cls-1" cx="5.5" cy="2.5" r="0.5"/><circle class="cls-1" cx="7.5" cy="2.5" r="0.5"/><circle class="cls-1" cx="9.5" cy="2.5" r="0.5"/><circle class="cls-1" cx="11.5" cy="2.5" r="0.5"/><circle class="cls-1" cx="13.5" cy="2.5" r="0.5"/><circle class="cls-1" cx="15.5" cy="2.5" r="0.5"/><circle class="cls-1" cx="0.5" cy="4.5" r="0.5"/><circle class="cls-1" cx="2.5" cy="4.5" r="0.5"/><circle class="cls-1" cx="4.5" cy="4.5" r="0.5"/><circle class="cls-1" cx="6.5" cy="4.5" r="0.5"/><circle class="cls-1" cx="8.5" cy="4.5" r="0.5"/><circle class="cls-1" cx="10.5" cy="4.5" r="0.5"/><circle class="cls-1" cx="12.5" cy="4.5" r="0.5"/><circle class="cls-1" cx="14.5" cy="4.5" r="0.5"/><circle class="cls-1" cx="1.5" cy="6.5" r="0.5"/><circle class="cls-1" cx="3.5" cy="6.5" r="0.5"/><circle class="cls-1" cx="5.5" cy="6.5" r="0.5"/><circle class="cls-1" cx="7.5" cy="6.5" r="0.5"/><circle class="cls-1" cx="9.5" cy="6.5" r="0.5"/><circle class="cls-1" cx="11.5" cy="6.5" r="0.5"/><circle class="cls-1" cx="13.5" cy="6.5" r="0.5"/><circle class="cls-1" cx="15.5" cy="6.5" r="0.5"/><circle class="cls-1" cx="0.5" cy="8.5" r="0.5"/><circle class="cls-1" cx="2.5" cy="8.5" r="0.5"/><circle class="cls-1" cx="4.5" cy="8.5" r="0.5"/><circle class="cls-1" cx="6.5" cy="8.5" r="0.5"/><circle class="cls-1" cx="8.5" cy="8.5" r="0.5"/><circle class="cls-1" cx="10.5" cy="8.5" r="0.5"/><circle class="cls-1" cx="12.5" cy="8.5" r="0.5"/><circle class="cls-1" cx="14.5" cy="8.5" r="0.5"/><circle class="cls-1" cx="1.5" cy="10.5" r="0.5"/><circle class="cls-1" cx="3.5" cy="10.5" r="0.5"/><circle class="cls-1" cx="5.5" cy="10.5" r="0.5"/><circle class="cls-1" cx="7.5" cy="10.5" r="0.5"/><circle class="cls-1" cx="9.5" cy="10.5" r="0.5"/><circle class="cls-1" cx="11.5" cy="10.5" r="0.5"/><circle class="cls-1" cx="13.5" cy="10.5" r="0.5"/><circle class="cls-1" cx="15.5" cy="10.5" r="0.5"/><circle class="cls-1" cx="0.5" cy="12.5" r="0.5"/><circle class="cls-1" cx="2.5" cy="12.5" r="0.5"/><circle class="cls-1" cx="4.5" cy="12.5" r="0.5"/><circle class="cls-1" cx="6.5" cy="12.5" r="0.5"/><circle class="cls-1" cx="8.5" cy="12.5" r="0.5"/><circle class="cls-1" cx="10.5" cy="12.5" r="0.5"/><circle class="cls-1" cx="12.5" cy="12.5" r="0.5"/><circle class="cls-1" cx="14.5" cy="12.5" r="0.5"/><circle class="cls-1" cx="1.5" cy="14.5" r="0.5"/><circle class="cls-1" cx="3.5" cy="14.5" r="0.5"/><circle class="cls-1" cx="5.5" cy="14.5" r="0.5"/><circle class="cls-1" cx="7.5" cy="14.5" r="0.5"/><circle class="cls-1" cx="9.5" cy="14.5" r="0.5"/><circle class="cls-1" cx="11.5" cy="14.5" r="0.5"/><circle class="cls-1" cx="13.5" cy="14.5" r="0.5"/><circle class="cls-1" cx="15.5" cy="14.5" r="0.5"/></g></g></svg>