<svg xmlns="http://www.w3.org/2000/svg" viewBox="0 0 16.35 14.01"><defs><style>.cls-1{fill:none;stroke:#041d39;stroke-miterlimit:10;stroke-width:0.5px;}</style></defs><title>squiggly-pattern</title><g id="Layer_2" data-name="Layer 2"><g id="Layer_1-2" data-name="Layer 1"><path class="cls-1" d="M.18.18,1.47,1.47a1,1,0,0,0,1.41,0L3.47.88a1,1,0,0,1,1.41,0l.59.59a1,1,0,0,0,1.41,0L7.47.88a1,1,0,0,1,1.41,0l.59.59a1,1,0,0,0,1.41,0l.59-.59a1,1,0,0,1,1.41,0l.59.59a1,1,0,0,0,1.41,0L16.18.18"/><path class="cls-1" d="M.18,3.18,1.47,4.47a1,1,0,0,0,1.41,0l.59-.59a1,1,0,0,1,1.41,0l.59.59a1,1,0,0,0,1.41,0l.59-.59a1,1,0,0,1,1.41,0l.59.59a1,1,0,0,0,1.41,0l.59-.59a1,1,0,0,1,1.41,0l.59.59a1,1,0,0,0,1.41,0l1.29-1.29"/><path class="cls-1" d="M.18,6.18,1.47,7.47a1,1,0,0,0,1.41,0l.59-.59a1,1,0,0,1,1.41,0l.59.59a1,1,0,0,0,1.41,0l.59-.59a1,1,0,0,1,1.41,0l.59.59a1,1,0,0,0,1.41,0l.59-.59a1,1,0,0,1,1.41,0l.59.59a1,1,0,0,0,1.41,0l1.29-1.29"/><path class="cls-1" d="M.18,9.18l1.29,1.29a1,1,0,0,0,1.41,0l.59-.59a1,1,0,0,1,1.41,0l.59.59a1,1,0,0,0,1.41,0l.59-.59a1,1,0,0,1,1.41,0l.59.59a1,1,0,0,0,1.41,0l.59-.59a1,1,0,0,1,1.41,0l.59.59a1,1,0,0,0,1.41,0l1.29-1.29"/><path class="cls-1" d="M.18,12.18l1.29,1.29a1,1,0,0,0,1.41,0l.59-.59a1,1,0,0,1,1.41,0l.59.59a1,1,0,0,0,1.41,0l.59-.59a1,1,0,0,1,1.41,0l.59.59a1,1,0,0,0,1.41,0l.59-.59a1,1,0,0,1,1.41,0l.59.59a1,1,0,0,0,1.41,0l1.29-1.29"/></g></g></svg>