<svg xmlns="http://www.w3.org/2000/svg" viewBox="0 0 1920 579" width="1920" height="579">
  <defs>
    <style>
      .cls-1 {
        fill: #03162b;
      }
      .cls-2 {
        fill: #041d39;
      }
      .cls-3 {
        fill: #073971;
      }
      .cls-4 {
        fill: #052b55;
      }
      .cls-5 {
        opacity: 0.5;
      }
      .cls-6 {
        fill: #39618d;
      }
      .cls-7 {
        fill: #6a88aa;
      }
      .cls-8 {
        fill: #9cb0c6;
      }
    </style>
  </defs>
  <title>pacman-banner</title>
  <g id="Layer_2" data-name="Layer 2">
    <g id="Layer_1-2" data-name="Layer 1"><rect class="cls-1" y="3" width="1920" height="576"/><polygon class="cls-2" points="216 3 270 21 289 3 216 3 216 3"/><polygon class="cls-3" points="0 579 360 363 432 408 144 579 0 579"/><polygon class="cls-2" points="432 408 432 471 253 579 144 579 432 408"/><polygon class="cls-1" points="27 579 360 381 405 408 117 579 27 579"/><polygon class="cls-4" points="567 236.5 567.5 301 639 344.5 639 283.5 567 236.5"/><polygon class="cls-3" points="945 101.5 873 55 567 237 639 283.5 945 101.5"/><polygon class="cls-2" points="945 101 945 156 639 344 639 283 945 101"/><polygon class="cls-3" points="306 3 306 58 0 246 0 185 306 3"/><polygon class="cls-4" points="0 165 279 3 306 3 0 185 0 165"/><circle class="cls-4" cx="252" cy="12"/><polygon class="cls-2" points="1703 3 1649 21 1630 3 1703 3 1703 3"/><polygon class="cls-3" points="1613 3 1613 58 1919 246 1919 185 1613 3"/><polygon class="cls-4" points="811 507 813 562 841 579 935 579 811 507"/><polygon class="cls-4" points="1919 165 1640 3 1613 3 1919 185 1919 165"/><circle class="cls-4" cx="1667" cy="12"/><polygon class="cls-3" points="810 507 935 579 1920 579 1920 543.39 1378 165 810 507"/><polygon class="cls-1" points="838 507 1379 183 1920 562 1920 579 960 579 838 507"/><polygon class="cls-4" points="1379 183 1379 255 900 543 838 507 1379 183"/><polygon class="cls-2" points="1379 183 1920 562.18 1920 579 1855 579 1379 255 1379 183"/><polygon class="cls-1" points="598 236 871 74 916 101 642 265 598 236"/>
      <g class="cls-5"><polygon class="cls-6" points="81 342 72 348 72 357 81 363 90 357 90 348 81 342"/><polygon class="cls-7" points="72 348 81 354 81 363 72 357 72 348"/><polygon class="cls-6" points="81 354 90 348 90 357 81 363 81 354"/><polygon class="cls-8" points="90 348 81 342 72 348 81 354 90 348"/></g>
      <g class="cls-5"><polygon class="cls-6" points="1863 342 1854 348 1854 357 1863 363 1872 357 1872 348 1863 342"/><polygon class="cls-7" points="1854 348 1863 354 1863 363 1854 357 1854 348"/><polygon class="cls-6" points="1863 354 1872 348 1872 357 1863 363 1863 354"/><polygon class="cls-8" points="1872 348 1863 342 1854 348 1863 354 1872 348"/></g>
      <g class="cls-5"><polygon class="cls-6" points="513 351 504 357 504 366 513 372 522 366 522 357 513 351"/><polygon class="cls-7" points="504 357 513 363 513 372 504 366 504 357"/><polygon class="cls-6" points="513 363 522 357 522 366 513 372 513 363"/><polygon class="cls-8" points="522 357 513 351 504 357 513 363 522 357"/></g>
      <g class="cls-5"><polygon class="cls-6" points="225 252 216 258 216 267 225 273 234 267 234 258 225 252"/><polygon class="cls-7" points="216 258 225 264 225 273 216 267 216 258"/><polygon class="cls-6" points="225 264 234 258 234 267 225 273 225 264"/><polygon class="cls-8" points="234 258 225 252 216 258 225 264 234 258"/></g>
      <g class="cls-5"><polygon class="cls-6" points="1719 252 1710 258 1710 267 1719 273 1728 267 1728 258 1719 252"/><polygon class="cls-7" points="1710 258 1719 264 1719 273 1710 267 1710 258"/><polygon class="cls-6" points="1719 264 1728 258 1728 267 1719 273 1719 264"/><polygon class="cls-8" points="1728 258 1719 252 1710 258 1719 264 1728 258"/></g>
      <g class="cls-5"><polygon class="cls-6" points="378 270 369 276 369 285 378 291 387 285 387 276 378 270"/><polygon class="cls-7" points="369 276 378 282 378 291 369 285 369 276"/><polygon class="cls-6" points="378 282 387 276 387 285 378 291 378 282"/><polygon class="cls-8" points="387 276 378 270 369 276 378 282 387 276"/></g>
      <g class="cls-5"><polygon class="cls-6" points="369 171 360 177 360 186 369 192 378 186 378 177 369 171"/><polygon class="cls-7" points="360 177 369 183 369 192 360 186 360 177"/><polygon class="cls-6" points="369 183 378 177 378 186 369 192 369 183"/><polygon class="cls-8" points="378 177 369 171 360 177 369 183 378 177"/></g>
      <g class="cls-5"><polygon class="cls-6" points="1584 171 1575 177 1575 186 1584 192 1593 186 1593 177 1584 171"/><polygon class="cls-7" points="1575 177 1584 183 1584 192 1575 186 1575 177"/><polygon class="cls-6" points="1584 183 1593 177 1593 186 1584 192 1584 183"/><polygon class="cls-8" points="1593 177 1584 171 1575 177 1584 183 1593 177"/></g>
      <g class="cls-5"><polygon class="cls-6" points="513 81 504 87 504 96 513 102 522 96 522 87 513 81"/><polygon class="cls-7" points="504 87 513 93 513 102 504 96 504 87"/><polygon class="cls-6" points="513 93 522 87 522 96 513 102 513 93"/><polygon class="cls-8" points="522 87 513 81 504 87 513 93 522 87"/></g>
      <g class="cls-5"><polygon class="cls-6" points="1089 33 1080 39 1080 48 1089 54 1098 48 1098 39 1089 33"/><polygon class="cls-7" points="1080 39 1089 45 1089 54 1080 48 1080 39"/><polygon class="cls-6" points="1089 45 1098 39 1098 48 1089 54 1089 45"/><polygon class="cls-8" points="1098 39 1089 33 1080 39 1089 45 1098 39"/></g>
      <g class="cls-5"><polygon class="cls-6" points="1449 81 1440 87 1440 96 1449 102 1458 96 1458 87 1449 81"/><polygon class="cls-7" points="1440 87 1449 93 1449 102 1440 96 1440 87"/><polygon class="cls-6" points="1449 93 1458 87 1458 96 1449 102 1449 93"/><polygon class="cls-8" points="1458 87 1449 81 1440 87 1449 93 1458 87"/></g>
      <g class="cls-5"><polygon class="cls-6" points="1233 105 1224 111 1224 120 1233 126 1242 120 1242 111 1233 105"/><polygon class="cls-7" points="1224 111 1233 117 1233 126 1224 120 1224 111"/><polygon class="cls-6" points="1233 117 1242 111 1242 120 1233 126 1233 117"/><polygon class="cls-8" points="1242 111 1233 105 1224 111 1233 117 1242 111"/></g>
      <g class="cls-5"><polygon class="cls-6" points="657 0 648 6 648 15 657 21 666 15 666 6 657 0"/><polygon class="cls-7" points="648 6 657 12 657 21 648 15 648 6"/><polygon class="cls-6" points="657 12 666 6 666 15 657 21 657 12"/><polygon class="cls-8" points="666 6 657 0 648 6 657 12 666 6"/></g>
      <g class="cls-5"><polygon class="cls-6" points="513 531 504 537 504 546 513 552 522 546 522 537 513 531"/><polygon class="cls-7" points="504 537 513 543 513 552 504 546 504 537"/><polygon class="cls-6" points="513 543 522 537 522 546 513 552 513 543"/><polygon class="cls-8" points="522 537 513 531 504 537 513 543 522 537"/></g>
      <g class="cls-5"><polygon class="cls-6" points="657 444 648 450 648 459 657 465 666 459 666 450 657 444"/><polygon class="cls-7" points="648 450 657 456 657 465 648 459 648 450"/><polygon class="cls-6" points="657 456 666 450 666 459 657 465 657 456"/><polygon class="cls-8" points="666 450 657 444 648 450 657 456 666 450"/></g>
      <g class="cls-5"><polygon class="cls-6" points="801 360 792 366 792 375 801 381 810 375 810 366 801 360"/><polygon class="cls-7" points="792 366 801 372 801 381 792 375 792 366"/><polygon class="cls-6" points="801 372 810 366 810 375 801 381 801 372"/><polygon class="cls-8" points="810 366 801 360 792 366 801 372 810 366"/></g>
      <g class="cls-5"><polygon class="cls-6" points="945 273 936 279 936 288 945 294 954 288 954 279 945 273"/><polygon class="cls-7" points="936 279 945 285 945 294 936 288 936 279"/><polygon class="cls-6" points="945 285 954 279 954 288 945 294 945 285"/><polygon class="cls-8" points="954 279 945 273 936 279 945 285 954 279"/></g>
      <g class="cls-5"><polygon class="cls-6" points="1089 189 1080 195 1080 204 1089 210 1098 204 1098 195 1089 189"/><polygon class="cls-7" points="1080 195 1089 201 1089 210 1080 204 1080 195"/><polygon class="cls-6" points="1089 201 1098 195 1098 204 1089 210 1089 201"/><polygon class="cls-8" points="1098 195 1089 189 1080 195 1089 201 1098 195"/></g>
      <g class="cls-5"><polygon class="cls-6" points="1314 0 1305 6 1305 15 1314 21 1323 15 1323 6 1314 0"/><polygon class="cls-7" points="1305 6 1314 12 1314 21 1305 15 1305 6"/><polygon class="cls-6" points="1314 12 1323 6 1323 15 1314 21 1314 12"/><polygon class="cls-8" points="1323 6 1314 0 1305 6 1314 12 1323 6"/></g>
    </g>
  </g>
</svg>
