<svg xmlns="http://www.w3.org/2000/svg" viewBox="0 0 960 540"><defs><style>.caribou-coffee-1{fill:#cedff1;}.caribou-coffee-2{fill:#9cbfe3;}.caribou-coffee-3{fill:#3980c6;}.caribou-coffee-4{fill:#6ba0d4;}.caribou-coffee-5{fill:#041d39;}.caribou-coffee-6{fill:#073971;}</style></defs><title>caribou-coffee</title><g id="Layer_2" data-name="Layer 2"><g id="Layer_1-2" data-name="Layer 1"><rect class="caribou-coffee-1" width="960" height="540"/><polygon class="caribou-coffee-2" points="960 498 534 0 960 0 960 498"/><circle class="caribou-coffee-2" cx="526.5" cy="202.5" r="85.5"/><path class="caribou-coffee-3" d="M0,235.1A242.08,242.08,0,0,0,162,297c134.21,0,243-108.79,243-243a243.77,243.77,0,0,0-6-54H0Z"/><polygon class="caribou-coffee-3" points="144.11 540 960 293 960 540 144.11 540"/><path class="caribou-coffee-4" d="M526.36,449h0a180.9,180.9,0,0,1-59.13,10H180.77a180.9,180.9,0,0,1-59.12-9.95h0A103.46,103.46,0,0,1,81,423H567A103.46,103.46,0,0,1,526.36,449Z"/><ellipse class="caribou-coffee-2" cx="324" cy="432" rx="288" ry="18"/><ellipse class="caribou-coffee-4" cx="324" cy="432" rx="180" ry="9"/><path class="caribou-coffee-5" d="M468,368a8,8,0,0,1-6.19-13.07L532,269.19a40.11,40.11,0,0,0,9-25.33V186a16,16,0,0,0-16-16H450a8,8,0,0,1,0-16h75a32,32,0,0,1,32,32v57.87a56.15,56.15,0,0,1-12.66,35.46l-70.15,85.74A8,8,0,0,1,468,368Z"/><path class="caribou-coffee-6" d="M144,153H504a0,0,0,0,1,0,0V288A144,144,0,0,1,360,432H288A144,144,0,0,1,144,288V153A0,0,0,0,1,144,153Z"/><ellipse class="caribou-coffee-5" cx="324" cy="153" rx="180" ry="9"/><path class="caribou-coffee-5" d="M243,387a270.5,270.5,0,0,1-66.89-8.36A143.71,143.71,0,0,0,288,432h72A144,144,0,0,0,504,288V186.32C473.4,301.85,368.15,387,243,387Z"/><path class="caribou-coffee-5" d="M656.45,180.05V192a31.36,31.36,0,0,1,18,7.56l-7.92,12.64c-3.54-3.19-7.92-5.55-12.88-5.55-3.31,0-5.91.83-7.44,2.25a6.87,6.87,0,0,0-2.36,5,5.66,5.66,0,0,0,2.25,4.61c1.89,1.65,4.73,2.48,7.92,3.9l6.62,2.84c4,1.77,8,3.66,11.11,6.74,3.9,4,5.55,8.86,5.55,14.53a25.56,25.56,0,0,1-6.5,17.61,24.85,24.85,0,0,1-14.3,7.33v13.47H645.81v-13a32.88,32.88,0,0,1-14.18-3.9,39.44,39.44,0,0,1-10.63-8l8.74-13a41.24,41.24,0,0,0,7.68,6.14,20.1,20.1,0,0,0,11,3.19,11.91,11.91,0,0,0,7.92-2.48,7.57,7.57,0,0,0,2.84-6,7.33,7.33,0,0,0-3.54-6.38c-1.89-1.3-3.9-1.89-8.15-3.54l-4.14-1.65c-4.14-1.65-8.39-3.66-11.93-7.21a17.29,17.29,0,0,1-5.32-13c0-7,2.6-13.35,6.74-17.49a24.32,24.32,0,0,1,13-6.5V180.05Z"/><path class="caribou-coffee-5" d="M832.83,227.64H760.54l-5.78,28.6a109.5,109.5,0,0,1,17.67-1.61c24.1,0,42.73,8.68,54.62,20.88,9.64,9.64,19.6,26.35,19.6,51.73,0,27.63-11.89,45.3-21.85,55.26C805.2,401.79,781.74,405,759.9,405c-20.24,0-44.34-2.57-71.33-23.46l11.24-45.95a105.31,105.31,0,0,0,20.56,17.67,58.49,58.49,0,0,0,32.45,9.32c11.24,0,22.81-2.57,30.52-8.67,6.75-5.14,12.53-14.46,12.53-27,0-12.85-5.78-20.56-10.92-25.06-2.57-2.25-13.17-11.24-35.66-11.24a91.79,91.79,0,0,0-43.7,11.24l21.85-116H832.83Z"/><path class="caribou-coffee-5" d="M113.31,80.12a13,13,0,0,1-6.17,1.51c-5.17,0-8.65-1.76-11-4.07a15,15,0,0,1,0-21.17,14.87,14.87,0,0,1,10.46-4,16.68,16.68,0,0,1,6.72,1.55v7.48a8.88,8.88,0,0,0-6.55-3A7.86,7.86,0,0,0,101,60.58a9,9,0,0,0-2.65,6.47,8.2,8.2,0,0,0,8.49,8.53,8.83,8.83,0,0,0,6.43-2.9Z"/><path class="caribou-coffee-5" d="M139.14,75.71H128.56L126.42,81h-6.72L131,53h5.92l11,28h-6.72Zm-1.76-5-3.44-9.41-3.49,9.41Z"/><path class="caribou-coffee-5" d="M165.14,53a10,10,0,0,1,7.14,2.44,8.45,8.45,0,0,1,2.44,6.26,7.67,7.67,0,0,1-2.18,5.71,8.81,8.81,0,0,1-3.91,2.14L177.24,81h-7.9l-7.56-11V81h-6.47V53Zm-3.36,12.73h1.47a5.32,5.32,0,0,0,3.86-1.22,3.77,3.77,0,0,0,1.05-2.73,3.4,3.4,0,0,0-1.3-2.86,6.32,6.32,0,0,0-3.57-.88h-1.51Z"/><path class="caribou-coffee-5" d="M191.6,53V81h-6.47V53Z"/><path class="caribou-coffee-5" d="M210.63,53c1.51,0,5,.08,7.14,2.14a7.23,7.23,0,0,1,2,5.29,6.58,6.58,0,0,1-.92,3.57A5.13,5.13,0,0,1,216.51,66a7.3,7.3,0,0,1,3.86,1.89,6.84,6.84,0,0,1,1.81,5A7.67,7.67,0,0,1,220,78.61c-2.31,2.23-5.67,2.39-7.39,2.39H202.06V53Zm-2.18,11.38h1.05a6,6,0,0,0,3.28-.8,3,3,0,0,0,1.13-2.48,2.85,2.85,0,0,0-1.09-2.35,5.38,5.38,0,0,0-3.36-.71h-1Zm0,11.59H210c1.64,0,3.61,0,4.79-1.13a3.1,3.1,0,0,0,.92-2.35,3,3,0,0,0-.88-2.27c-1.13-1.05-3.32-1.05-4.62-1.05h-1.76Z"/><path class="caribou-coffee-5" d="M256,56.43a14.91,14.91,0,0,1,0,21.09,15,15,0,0,1-10.84,4.12,15.42,15.42,0,0,1-10.92-4.12A14.31,14.31,0,0,1,229.9,67.1a15.64,15.64,0,0,1,4.33-10.63c1.89-1.89,5.38-4.12,11-4.12A15,15,0,0,1,256,56.43Zm-17,4.28a8.58,8.58,0,0,0-2.48,6.34,8.36,8.36,0,0,0,2.56,6.3,8.24,8.24,0,0,0,6,2.31,8.48,8.48,0,0,0,6.22-2.39A8.39,8.39,0,0,0,253.76,67a8.83,8.83,0,0,0-2.44-6.3,9,9,0,0,0-6.17-2.39A8.6,8.6,0,0,0,239,60.71Z"/><path class="caribou-coffee-5" d="M293.12,69.57c0,2.69-.34,6-3.11,8.86s-5.8,3.19-8.74,3.19-6-.42-8.74-3.19-3.11-6.17-3.11-8.86V53h6.47V69.41a6.61,6.61,0,0,0,1.47,4.71,5.93,5.93,0,0,0,7.81,0,6.61,6.61,0,0,0,1.47-4.71V53h6.47Z"/><path class="caribou-coffee-5" d="M337.68,80.12a13,13,0,0,1-6.17,1.51c-5.17,0-8.65-1.76-11-4.07a15,15,0,0,1,0-21.17,14.87,14.87,0,0,1,10.46-4,16.68,16.68,0,0,1,6.72,1.55v7.48a8.88,8.88,0,0,0-6.55-3,7.86,7.86,0,0,0-5.71,2.18,9,9,0,0,0-2.65,6.47,8.2,8.2,0,0,0,8.49,8.53,8.84,8.84,0,0,0,6.43-2.9Z"/><path class="caribou-coffee-5" d="M371.86,56.43a14.91,14.91,0,0,1,0,21.09A15,15,0,0,1,361,81.63a15.42,15.42,0,0,1-10.92-4.12,14.31,14.31,0,0,1-4.37-10.42,15.64,15.64,0,0,1,4.33-10.63c1.89-1.89,5.38-4.12,11-4.12A15,15,0,0,1,371.86,56.43Zm-17,4.28a8.58,8.58,0,0,0-2.48,6.34,8.36,8.36,0,0,0,2.56,6.3,8.24,8.24,0,0,0,6,2.31,8.48,8.48,0,0,0,6.22-2.39A8.39,8.39,0,0,0,369.6,67a8.83,8.83,0,0,0-2.44-6.3A9,9,0,0,0,361,58.32,8.6,8.6,0,0,0,354.85,60.71Z"/><path class="caribou-coffee-5" d="M400.8,58.44h-9.07v5.42h8.4v5.46h-8.4V81h-6.47V53H400.8Z"/><path class="caribou-coffee-5" d="M425.29,58.44h-9.07v5.42h8.4v5.46h-8.4V81h-6.47V53h15.54Z"/><path class="caribou-coffee-5" d="M450.07,58.44H440.7v5.42h8.91v5.46H440.7v6.22h9.37V81H434.23V53h15.84Z"/><path class="caribou-coffee-5" d="M475.35,58.44H466v5.42h8.91v5.46H466v6.22h9.37V81H459.51V53h15.84Z"/><path class="caribou-coffee-5" d="M512.27,65.71h13.9V66c0,3.4-1.22,8.57-4.33,11.8s-6.68,3.82-10,3.82-7-.55-10.25-3.91a14.86,14.86,0,0,1-4.12-10.67,15,15,0,0,1,4-10.63c3.44-3.57,7.69-4.07,11-4.07a14.12,14.12,0,0,1,7.86,2.1,15.5,15.5,0,0,1,4.54,5l-5.84,3.15a8.5,8.5,0,0,0-2.48-3,7,7,0,0,0-4.29-1.34,7.58,7.58,0,0,0-5.8,2.27,9.59,9.59,0,0,0-2.39,6.64,8.81,8.81,0,0,0,2.35,6.43,7.36,7.36,0,0,0,5.67,2.18A7.18,7.18,0,0,0,517,74.24a6.54,6.54,0,0,0,2-3.32h-6.76Z"/><path class="caribou-coffee-5" d="M541.79,53V81h-6.47V53Z"/><path class="caribou-coffee-5" d="M567.79,58.44h-9.07v5.42h8.4v5.46h-8.4V81h-6.47V53h15.54Z"/><path class="caribou-coffee-5" d="M586.56,58.44V81h-6.47V58.44H574V53h18.65v5.46Z"/><path class="caribou-coffee-5" d="M634.49,80.12a13,13,0,0,1-6.18,1.51c-5.17,0-8.65-1.76-11-4.07a15,15,0,0,1,0-21.17,14.87,14.87,0,0,1,10.46-4,16.68,16.68,0,0,1,6.72,1.55v7.48a8.88,8.88,0,0,0-6.55-3,7.86,7.86,0,0,0-5.71,2.18,9,9,0,0,0-2.65,6.47,8.2,8.2,0,0,0,8.49,8.53,8.84,8.84,0,0,0,6.43-2.9Z"/><path class="caribou-coffee-5" d="M660.32,75.71H649.73L647.59,81h-6.72l11.3-28h5.92l11,28h-6.72Zm-1.76-5-3.45-9.41-3.49,9.41Z"/><path class="caribou-coffee-5" d="M686.31,53a10,10,0,0,1,7.14,2.44,8.45,8.45,0,0,1,2.44,6.26,7.67,7.67,0,0,1-2.18,5.71,8.82,8.82,0,0,1-3.91,2.14L698.41,81h-7.9L683,70V81h-6.47V53ZM683,65.71h1.47a5.32,5.32,0,0,0,3.87-1.22,3.77,3.77,0,0,0,1-2.73A3.4,3.4,0,0,0,688,58.9a6.32,6.32,0,0,0-3.57-.88H683Z"/><path class="caribou-coffee-5" d="M715,53c3.7,0,7.6.55,11,3.86a13.38,13.38,0,0,1,4,10,13.4,13.4,0,0,1-3.82,9.91,15.1,15.1,0,0,1-11,4.2h-9.07V53Zm-2.39,22.56h1.72c1.34,0,4.29-.13,6.39-1.89a8.75,8.75,0,0,0,2.73-6.76,8.29,8.29,0,0,0-2.31-6,9.25,9.25,0,0,0-6.81-2.39h-1.72Z"/></g></g></svg>
