<svg xmlns="http://www.w3.org/2000/svg" viewBox="0 0 960 540"><defs><style>.grand-prize-1{fill:#404041;}.grand-prize-2{fill:#303031;}.grand-prize-3{fill:#f9ef3c;}.grand-prize-4{fill:#fbf58a;}.grand-prize-5,.grand-prize-7{fill:#202021;}.grand-prize-5{opacity:0.25;}.grand-prize-6{fill:#3e3c0f;}.grand-prize-8{fill:#fff;}</style></defs><title>grand-prize</title><g id="Layer_2" data-name="Layer 2"><g id="Layer_1-2" data-name="Layer 1"><rect class="grand-prize-1" width="960" height="540"/><polygon class="grand-prize-2" points="243 108 234 117 234 450 720 450 720 117 711 108 243 108"/><rect class="grand-prize-1" x="243" y="108" width="468" height="324"/><rect class="grand-prize-3" x="261" y="126" width="432" height="288"/><polygon class="grand-prize-4" points="261 298.59 433.59 126 395.41 126 261 260.41 261 298.59"/><polygon class="grand-prize-4" points="578.59 414 693 299.59 693 261.41 540.41 414 578.59 414"/><polygon class="grand-prize-4" points="313.41 414 478 414 693 199 693 126 601.41 126 313.41 414"/><path class="grand-prize-5" d="M606,108v70a8,8,0,0,0,8,8H720V117l-9-9Z"/><rect class="grand-prize-6" x="270" y="135" width="9" height="9"/><rect class="grand-prize-6" x="675" y="135" width="9" height="9"/><rect class="grand-prize-6" x="270" y="396" width="9" height="9"/><rect class="grand-prize-6" x="675" y="396" width="9" height="9"/><path class="grand-prize-1" d="M382.46,215c2.44,0,5.12.34,7.35,2.31a8.62,8.62,0,0,1,2.73,6.81,9,9,0,0,1-2.39,6.6c-2.23,2.27-5.17,2.48-7.14,2.48h-3.95V243h-6.47V215Zm-3.4,12.9h2.31a5,5,0,0,0,3.49-1.05,3.9,3.9,0,0,0,1.05-2.77,3.7,3.7,0,0,0-1.05-2.73,5,5,0,0,0-3.61-1.05h-2.18Z"/><path class="grand-prize-1" d="M414.76,237.72H404.17L402,243h-6.72l11.3-28h5.92l11,28h-6.72Zm-1.76-5-3.44-9.41-3.49,9.41Z"/><path class="grand-prize-1" d="M450.33,242.13a13,13,0,0,1-6.17,1.51c-5.17,0-8.65-1.76-11-4.07a15,15,0,0,1,0-21.17,14.87,14.87,0,0,1,10.46-4,16.68,16.68,0,0,1,6.72,1.55v7.48a8.88,8.88,0,0,0-6.55-3,7.86,7.86,0,0,0-5.71,2.18,9,9,0,0,0-2.65,6.47,8.2,8.2,0,0,0,8.49,8.53,8.83,8.83,0,0,0,6.43-2.9Z"/><path class="grand-prize-1" d="M458.73,229.74h10.75V235H458.73Z"/><path class="grand-prize-1" d="M477.54,243l4.5-28h5.38l7,16.76,7-16.76h5.38l4.5,28h-6.47l-2.23-16.72-7,16.72h-2.27l-7-16.72L484,243Z"/><path class="grand-prize-1" d="M536.73,237.72H526.14L524,243h-6.72l11.3-28h5.92l11,28h-6.72Zm-1.76-5-3.45-9.41L528,232.76Z"/><path class="grand-prize-1" d="M552.89,243V215h5.63l15.21,18.06V215h6.47v28h-5.63l-15.21-18.15V243Z"/><path class="grand-prize-1" d="M382.89,323.19a21.07,21.07,0,0,1-10,2.45c-8.36,0-14-2.86-17.81-6.6a24.29,24.29,0,0,1,0-34.27A24.08,24.08,0,0,1,372,278.24a27,27,0,0,1,10.88,2.52v12.1A14.37,14.37,0,0,0,372.28,288a12.72,12.72,0,0,0-9.25,3.54A14.52,14.52,0,0,0,358.75,302a13.26,13.26,0,0,0,13.73,13.8c2.72,0,6.39-.75,10.4-4.69Z"/><path class="grand-prize-1" d="M408.53,296.53h18.09V279.26h10.47v45.35H426.61V305.37H408.53v19.24H398.05V279.26h10.47Z"/><path class="grand-prize-1" d="M480.47,316H463.33l-3.47,8.57H449l18.29-45.35h9.59l17.88,45.35H483.87Zm-2.86-8L472,292.79,466.39,308Z"/><path class="grand-prize-1" d="M504.54,324.61l7.28-45.35h8.7l11.29,27.13,11.29-27.13h8.7l7.27,45.35H548.6L545,297.55l-11.35,27.06H530l-11.35-27.06L515,324.61Z"/><path class="grand-prize-1" d="M589.67,279.26c3.94,0,8.29.54,11.9,3.74,3.88,3.4,4.42,7.89,4.42,11,0,5.71-2.18,8.91-3.88,10.67-3.6,3.67-8.36,4-11.56,4h-6.39v15.91H573.7V279.26Zm-5.51,20.87h3.74c1.43,0,3.94-.07,5.64-1.7a6.31,6.31,0,0,0,1.7-4.49,6,6,0,0,0-1.7-4.42c-1.56-1.5-3.81-1.7-5.85-1.7h-3.54Z"/><polygon class="grand-prize-7" points="234 450 243 432 711 432 720 450 234 450"/><path class="grand-prize-1" d="M433.13,395.84l1.71-10.68h2l2.66,6.39,2.66-6.39h2L446,395.84H443.5l-.85-6.37L440,395.84h-.86l-2.67-6.37-.85,6.37Z"/><path class="grand-prize-1" d="M448.9,395.84l1.71-10.68h2l2.66,6.39,2.66-6.39h2l1.71,10.68h-2.46l-.85-6.37-2.67,6.37h-.86l-2.67-6.37-.85,6.37Z"/><path class="grand-prize-1" d="M470.68,387.77a2.6,2.6,0,0,0-1.79-.77,1.34,1.34,0,0,0-1,.37,1,1,0,0,0-.27.67.75.75,0,0,0,.24.59,4.29,4.29,0,0,0,1.34.61l.8.3a4.31,4.31,0,0,1,1.46.82,2.67,2.67,0,0,1,.78,2,3.83,3.83,0,0,1-.94,2.64,4.13,4.13,0,0,1-3,1.09,4.53,4.53,0,0,1-2.11-.45,6.79,6.79,0,0,1-1.57-1.17l1.28-1.76a6.47,6.47,0,0,0,1,.82,2.47,2.47,0,0,0,1.34.38,1.71,1.71,0,0,0,1.12-.37,1.11,1.11,0,0,0,.38-.86.94.94,0,0,0-.37-.77,5.23,5.23,0,0,0-1.25-.59l-.88-.3a3.59,3.59,0,0,1-1.49-.85,2.62,2.62,0,0,1-.64-1.86,3.28,3.28,0,0,1,.93-2.4,3.44,3.44,0,0,1,2.64-1,5.16,5.16,0,0,1,3.17,1.06Z"/><path class="grand-prize-1" d="M488.28,395.84h-8.16l3.2-3.49a24.66,24.66,0,0,0,1.75-2.18,3.6,3.6,0,0,0,.64-1.81,1.5,1.5,0,0,0-.42-1.06,1.45,1.45,0,0,0-1-.3,1.25,1.25,0,0,0-1,.38,2.16,2.16,0,0,0-.45,1.31h-2.46a4.58,4.58,0,0,1,1.1-2.67,3.86,3.86,0,0,1,2.95-1.1,3.79,3.79,0,0,1,2.77,1,3.57,3.57,0,0,1,1,2.56,3.8,3.8,0,0,1-.8,2.35,13.83,13.83,0,0,1-1.71,1.84l-1.12,1.07h3.68Z"/><path class="grand-prize-1" d="M498.59,395a4,4,0,0,1-2.87,1.1,3.91,3.91,0,0,1-2.83-1.1,7.28,7.28,0,0,1,0-8.95,3.91,3.91,0,0,1,2.83-1.1,4,4,0,0,1,2.87,1.1,7.29,7.29,0,0,1,0,8.95Zm-3.84-7.54a4.65,4.65,0,0,0-.9,3.06,4.7,4.7,0,0,0,.9,3.07,1.43,1.43,0,0,0,2,0,4.7,4.7,0,0,0,.9-3.07,4.65,4.65,0,0,0-.9-3.06,1.43,1.43,0,0,0-2,0Z"/><path class="grand-prize-1" d="M504.84,387.24h-1.52v-2.08h4v10.68h-2.46Z"/><path class="grand-prize-1" d="M516,387.24h-4.71v-2.08h8.48l-6.32,10.92-2.29-.56Z"/><rect class="grand-prize-7" x="612" y="54" width="207" height="126" rx="8" ry="8"/><path class="grand-prize-8" d="M769.63,68.6v1.62a4.26,4.26,0,0,1,2.43,1L771,72.95a2.63,2.63,0,0,0-1.75-.75,1.49,1.49,0,0,0-1,.3.93.93,0,0,0-.32.67.77.77,0,0,0,.3.62,4.43,4.43,0,0,0,1.07.53l.9.38a4.79,4.79,0,0,1,1.5.91,2.69,2.69,0,0,1,.75,2,3.46,3.46,0,0,1-.88,2.38,3.36,3.36,0,0,1-1.94,1v1.83h-1.44V81a4.46,4.46,0,0,1-1.92-.53,5.35,5.35,0,0,1-1.44-1.09L766,77.65a5.53,5.53,0,0,0,1,.83,2.72,2.72,0,0,0,1.49.43,1.61,1.61,0,0,0,1.07-.34,1,1,0,0,0,.38-.82,1,1,0,0,0-.48-.86,5.57,5.57,0,0,0-1.1-.48l-.56-.22a4.62,4.62,0,0,1-1.62-1,2.34,2.34,0,0,1-.72-1.76,3.37,3.37,0,0,1,.91-2.37,3.29,3.29,0,0,1,1.76-.88V68.6Z"/><path class="grand-prize-8" d="M778.88,72.4h-1.52V70.32h4V81h-2.47Z"/><path class="grand-prize-8" d="M792.87,80.14a4,4,0,0,1-2.87,1.1,3.91,3.91,0,0,1-2.83-1.1,6.19,6.19,0,0,1-1.54-4.47,6.18,6.18,0,0,1,1.54-4.48,3.91,3.91,0,0,1,2.83-1.1,4,4,0,0,1,2.87,1.1,6.17,6.17,0,0,1,1.54,4.48A6.18,6.18,0,0,1,792.87,80.14ZM789,72.6a5.69,5.69,0,0,0,0,6.13,1.43,1.43,0,0,0,2,0,5.69,5.69,0,0,0,0-6.13,1.43,1.43,0,0,0-2,0Z"/><path class="grand-prize-8" d="M804.07,80.14a4,4,0,0,1-2.86,1.1,3.91,3.91,0,0,1-2.83-1.1,6.18,6.18,0,0,1-1.54-4.47,6.17,6.17,0,0,1,1.54-4.48,3.91,3.91,0,0,1,2.83-1.1,4,4,0,0,1,2.86,1.1,6.17,6.17,0,0,1,1.54,4.48A6.18,6.18,0,0,1,804.07,80.14Zm-3.84-7.54a5.69,5.69,0,0,0,0,6.13,1.43,1.43,0,0,0,2,0,5.69,5.69,0,0,0,0-6.13,1.43,1.43,0,0,0-2,0Z"/><path class="grand-prize-8" d="M650.35,110.56V117H648.5v-6.44h-1.74V109h5.33v1.56Z"/><path class="grand-prize-8" d="M661.11,110a4.26,4.26,0,0,1,0,6,4.27,4.27,0,0,1-3.09,1.18A4.4,4.4,0,0,1,654.9,116a4.08,4.08,0,0,1-1.25-3,4.46,4.46,0,0,1,1.24-3,4.73,4.73,0,0,1,6.22,0Zm-4.86,1.22a2.45,2.45,0,0,0-.71,1.81,2.39,2.39,0,0,0,.73,1.8,2.36,2.36,0,0,0,1.72.66,2.42,2.42,0,0,0,1.77-.68,2.39,2.39,0,0,0,.7-1.79,2.52,2.52,0,0,0-.7-1.8,2.56,2.56,0,0,0-1.76-.68A2.46,2.46,0,0,0,656.25,111.21Z"/><path class="grand-prize-8" d="M665.73,111.47a1.09,1.09,0,1,1-1.09,1.09A1.08,1.08,0,0,1,665.73,111.47Zm0,3.53a1.09,1.09,0,1,1-1.09,1.09A1.08,1.08,0,0,1,665.73,115Z"/><path class="grand-prize-8" d="M631.15,139.36h-2.59v1.55H631v1.56h-2.4v3.33h-1.85v-8h4.44Z"/><path class="grand-prize-8" d="M636.51,137.8a2.86,2.86,0,0,1,2,.7,2.41,2.41,0,0,1,.7,1.79,2.19,2.19,0,0,1-.62,1.63,2.52,2.52,0,0,1-1.12.61L640,145.8h-2.25l-2.16-3.15v3.15h-1.85v-8Zm-1,3.63H636a1.52,1.52,0,0,0,1.1-.35,1.08,1.08,0,0,0,.3-.78,1,1,0,0,0-.37-.82,1.8,1.8,0,0,0-1-.25h-.43Z"/><path class="grand-prize-8" d="M649.28,138.78a4.26,4.26,0,0,1,0,6,4.27,4.27,0,0,1-3.09,1.18,4.4,4.4,0,0,1-3.12-1.18,4.08,4.08,0,0,1-1.25-3,4.46,4.46,0,0,1,1.24-3,4.73,4.73,0,0,1,6.22,0ZM644.42,140a2.45,2.45,0,0,0-.71,1.81,2.39,2.39,0,0,0,.73,1.8,2.36,2.36,0,0,0,1.72.66,2.42,2.42,0,0,0,1.77-.68,2.39,2.39,0,0,0,.7-1.79,2.52,2.52,0,0,0-.7-1.8,2.56,2.56,0,0,0-1.76-.68A2.46,2.46,0,0,0,644.42,140Z"/><path class="grand-prize-8" d="M652.74,145.8l1.28-8h1.54l2,4.79,2-4.79h1.54l1.28,8h-1.85l-.64-4.77-2,4.77h-.65l-2-4.77-.64,4.77Z"/><path class="grand-prize-8" d="M665.73,140.27a1.09,1.09,0,1,1-1.09,1.09A1.08,1.08,0,0,1,665.73,140.27Zm0,3.53a1.09,1.09,0,1,1-1.09,1.09A1.08,1.08,0,0,1,665.73,143.8Z"/><path class="grand-prize-8" d="M690.44,102.37c2.88,0,3.14,0,3.14.34s-.26.74-.57.74h-3.19c-.26,0-.34,0-.34.09s0,.06.26.28c0,.06.06.09.06.14a.85.85,0,0,1-.09.31c-.26.77-.34,1.11-2,6.58l-.68,2.51c-1.2,4.19-1.31,4.56-2,7.21-.06.29-.2.37-.6.37s-.48-.11-.48-.34c0-.63,1.74-6.9,4.67-16.88a.49.49,0,0,0,0-.2c0-.11,0-.11-.8-.11h-2.74c-.4,0-.6-.11-.6-.37a.67.67,0,0,1,.74-.68Z"/><path class="grand-prize-8" d="M691.32,115.39c-.14,0-.2-.06-.2-.14s.26-.6.4-.6H692c2.05-6.64,2.25-7.21,2.48-7.21s.57.11.57.29a.85.85,0,0,1-.09.34s-.11.37-.23.71c-.06.17-.17.54-.31,1-.2.65-.37,1.17-.49,1.48-.14.51-.31,1.05-.48,1.57l-.34,1.14-.2.66,3.93.11.74,0c.14,0,.17-.06.23-.26s.11-.37.2-.68c.23-.6.77-2.45,1.43-4.73.14-.46.23-.8.28-1a1.21,1.21,0,0,0,.09-.26c.09-.31.17-.43.34-.43s.57.2.57.31a1.28,1.28,0,0,1-.11.48s-.2.6-.34,1.14-.34,1.2-.6,2l-.63,2.05-.88,2.82-.83,2.59L697,120a5,5,0,0,1-.2.6l-.06.23c-.06.17-.11.23-.26.23s-.57-.2-.57-.37a1,1,0,0,1,.11-.4c0-.06.06-.17.11-.31.11-.43.2-.71.23-.8l.34-1.05c.4-1.28.66-2.05.74-2.31a1.13,1.13,0,0,1,.11-.37.55.55,0,0,0,.06-.17.06.06,0,0,0-.06-.06s-.06,0-.14.09a.69.69,0,0,1-.26.2l-4.45-.06q-.21.64-.26.86l-.43,1.45c-.26.85-.49,1.74-.71,2.57-.17.66-.17.66-.34.66s-.57-.14-.57-.31a43.41,43.41,0,0,1,1.43-5.22Z"/><path class="grand-prize-8" d="M701.29,115.56c-.09,0-.14-.06-.14-.2,0-.4.14-.57.49-.57h.4l.29-.94c.14-.46.29-.94.46-1.43s.26-.85.4-1.31.31-1,.48-1.48a10,10,0,0,1,.34-1,.26.26,0,0,0,0-.14c0-.09-.06-.09-.46-.09s-.4,0-.4-.26.11-.51.37-.51l5.3,0c.31,0,.4.09.4.28a.7.7,0,0,1-.17.46c-.06.06-.23.09-1.08.09h-3.22c-.11,0-.14,0-.14,0s0,.06.11.17a.1.1,0,0,1,0,.09,19.32,19.32,0,0,1-.6,1.91c-.57,1.74-.91,2.88-1.08,3.42a2.29,2.29,0,0,1-.14.43,1.36,1.36,0,0,0-.06.26c0,.09.06.09.29.09l3.85,0c.4,0,.46,0,.46.2s-.17.54-.43.54h-4.42l-1.23,4a4,4,0,0,0-.14.51c0,.06.11.09.46.09h3.53c1.2,0,1.28,0,1.28.17,0,.4-.11.54-.49.54h-4.47c-.8,0-1.11-.17-1.11-.63a7.41,7.41,0,0,1,.48-1.88l.86-2.82Z"/><path class="grand-prize-8" d="M721.95,114.59a8.93,8.93,0,0,1-1.88,4.39c-1.17,1.45-2.14,2.08-3.19,2.08-1.88,0-3-1.8-3-4.73a25,25,0,0,1,2.74-10.63c1.25-2.48,2.94-3.91,4.62-3.91a2.19,2.19,0,0,1,2.14,2.48,8.25,8.25,0,0,1-.4,2.74,1.35,1.35,0,0,1-.86.51.25.25,0,0,1-.26-.26,2.93,2.93,0,0,1,.14-.71,8.43,8.43,0,0,0,.26-2.08c0-1.05-.4-1.6-1.17-1.6-1.45,0-2.88,1.62-4.16,4.76a24.55,24.55,0,0,0-1.91,9c0,2.22.63,3.45,1.77,3.45a3.41,3.41,0,0,0,2.28-1.43,10.62,10.62,0,0,0,1.74-3.45c.14-.66.34-.83.91-.83A.23.23,0,0,1,721.95,114.59Z"/><path class="grand-prize-8" d="M724.79,115.39c-.14,0-.2-.06-.2-.14s.26-.6.4-.6h.51c2.05-6.64,2.25-7.21,2.48-7.21s.57.11.57.29a.85.85,0,0,1-.09.34s-.11.37-.23.71c-.06.17-.17.54-.31,1-.2.65-.37,1.17-.49,1.48-.14.51-.31,1.05-.48,1.57l-.34,1.14-.2.66,3.93.11.74,0c.14,0,.17-.06.23-.26s.11-.37.2-.68c.23-.6.77-2.45,1.43-4.73.14-.46.23-.8.28-1a1.21,1.21,0,0,0,.09-.26c.09-.31.17-.43.34-.43s.57.2.57.31a1.28,1.28,0,0,1-.11.48s-.2.6-.34,1.14-.34,1.2-.6,2l-.63,2.05-.88,2.82-.83,2.59-.37,1.11a5,5,0,0,1-.2.6l-.06.23c-.06.17-.11.23-.26.23s-.57-.2-.57-.37a1,1,0,0,1,.11-.4c0-.06.06-.17.11-.31.11-.43.2-.71.23-.8l.34-1.05c.4-1.28.66-2.05.74-2.31a1.13,1.13,0,0,1,.11-.37.55.55,0,0,0,.06-.17.06.06,0,0,0-.06-.06s-.06,0-.14.09a.69.69,0,0,1-.26.2l-4.45-.06q-.21.64-.26.86l-.43,1.45c-.26.85-.49,1.74-.71,2.57-.17.66-.17.66-.34.66s-.57-.14-.57-.31a43.41,43.41,0,0,1,1.43-5.22Z"/><path class="grand-prize-8" d="M735,115.62c2.14-3.62,3.79-6.36,4.7-7.7a.79.79,0,0,1,.77-.4c.46,0,.57.14.57.6s0,.8-.11,3l-.09,3.79-.11,2.42c0,1.08-.06,1.82-.09,2.11s0,.63,0,.77l0,.34c0,.31-.11.46-.4.46s-.43-.09-.43-.31l0-.48.09-3.88,0-.23-.11.06-.31.26-3.88,0c-.8,1.43-1.11,2.08-2.17,4.25-.09.26-.17.31-.34.31s-.49-.14-.49-.37.2-.66,2-4.19l-.49,0c-.17,0-.23-.06-.23-.23a.44.44,0,0,1,.43-.48Zm5.16-6.7c0-.06,0-.11-.06-.11s-.06,0-1.25,1.91l-1,1.62-1.11,1.85a7.74,7.74,0,0,0-.71,1.37c0,.06.09.09.34.09h3.22c.14,0,.31,0,.31,0a.34.34,0,0,0,.06-.2Z"/><path class="grand-prize-8" d="M754.52,111.91c.09-.37.17-.74.26-1.14s.26-.94.46-1.77c-2.11,3.25-6.1,10.06-6.78,11.63-.14.31-.23.4-.46.4s-.46-.14-.46-.51l0-.46v-.66l.09-1.08.11-2.31c0-.48.09-1.45.17-2.57s.14-2.14.17-2.54a19.59,19.59,0,0,1,.17-2c-1.54,3.71-2.28,5.81-4.19,11.57-.09.31-.17.43-.31.43-.34,0-.54-.11-.54-.31,0-.46,2.05-6.44,3.34-9.69.77-1.94,1.48-3.42,1.68-3.42.54,0,.77.14.77.54s0,.31-.14,2.42c-.17,2.48-.29,4.85-.43,7.1a9,9,0,0,1,0,1.17v.09c0,.06,0,.09.06.09s.29-.46.83-1.37c.63-1.2,1.08-2,1.37-2.45,2.31-3.93,2.48-4.22,3.19-5.3.06-.06.4-.57,1-1.57.26-.43.51-.68.68-.68s.66.23.66.43c0,.51-1.25,5.5-2.48,9.92l-.37,1.34-.26.94c-.2.74-.26.83-.37.83-.31,0-.51-.11-.51-.26a2.8,2.8,0,0,1,.14-.74s.37-1.2.66-2.28c.14-.57.34-1.34.57-2.22.14-.51.29-1,.43-1.51Z"/><path class="grand-prize-8" d="M757.67,115.45s.09-.06.11-.17c1.48-4.79,1.54-5,2.25-7.13a9.9,9.9,0,0,0-1.8.4.87.87,0,0,1-.23.06c-.09,0-.14-.06-.14-.17,0-.34.26-.6.74-.74a7.41,7.41,0,0,1,2-.31c2.65,0,4.39,1.4,4.39,3.53a5.65,5.65,0,0,1-3,4.73,6.31,6.31,0,0,1-3.14.77,5.16,5.16,0,0,1-.57,0c-.14.48-.26.8-.29.94-.68,2.45-.8,2.91-.88,3.31,0,.23-.09.31-.26.31s-.51-.14-.51-.29a1.26,1.26,0,0,1,.09-.43,3.52,3.52,0,0,1,.11-.46c.43-1.68.57-2.28.94-3.51-.09-.06-.17-.09-.2-.11-.23-.09-.29-.14-.29-.34s.11-.46.26-.46a.94.94,0,0,1,.29.09Zm3-7.33c-.11,0-.14,0-.14.06a.29.29,0,0,0,.14.2c.06.06.09.09.09.11a2.19,2.19,0,0,1-.11.51q-1.24,3.85-2.05,6.58a1.64,1.64,0,0,0,.74.14,5.07,5.07,0,0,0,4.9-4.85,3,3,0,0,0-3.11-2.79h0l-.37,0Z"/><path class="grand-prize-8" d="M703.51,145.72a7.22,7.22,0,0,1-.1-1.21h0a2.71,2.71,0,0,1-2.61,1.4c-1.27,0-2.63-.63-2.63-2.21,0-2.27,2.66-2.5,4.13-2.5h1.13v-.45c0-1.29-.9-1.81-2.1-1.81a3.36,3.36,0,0,0-2.27.84l-.56-.66a4.35,4.35,0,0,1,2.84-1c1.81,0,3,.81,3,2.69v1.82a22.84,22.84,0,0,0,.15,3.13ZM703.4,142h-1.06c-1.61,0-3.23.4-3.23,1.68A1.54,1.54,0,0,0,700.8,145a2.32,2.32,0,0,0,2.6-2.56V142Zm8.76,3.74v-1.31h0a3.44,3.44,0,0,1-3,1.5,3.92,3.92,0,1,1,0-7.84,3.44,3.44,0,0,1,3,1.5h0v-6h1v12.19Zm-3-6.77a3,3,0,0,0,0,6.1,3,3,0,1,0,0-6.1Zm10.18,6.77a7.21,7.21,0,0,1-.1-1.21h0a2.71,2.71,0,0,1-2.61,1.4c-1.27,0-2.63-.63-2.63-2.21,0-2.27,2.66-2.5,4.13-2.5h1.13v-.45c0-1.29-.9-1.81-2.1-1.81a3.36,3.36,0,0,0-2.27.84l-.56-.66a4.35,4.35,0,0,1,2.84-1c1.81,0,3,.81,3,2.69v1.82a22.86,22.86,0,0,0,.15,3.13ZM719.2,142h-1.06c-1.61,0-3.23.4-3.23,1.68A1.54,1.54,0,0,0,716.6,145a2.32,2.32,0,0,0,2.6-2.56V142Zm6,3.93a3.44,3.44,0,0,1-3-1.5h0v5h-1V138.27h1v1.31h0a3.44,3.44,0,0,1,3-1.5,3.92,3.92,0,0,1,0,7.84Zm0-7a3,3,0,1,0,0,6.1,3,3,0,0,0,0-6.1Zm7.42,6.1a2.87,2.87,0,0,0,1.1-.26l.08.87a4.26,4.26,0,0,1-1.26.26,1.74,1.74,0,0,1-1.92-1.92v-4.85H729v-.87h1.61v-2.14h1v2.14h2.13v.87H731.6V144a1,1,0,0,0,1,1Zm2.26-9a.73.73,0,1,1,.73-.73.72.72,0,0,1-.73.73Zm.48,9.68h-1v-7.45h1v7.45Zm4.53,0h-1l-3-7.45H737l2.48,6.4,2.42-6.4h1l-2.93,7.45Zm8.29,0a7.21,7.21,0,0,1-.1-1.21h0a2.71,2.71,0,0,1-2.61,1.4c-1.27,0-2.63-.63-2.63-2.21,0-2.27,2.66-2.5,4.13-2.5h1.13v-.45c0-1.29-.9-1.81-2.1-1.81a3.36,3.36,0,0,0-2.27.84l-.56-.66a4.35,4.35,0,0,1,2.84-1c1.81,0,3,.81,3,2.69v1.82a22.84,22.84,0,0,0,.15,3.13Zm-.11-3.74H747c-1.61,0-3.23.4-3.23,1.68a1.54,1.54,0,0,0,1.69,1.39,2.32,2.32,0,0,0,2.6-2.56V142Z"/><path class="grand-prize-8" d="M749.35,138.28v.54h-.05v-.54h-.2v0h.45v0Zm.75.54v-.52h0l-.22.52h0l-.23-.52h0v.52h-.05v-.59h.08l.21.49.21-.49h.08v.59Z"/><polygon class="grand-prize-8" points="694.2 133.92 694.2 137.5 690.55 137.5 694.2 133.92"/><polygon class="grand-prize-8" points="686.75 141.28 694.2 141.28 694.2 138.5 689.58 138.5 686.75 141.28"/><polygon class="grand-prize-8" points="682 145.97 694.2 145.97 694.2 142.28 685.73 142.28 682 145.97"/></g></g></svg>
