<svg xmlns="http://www.w3.org/2000/svg" viewBox="0 0 1060.12 503">
  <defs>
    <style>
      .cls-1{fill:#eee;}.cls-2{fill:#404041;}.cls-3{fill:#0860b8;}.cls-4{fill:none;stroke:#ccc;stroke-miterlimit:10;stroke-width:4px;}.cls-5{fill:#ccc;}
    </style>
  </defs>
  <title>
    adaptiva-spacing-tagline
  </title>
  <g id="Layer_2" data-name="Layer 2">
    <g id="Layer_1-2" data-name="Layer 1">
      <path class="cls-1" d="M209.87 53.9V33c0-21.59-13.29-30.82-34-30.82-11.07 0-24.36 4.24-32.48 12l6.46 7.57a38.5 38.5 0 0 1 26-9.6c13.66 0 24 5.9 24 20.67V38H187c-16.8 0-47.25 2.58-47.25 28.61 0 18.09 15.5 25.28 30.08 25.28 14.4 0 23.62-5.17 29.9-16.06h.37a82.63 82.63 0 0 0 1.11 13.84h10.34c-1.31-9.74-1.68-19.15-1.68-35.77zm-10-1.29c0 14.21-6.09 29.35-29.72 29.35-9.23 0-19.38-5.35-19.38-15.87 0-14.58 18.46-19.19 36.91-19.19h12.18zm706 1.29V33c0-21.59-13.29-30.82-34-30.82-11.07 0-24.36 4.24-32.48 12l6.46 7.57a38.5 38.5 0 0 1 26-9.6c13.66 0 24 5.9 24 20.67V38H883c-16.8 0-47.25 2.58-47.25 28.61 0 18.09 15.5 25.28 30.08 25.28 14.4 0 23.62-5.17 29.9-16.06h.37a82.63 82.63 0 0 0 1.11 13.84h10.34c-1.31-9.74-1.68-19.15-1.68-35.77zm-10-1.29c0 14.21-6.09 29.35-29.72 29.35-9.23 0-19.38-5.35-19.38-15.87 0-14.58 18.46-19.19 36.91-19.19h12.18z"/>
      <path class="cls-2" d="M386.2 226.71a82.63 82.63 0 0 1-1.11-13.84h-.37c-6.28 10.89-15.5 16.06-29.9 16.06-14.58 0-30.08-7.2-30.08-25.28 0-26 30.45-28.61 47.25-28.61h12.92v-5.17c0-14.77-10.34-20.67-24-20.67a38.5 38.5 0 0 0-26 9.6l-6.46-7.57c8.12-7.75 21.41-12 32.48-12 20.67 0 34 9.23 34 30.82v20.85c0 16.61.37 26 1.66 35.81zm-1.29-42.82h-12.18c-18.46 0-36.91 4.61-36.91 19.19 0 10.52 10.15 15.87 19.38 15.87 23.62 0 29.72-15.14 29.72-29.35v-5.72zm100.22 42.82v-15h-.37c-6.83 11.81-21.41 17.16-34.14 17.16-26.21 0-44.85-18.82-44.85-44.85s18.64-44.85 44.85-44.85c12.74 0 27.32 5.35 34.14 17.16h.37V87.18h11.07v139.53zm-34.51-77.52c-20.86 0-33.78 15.69-33.78 34.88S429.76 219 450.61 219c20.12 0 35.62-15.69 35.62-34.88s-15.5-34.88-35.62-34.88zm116.46 77.52a82.54 82.54 0 0 1-1.08-13.84h-.37c-6.27 10.89-15.5 16.06-29.9 16.06-14.58 0-30.08-7.2-30.08-25.28 0-26 30.45-28.61 47.25-28.61h12.92v-5.17c0-14.77-10.34-20.67-24-20.67a38.5 38.5 0 0 0-26 9.6l-6.46-7.57c8.12-7.75 21.41-12 32.48-12 20.67 0 34 9.23 34 30.82v20.85c0 16.61.37 26 1.66 35.81zm-1.29-42.82H553.6c-18.46 0-36.91 4.61-36.91 19.19 0 10.52 10.15 15.87 19.38 15.87 23.62 0 29.71-15.14 29.71-29.35v-5.72zm68.84 45c-12.74 0-27.32-5.35-34.15-17.16h-.37v57H589V141.44h11.07v14.95h.37c6.83-11.81 21.41-17.16 34.15-17.16 26.21 0 44.85 18.83 44.85 44.85s-18.64 44.85-44.85 44.85zm0-79.73c-20.12 0-35.62 15.69-35.62 34.88S614.5 219 634.62 219c20.85 0 33.77-15.69 33.77-34.88s-12.92-34.88-33.77-34.88zM719.52 219a32.89 32.89 0 0 0 12.55-3l.92 10c-4.06 1.48-10.15 3-14.4 3-15.87 0-22-9.78-22-22v-55.59h-18.42v-10h18.46v-24.52h11.07v24.55h24.36v10H707.7V207c0 7.57 4.43 12 11.81 12zm25.84-103a8.31 8.31 0 1 1 8.31-8.3 8.27 8.27 0 0 1-8.31 8.3zm5.54 110.74h-11.08v-85.3h11.07v85.27zm51.86 0h-11.45l-34.88-85.27H769l28.42 73.27 27.68-73.27h11.26l-33.59 85.27zm94.87 0a82.55 82.55 0 0 1-1.11-13.84h-.37c-6.27 10.89-15.5 16.06-29.9 16.06-14.58 0-30.08-7.2-30.08-25.28 0-26 30.45-28.61 47.25-28.61h12.92v-5.17c0-14.77-10.34-20.67-24-20.67a38.51 38.51 0 0 0-26 9.6l-6.46-7.57c8.12-7.75 21.41-12 32.48-12 20.67 0 34 9.23 34 30.82v20.82c0 16.61.37 26 1.66 35.81zm-1.29-42.82h-12.2c-18.46 0-36.91 4.61-36.91 19.19 0 10.52 10.15 15.87 19.38 15.87 23.62 0 29.71-15.14 29.71-29.35v-5.72zm14.53-42.3v6.13h-.62v-6.13H908v-.57h5.2v.57zm8.63 6.13v-5.9l-2.55 5.9h-.28l-2.59-5.9v5.9h-.62v-6.7h.94l2.44 5.62 2.44-5.62h.89v6.7z"/>
      <path class="cls-3" d="M279.68 91.68v40.96h-41.77l41.77-40.96zm-85.26 84.25h85.26v-31.85h-52.96l-32.3 31.85zM140 229.68h139.68v-42.31h-97L140 229.68z"/>
      <path class="cls-1" d="M139.68 90.68v40.96H97.91l41.77-40.96zm-85.26 84.25h85.26v-31.85H86.72l-32.3 31.85zM0 228.68h139.68v-42.31h-97L0 228.68zm1059.68-138v40.96h-41.77l41.77-40.96zm-85.26 84.25h85.26v-31.85h-52.96l-32.3 31.85zM920 228.68h139.68v-42.31h-97L920 228.68zM209.87 281.9V261c0-21.59-13.29-30.82-34-30.82-11.07 0-24.36 4.24-32.48 12l6.46 7.57a38.5 38.5 0 0 1 26-9.6c13.66 0 24 5.9 24 20.67V266H187c-16.8 0-47.25 2.58-47.25 28.61 0 18.09 15.5 25.28 30.08 25.28 14.4 0 23.62-5.17 29.9-16.06h.37a82.63 82.63 0 0 0 1.11 13.84h10.34c-1.31-9.74-1.68-19.15-1.68-35.77zm-10-1.29c0 14.21-6.09 29.35-29.72 29.35-9.23 0-19.38-5.35-19.38-15.87 0-14.58 18.46-19.19 36.91-19.19h12.18zm706 1.29V261c0-21.59-13.29-30.82-34-30.82-11.07 0-24.36 4.24-32.48 12l6.46 7.57a38.5 38.5 0 0 1 26-9.6c13.66 0 24 5.9 24 20.67V266H883c-16.8 0-47.25 2.58-47.25 28.61 0 18.09 15.5 25.28 30.08 25.28 14.4 0 23.62-5.17 29.9-16.06h.37a82.63 82.63 0 0 0 1.11 13.84h10.34c-1.31-9.74-1.68-19.15-1.68-35.77zm-10-1.29c0 14.21-6.09 29.35-29.72 29.35-9.23 0-19.38-5.35-19.38-15.87 0-14.58 18.46-19.19 36.91-19.19h12.18z"/>
      <path class="cls-4" d="M.12 229h1060M.12 320h1060m-1060 0h1060M.12 411h1060M.12 365h1060M.12 2h1060M.12 92h1060"/>
      <path class="cls-5" d="M55.06 287.87h5.69v-19.98h-.07a6.15 6.15 0 0 1-1.26 1.51l-2.7 2.7-1.58-1.62 5.72-5.69h2.3v23.07h5.58v2.23H55.06zm23.54-5.58s-.29.54-.61 1l-4.39 6.8h-2.88l6.37-9.43-5.83-8.66h2.88l3.86 6.08c.29.47.61 1 .61 1s.32-.58.61-1l3.95-6.08H86l-5.83 8.67 6.37 9.43h-2.83l-4.39-6.8c-.32-.47-.61-1-.61-1h-.11zm896.46 5.58h5.69v-19.98h-.07a6.15 6.15 0 0 1-1.26 1.51l-2.7 2.7-1.58-1.62 5.72-5.69h2.3v23.07h5.58v2.23h-13.68zm23.54-5.58s-.29.54-.61 1l-4.39 6.8h-2.88l6.37-9.43-5.83-8.66h2.88l3.89 6.08c.29.47.61 1 .61 1s.32-.58.61-1l3.89-6.08h2.86l-5.83 8.67 6.37 9.43h-2.88l-4.39-6.8c-.32-.47-.61-1-.61-1h-.11z"/>
      <path class="cls-1" d="M209.87 462.9V442c0-21.59-13.29-30.82-34-30.82-11.07 0-24.36 4.24-32.48 12l6.46 7.57a38.5 38.5 0 0 1 26-9.6c13.66 0 24 5.9 24 20.67V447H187c-16.8 0-47.25 2.58-47.25 28.61 0 18.09 15.5 25.28 30.08 25.28 14.4 0 23.62-5.17 29.9-16.06h.37a82.63 82.63 0 0 0 1.11 13.84h10.34c-1.31-9.74-1.68-19.15-1.68-35.77zm-10-1.29c0 14.21-6.09 29.35-29.72 29.35-9.23 0-19.38-5.35-19.38-15.87 0-14.58 18.46-19.19 36.91-19.19h12.18zm706 1.29V442c0-21.59-13.29-30.82-34-30.82-11.07 0-24.36 4.24-32.48 12l6.46 7.57a38.5 38.5 0 0 1 26-9.6c13.66 0 24 5.9 24 20.67V447H883c-16.8 0-47.25 2.58-47.25 28.61 0 18.09 15.5 25.28 30.08 25.28 14.4 0 23.62-5.17 29.9-16.06h.37a82.63 82.63 0 0 0 1.11 13.84h10.34c-1.31-9.74-1.68-19.15-1.68-35.77zm-10-1.29c0 14.21-6.09 29.35-29.72 29.35-9.23 0-19.38-5.35-19.38-15.87 0-14.58 18.46-19.19 36.91-19.19h12.18z"/>
      <path class="cls-4" d="M.12 501h1060"/>
      <path class="cls-5" d="M55.06 468.87h5.69v-19.98h-.07a6.15 6.15 0 0 1-1.26 1.51l-2.7 2.7-1.58-1.62 5.72-5.69h2.3v23.07h5.58v2.23H55.06zm23.54-5.58s-.29.54-.61 1l-4.39 6.8h-2.88l6.37-9.43-5.83-8.66h2.88l3.86 6.08c.29.47.61 1 .61 1s.32-.58.61-1l3.95-6.08H86l-5.83 8.67 6.37 9.43h-2.83l-4.39-6.8c-.32-.47-.61-1-.61-1h-.11zm896.46 5.58h5.69v-19.98h-.07a6.15 6.15 0 0 1-1.26 1.51l-2.7 2.7-1.58-1.62 5.72-5.69h2.3v23.07h5.58v2.23h-13.68zm23.54-5.58s-.29.54-.61 1l-4.39 6.8h-2.88l6.37-9.43-5.83-8.66h2.88l3.89 6.08c.29.47.61 1 .61 1s.32-.58.61-1l3.89-6.08h2.86l-5.83 8.67 6.37 9.43h-2.88l-4.39-6.8c-.32-.47-.61-1-.61-1h-.11zM38.64 341.43c0-7.27 2.16-13.07 8.75-13.07s8.71 5.79 8.71 13.07-2.12 13.1-8.71 13.1-8.75-5.76-8.75-13.1zm14.87 0c0-6-1.33-10.73-6.12-10.73s-6.16 4.72-6.16 10.73 1.33 10.76 6.16 10.76 6.12-4.71 6.12-10.76zm7.27 9.79h2.84v2.88h-2.84zm9.4-2.01a7 7 0 0 0 5.72 3 6 6 0 0 0 6.3-5.94c0-3.46-2.81-5.94-6.41-5.94a8.58 8.58 0 0 0-4.61 1.37l-1.58-.58L71 328.8h12.21v2.2H73.13l-.72 6.48a11.46 11.46 0 0 1-.25 1.44h.07a8 8 0 0 1 3.85-1c5.08 0 8.71 3.67 8.71 8.24a8.45 8.45 0 0 1-8.79 8.37 9.11 9.11 0 0 1-7.42-3.6zm25.34-2.92s-.29.54-.61 1l-4.39 6.8h-2.88l6.36-9.42-5.82-8.67h2.88l3.89 6.08c.29.47.61 1 .61 1s.32-.58.61-1l3.89-6.08H103l-5.83 8.67 6.37 9.43h-2.88l-4.39-6.8c-.32-.47-.61-1-.61-1h-.11zm863.12-4.86c0-7.27 2.16-13.07 8.75-13.07s8.71 5.79 8.71 13.07-2.12 13.1-8.71 13.1-8.75-5.76-8.75-13.1zm14.87 0c0-6-1.33-10.73-6.12-10.73s-6.16 4.72-6.16 10.73 1.33 10.76 6.16 10.76 6.12-4.71 6.12-10.76zm7.27 9.79h2.84v2.88h-2.84zm9.4-2.01a7 7 0 0 0 5.72 3 6 6 0 0 0 6.3-5.94c0-3.46-2.81-5.94-6.41-5.94a8.59 8.59 0 0 0-4.61 1.37l-1.58-.58 1.4-12.32h12.24v2.2h-10.11l-.72 6.48a11.58 11.58 0 0 1-.25 1.44h.07a8 8 0 0 1 3.85-1c5.08 0 8.71 3.67 8.71 8.24a8.45 8.45 0 0 1-8.78 8.31 9.11 9.11 0 0 1-7.42-3.6zm25.34-2.92s-.29.54-.61 1l-4.39 6.8h-2.88l6.37-9.43-5.83-8.67h2.88l3.89 6.08c.29.47.61 1 .61 1s.32-.58.61-1l3.89-6.08h2.94l-5.83 8.67 6.37 9.43h-2.88l-4.39-6.8c-.32-.47-.61-1-.61-1h-.11zM38.64 388.43c0-7.27 2.16-13.07 8.75-13.07s8.71 5.79 8.71 13.07-2.12 13.1-8.71 13.1-8.75-5.76-8.75-13.1zm14.87 0c0-6-1.33-10.73-6.12-10.73s-6.16 4.72-6.16 10.73 1.33 10.76 6.16 10.76 6.12-4.71 6.12-10.76zm7.27 9.79h2.84v2.88h-2.84zm9.4-2.01a7 7 0 0 0 5.72 3 6 6 0 0 0 6.3-5.94c0-3.46-2.81-5.94-6.41-5.94a8.58 8.58 0 0 0-4.61 1.37l-1.58-.58L71 375.8h12.21v2.2H73.13l-.72 6.48a11.46 11.46 0 0 1-.25 1.44h.07a8 8 0 0 1 3.85-1c5.08 0 8.71 3.67 8.71 8.24a8.45 8.45 0 0 1-8.79 8.37 9.11 9.11 0 0 1-7.42-3.6zm25.34-2.92s-.29.54-.61 1l-4.39 6.8h-2.88l6.36-9.42-5.82-8.67h2.88l3.89 6.08c.29.47.61 1 .61 1s.32-.58.61-1l3.89-6.08H103l-5.83 8.67 6.37 9.43h-2.88l-4.39-6.8c-.32-.47-.61-1-.61-1h-.11zm863.12-4.86c0-7.27 2.16-13.07 8.75-13.07s8.71 5.79 8.71 13.07-2.12 13.1-8.71 13.1-8.75-5.76-8.75-13.1zm14.87 0c0-6-1.33-10.73-6.12-10.73s-6.16 4.72-6.16 10.73 1.33 10.76 6.16 10.76 6.12-4.71 6.12-10.76zm7.27 9.79h2.84v2.88h-2.84zm9.4-2.01a7 7 0 0 0 5.72 3 6 6 0 0 0 6.3-5.94c0-3.46-2.81-5.94-6.41-5.94a8.59 8.59 0 0 0-4.61 1.37l-1.58-.58 1.4-12.32h12.24v2.2h-10.11l-.72 6.48a11.58 11.58 0 0 1-.25 1.44h.07a8 8 0 0 1 3.85-1c5.08 0 8.71 3.67 8.71 8.24a8.45 8.45 0 0 1-8.78 8.31 9.11 9.11 0 0 1-7.42-3.6zm25.34-2.92s-.29.54-.61 1l-4.39 6.8h-2.88l6.37-9.43-5.83-8.67h2.88l3.89 6.08c.29.47.61 1 .61 1s.32-.58.61-1l3.89-6.08h2.94l-5.83 8.67 6.37 9.43h-2.88l-4.39-6.8c-.32-.47-.61-1-.61-1h-.11zM55.06 59.87h5.69V39.89h-.07a6.15 6.15 0 0 1-1.26 1.51l-2.7 2.7-1.58-1.62 5.72-5.69h2.3v23.08h5.58v2.23H55.06zm23.54-5.58s-.29.54-.61 1l-4.39 6.8h-2.88l6.37-9.43L71.26 44h2.88L78 50.08c.29.47.61 1 .61 1s.32-.58.61-1L83.17 44H86l-5.83 8.67 6.37 9.43h-2.83l-4.39-6.8c-.32-.47-.61-1-.61-1h-.11zm896.46 5.58h5.69V39.89h-.07a6.15 6.15 0 0 1-1.26 1.51l-2.7 2.7-1.58-1.62 5.72-5.69h2.3v23.08h5.58v2.23h-13.68zm23.54-5.58s-.29.54-.61 1l-4.39 6.8h-2.88l6.37-9.43-5.83-8.66h2.88l3.86 6.08c.29.47.61 1 .61 1s.32-.58.61-1l3.89-6.08h2.89l-5.83 8.67 6.37 9.43h-2.88l-4.39-6.8c-.32-.47-.61-1-.61-1h-.11z"/>
      <path class="cls-3" d="M144 356.64a18.5 18.5 0 0 0 9.36 2.64c5.34 0 8.46-2.82 8.46-6.9 0-3.78-2.16-5.94-7.62-8-6.6-2.34-10.68-5.76-10.68-11.46 0-6.3 5.22-11 13.08-11a18.37 18.37 0 0 1 8.94 2l-1.44 4.26a16.11 16.11 0 0 0-7.68-1.92c-5.52 0-7.62 3.3-7.62 6.06 0 3.78 2.46 5.64 8 7.8 6.84 2.64 10.32 5.94 10.32 11.88 0 6.24-4.62 11.64-14.16 11.64-3.9 0-8.16-1.14-10.32-2.58zm30.08-14.82c0-3-.06-5.46-.24-7.86h4.62l.24 4.68h.18a10 10 0 0 1 9.12-5.34 8.59 8.59 0 0 1 8.22 5.82h.12a12 12 0 0 1 3.24-3.78 9.91 9.91 0 0 1 6.42-2c3.84 0 9.54 2.52 9.54 12.6V363h-5.16v-16.44c0-5.58-2-8.94-6.3-8.94a6.84 6.84 0 0 0-6.24 4.8 8.7 8.7 0 0 0-.42 2.64V363h-5.16v-17.4c0-4.62-2-8-6.06-8-3.3 0-5.7 2.64-6.54 5.28a7.29 7.29 0 0 0-.42 2.58V363h-5.16zM240.2 363l-.42-3.66h-.18a10.82 10.82 0 0 1-8.88 4.32c-5.88 0-8.88-4.14-8.88-8.34 0-7 6.24-10.86 17.46-10.8v-.6c0-2.4-.66-6.72-6.6-6.72a14.47 14.47 0 0 0-7.56 2.16l-1.2-3.48a18 18 0 0 1 9.54-2.58c8.88 0 11 6.06 11 11.88V356a40.89 40.89 0 0 0 .48 7zm-.78-14.82c-5.76-.12-12.3.9-12.3 6.54a4.67 4.67 0 0 0 5 5 7.23 7.23 0 0 0 7-4.86 5.52 5.52 0 0 0 .3-1.68zM253 343c0-3.42-.06-6.36-.24-9.06h4.62l.18 5.7h.24c1.32-3.9 4.5-6.36 8-6.36a5.7 5.7 0 0 1 1.5.18v5a7.93 7.93 0 0 0-1.8-.18c-3.72 0-6.36 2.82-7.08 6.78a14.91 14.91 0 0 0-.24 2.46V363H253zm27.46-17.38V334H288v4h-7.56v15.66c0 3.6 1 5.64 4 5.64a11.72 11.72 0 0 0 3.06-.36l.24 4a12.92 12.92 0 0 1-4.68.72 7.32 7.32 0 0 1-5.7-2.22c-1.5-1.56-2-4.14-2-7.56V338h-4.5v-4h4.5v-7zm25.44 19.2v3.9h-14.82v-3.9zm5.46 12.78a13.84 13.84 0 0 0 7 2.1c3.84 0 5.64-1.92 5.64-4.32s-1.5-3.9-5.4-5.34c-5.22-1.86-7.68-4.74-7.68-8.22 0-4.68 3.78-8.52 10-8.52a14.5 14.5 0 0 1 7.14 1.8l-1.32 3.84a11.29 11.29 0 0 0-5.94-1.68c-3.12 0-4.86 1.8-4.86 4 0 2.4 1.74 3.48 5.52 4.92 5 1.92 7.62 4.44 7.62 8.76 0 5.1-4 8.7-10.86 8.7a16.56 16.56 0 0 1-8.16-2zm45.18 4.32a19.45 19.45 0 0 1-8.34 1.68c-8.76 0-14.46-5.94-14.46-14.82s6.12-15.42 15.6-15.42a17.66 17.66 0 0 1 7.32 1.5l-1.2 4.08a12.23 12.23 0 0 0-6.12-1.38c-6.66 0-10.26 4.92-10.26 11 0 6.72 4.32 10.86 10.08 10.86a15 15 0 0 0 6.48-1.44zM378.8 363l-.42-3.66h-.18a10.82 10.82 0 0 1-8.88 4.32c-5.88 0-8.88-4.14-8.88-8.34 0-7 6.24-10.86 17.46-10.8v-.6c0-2.4-.66-6.72-6.6-6.72a14.47 14.47 0 0 0-7.56 2.16l-1.2-3.48a18 18 0 0 1 9.54-2.58c8.88 0 11 6.06 11 11.88V356a41 41 0 0 0 .48 7zm-.8-14.82c-5.76-.12-12.3.9-12.3 6.54a4.67 4.67 0 0 0 5 5 7.22 7.22 0 0 0 7-4.86 5.49 5.49 0 0 0 .3-1.68zm13.64-27.78h5.28V363h-5.28zm20.04 5.4a3.27 3.27 0 0 1-6.54 0 3.22 3.22 0 0 1 3.3-3.3 3.13 3.13 0 0 1 3.24 3.3zM405.8 363v-29h5.28v29zm14.04-21.18c0-3-.06-5.46-.24-7.86h4.68l.3 4.8h.12a10.68 10.68 0 0 1 9.6-5.46c4 0 10.26 2.4 10.26 12.36V363h-5.28v-16.74c0-4.68-1.74-8.58-6.72-8.58a7.5 7.5 0 0 0-7.08 5.4 7.58 7.58 0 0 0-.36 2.46V363h-5.28zm58.32-7.82c-.12 2.1-.24 4.44-.24 8v16.8c0 6.66-1.32 10.74-4.14 13.26s-6.9 3.48-10.56 3.48c-3.48 0-7.32-.84-9.66-2.4l1.32-4a16.38 16.38 0 0 0 8.52 2.28c5.4 0 9.36-2.82 9.36-10.14V358h-.12a10.37 10.37 0 0 1-9.24 4.86c-7.2 0-12.36-6.12-12.36-14.16 0-9.84 6.42-15.42 13.08-15.42 5 0 7.8 2.64 9.06 5h.12l.24-4.38zm-5.46 11.46a7.52 7.52 0 0 0-.3-2.4 7.6 7.6 0 0 0-7.38-5.58c-5 0-8.64 4.26-8.64 11 0 5.7 2.88 10.44 8.58 10.44a7.72 7.72 0 0 0 7.32-5.4 9.16 9.16 0 0 0 .42-2.82zM499.94 363v-25h-4.08v-4h4.08v-1.38c0-4.08.9-7.8 3.36-10.14a10.1 10.1 0 0 1 7.08-2.7 12.25 12.25 0 0 1 4.5.84l-.72 4.08a7.9 7.9 0 0 0-3.36-.66c-4.5 0-5.64 4-5.64 8.4V334h7v4h-7v25zm42.48-14.76c0 10.74-7.44 15.42-14.46 15.42-7.86 0-13.92-5.76-13.92-14.94 0-9.72 6.36-15.42 14.4-15.42 8.34 0 13.98 6.06 13.98 14.94zm-23 .3c0 6.36 3.66 11.16 8.82 11.16S537 355 537 348.42c0-4.92-2.46-11.16-8.7-11.16s-8.92 5.74-8.92 11.28zm29.66-5.54c0-3.42-.06-6.36-.24-9.06h4.62l.18 5.7h.24c1.32-3.9 4.5-6.36 8-6.36a5.71 5.71 0 0 1 1.5.18v5a7.93 7.93 0 0 0-1.8-.18c-3.72 0-6.36 2.82-7.08 6.78a14.85 14.85 0 0 0-.24 2.46V363h-5.22zm53.46 1h-15.72v14.58h17.52V363H581.6v-40.44h21.84v4.38h-16.62v12.78h15.72zm8.4-2.18c0-3-.06-5.46-.24-7.86h4.68l.3 4.8h.12a10.68 10.68 0 0 1 9.6-5.46c4 0 10.26 2.4 10.26 12.36V363h-5.28v-16.74c0-4.68-1.74-8.58-6.72-8.58a7.5 7.5 0 0 0-7.08 5.4 7.58 7.58 0 0 0-.36 2.46V363h-5.28zm39.42-16.2V334h7.56v4h-7.56v15.66c0 3.6 1 5.64 4 5.64a11.71 11.71 0 0 0 3.06-.36l.24 4a12.92 12.92 0 0 1-4.68.72 7.31 7.31 0 0 1-5.7-2.22c-1.5-1.56-2-4.14-2-7.56V338h-4.5v-4h4.5v-7zm16.08 23.82c.12 7.14 4.68 10.08 10 10.08a19.1 19.1 0 0 0 8-1.5l.9 3.78a23.52 23.52 0 0 1-9.66 1.8c-8.94 0-14.28-5.88-14.28-14.64s5.16-15.66 13.6-15.66c9.48 0 12 8.34 12 13.68a19.82 19.82 0 0 1-.18 2.46zm15.48-3.78c.06-3.36-1.38-8.58-7.32-8.58-5.34 0-7.68 4.92-8.1 8.58zm11.64-2.66c0-3.42-.06-6.36-.24-9.06h4.62l.18 5.7h.24c1.32-3.9 4.5-6.36 8-6.36a5.7 5.7 0 0 1 1.5.18v5a7.91 7.91 0 0 0-1.8-.18c-3.72 0-6.36 2.82-7.08 6.78a14.85 14.85 0 0 0-.24 2.46V363h-5.22zm19.85.44c0-3.72-.12-6.72-.24-9.48h4.74l.24 5h.12a11.42 11.42 0 0 1 10.32-5.64c7 0 12.3 5.94 12.3 14.76 0 10.44-6.36 15.6-13.2 15.6a10.18 10.18 0 0 1-8.94-4.56h-.12v15.78h-5.22zm5.22 7.74a11.88 11.88 0 0 0 .24 2.16 8.15 8.15 0 0 0 7.92 6.18c5.58 0 8.82-4.56 8.82-11.22 0-5.82-3.06-10.8-8.64-10.8a8.42 8.42 0 0 0-8 6.54 8.53 8.53 0 0 0-.36 2.16zm28.92-8.18c0-3.42-.06-6.36-.24-9.06h4.62l.18 5.7h.24c1.32-3.9 4.5-6.36 8-6.36a5.71 5.71 0 0 1 1.5.18v5a7.93 7.93 0 0 0-1.8-.18c-3.72 0-6.36 2.82-7.08 6.78a14.85 14.85 0 0 0-.24 2.46V363h-5.22zm25.74-17.2a3.27 3.27 0 0 1-6.54 0 3.22 3.22 0 0 1 3.3-3.3 3.13 3.13 0 0 1 3.24 3.3zm-5.88 37.2v-29h5.28v29zm13.32-5.4a13.84 13.84 0 0 0 7 2.1c3.84 0 5.64-1.92 5.64-4.32s-1.5-3.9-5.4-5.34c-5.22-1.86-7.68-4.74-7.68-8.22 0-4.68 3.78-8.52 10-8.52a14.49 14.49 0 0 1 7.14 1.8l-1.32 3.84a11.3 11.3 0 0 0-5.94-1.68c-3.12 0-4.86 1.8-4.86 4 0 2.4 1.74 3.48 5.52 4.92 5 1.92 7.62 4.44 7.62 8.76 0 5.1-4 8.7-10.86 8.7a16.56 16.56 0 0 1-8.16-2zm27.42-8.16c.12 7.14 4.68 10.08 10 10.08a19.1 19.1 0 0 0 8-1.5l.9 3.78a23.52 23.52 0 0 1-9.66 1.8c-8.94 0-14.28-5.88-14.28-14.64s5.16-15.66 13.62-15.66c9.48 0 12 8.34 12 13.68a19.82 19.82 0 0 1-.18 2.46zm15.48-3.78c.06-3.36-1.38-8.58-7.32-8.58-5.34 0-7.68 4.92-8.1 8.58zm29.76-23.1V363h-5.22v-40.44zm16.8 4.44h-12.3v-4.44h29.94V327h-12.36v36h-5.28zm31-5v2.34h-4.52v11.8h-2.81v-11.8h-4.52V322zm15.29 14.14l-.52-8.32c-.05-1.09-.05-2.44-.1-4h-.16c-.36 1.25-.78 2.91-1.2 4.21l-2.5 7.86h-3l-2.55-8.06c-.26-1.09-.68-2.76-1-4h-.16c0 1.3-.05 2.65-.1 4l-.52 8.32H902l1-14.14h4.21l2.44 6.92c.31 1.09.57 2.13.94 3.59h.05c.36-1.3.68-2.5 1-3.54l2.44-7h4.06l1.09 14.14z"/>
    </g>
  </g>
</svg>
