<svg xmlns="http://www.w3.org/2000/svg" xmlns:xlink="http://www.w3.org/1999/xlink" viewBox="0 0 1719.43 270.03"><defs><style>.green-planet-logo-cls-1{fill:url(#green-planet-logo-linear-gradient);}.green-planet-logo-cls-2{fill:url(#green-planet-logo-linear-gradient-2);}.green-planet-logo-cls-3{fill:url(#green-planet-logo-linear-gradient-3);}.green-planet-logo-cls-4{fill:url(#green-planet-logo-linear-gradient-4);}.green-planet-logo-cls-5{fill:url(#green-planet-logo-linear-gradient-5);}.green-planet-logo-cls-6{fill:url(#green-planet-logo-linear-gradient-6);}.green-planet-logo-cls-7{fill:url(#green-planet-logo-linear-gradient-7);}.green-planet-logo-cls-8{fill:url(#green-planet-logo-linear-gradient-8);}.green-planet-logo-cls-9{fill:url(#green-planet-logo-linear-gradient-9);}.green-planet-logo-cls-10{fill:url(#green-planet-logo-linear-gradient-10);}.green-planet-logo-cls-11{fill:url(#green-planet-logo-linear-gradient-11);}.green-planet-logo-cls-12{fill:url(#green-planet-logo-linear-gradient-12);}.green-planet-logo-cls-13{fill:url(#green-planet-logo-linear-gradient-13);}.green-planet-logo-cls-14{fill:url(#green-planet-logo-linear-gradient-14);}.green-planet-logo-cls-15{fill:url(#green-planet-logo-linear-gradient-15);}.green-planet-logo-cls-16{fill:url(#green-planet-logo-linear-gradient-16);}.green-planet-logo-cls-17{fill:url(#green-planet-logo-linear-gradient-17);}.green-planet-logo-cls-18{fill:url(#green-planet-logo-linear-gradient-18);}.green-planet-logo-cls-19{fill:url(#green-planet-logo-linear-gradient-19);}.green-planet-logo-cls-20{fill:url(#green-planet-logo-linear-gradient-20);}.green-planet-logo-cls-21{fill:url(#green-planet-logo-linear-gradient-21);}.green-planet-logo-cls-22{fill:url(#green-planet-logo-linear-gradient-22);}.green-planet-logo-cls-23{fill:url(#green-planet-logo-linear-gradient-23);}.green-planet-logo-cls-24{fill:url(#green-planet-logo-linear-gradient-24);}.green-planet-logo-cls-25{fill:url(#green-planet-logo-linear-gradient-25);}.green-planet-logo-cls-26{fill:url(#green-planet-logo-linear-gradient-26);}.green-planet-logo-cls-27{fill:url(#green-planet-logo-linear-gradient-27);}.green-planet-logo-cls-28{fill:url(#green-planet-logo-linear-gradient-28);}.green-planet-logo-cls-29{fill:url(#green-planet-logo-linear-gradient-29);}.green-planet-logo-cls-30{fill:#404041;}</style><linearGradient id="green-planet-logo-linear-gradient" x1="127.22" y1="228.09" x2="104.92" y2="250.39" gradientUnits="userSpaceOnUse"><stop offset="0" stop-color="#4cdf83"/><stop offset="1" stop-color="#2cb565"/></linearGradient><linearGradient id="green-planet-logo-linear-gradient-2" x1="127.22" y1="19.64" x2="104.92" y2="41.94" gradientUnits="userSpaceOnUse"><stop offset="0" stop-color="#2cb565"/><stop offset="1" stop-color="#4cdf83"/></linearGradient><linearGradient id="green-planet-logo-linear-gradient-3" x1="30.32" y1="73.48" x2="21.8" y2="82" xlink:href="#green-planet-logo-linear-gradient"/><linearGradient id="green-planet-logo-linear-gradient-4" x1="197.28" y1="197.37" x2="214.87" y2="187.22" xlink:href="#green-planet-logo-linear-gradient"/><linearGradient id="green-planet-logo-linear-gradient-5" x1="219.38" y1="64.43" x2="192.77" y2="91.04" xlink:href="#green-planet-logo-linear-gradient"/><linearGradient id="green-planet-logo-linear-gradient-6" x1="39.36" y1="178.99" x2="12.75" y2="205.6" xlink:href="#green-planet-logo-linear-gradient"/><linearGradient id="green-planet-logo-linear-gradient-7" x1="203.23" y1="47.86" x2="28.91" y2="222.18" xlink:href="#green-planet-logo-linear-gradient"/><linearGradient id="green-planet-logo-linear-gradient-8" x1="201.91" y1="5.85" x2="-40.29" y2="162.78" gradientTransform="translate(86.33 -15.93) rotate(45)" xlink:href="#green-planet-logo-linear-gradient"/><linearGradient id="green-planet-logo-linear-gradient-9" x1="209.75" y1="17.95" x2="-32.45" y2="174.87" gradientTransform="translate(92.14 -45.28) rotate(45)" xlink:href="#green-planet-logo-linear-gradient"/><linearGradient id="green-planet-logo-linear-gradient-10" x1="196.98" y1="-1.75" x2="-45.22" y2="155.17" gradientTransform="translate(73.63 -46.6) rotate(45)" xlink:href="#green-planet-logo-linear-gradient"/><linearGradient id="green-planet-logo-linear-gradient-11" x1="231.54" y1="51.59" x2="-10.66" y2="208.51" gradientTransform="translate(133.94 12.26) rotate(45)" xlink:href="#green-planet-logo-linear-gradient"/><linearGradient id="green-planet-logo-linear-gradient-12" x1="217.14" y1="29.35" x2="-25.06" y2="186.28" gradientTransform="translate(111.19 0.72) rotate(45)" xlink:href="#green-planet-logo-linear-gradient"/><linearGradient id="green-planet-logo-linear-gradient-13" x1="217.17" y1="29.41" x2="-25.03" y2="186.33" gradientTransform="translate(96.89 -77.19) rotate(45)" xlink:href="#green-planet-logo-linear-gradient"/><linearGradient id="green-planet-logo-linear-gradient-14" x1="224.97" y1="41.45" x2="-17.23" y2="198.37" gradientTransform="translate(117 -28.63) rotate(45)" xlink:href="#green-planet-logo-linear-gradient"/><linearGradient id="green-planet-logo-linear-gradient-15" x1="268.64" y1="108.84" x2="26.44" y2="265.76" gradientTransform="translate(167.49 415.21) rotate(-135)" xlink:href="#green-planet-logo-linear-gradient"/><linearGradient id="green-planet-logo-linear-gradient-16" x1="260.8" y1="96.74" x2="18.6" y2="253.67" gradientTransform="translate(96.62 401.19) rotate(-135)" xlink:href="#green-planet-logo-linear-gradient"/><linearGradient id="green-planet-logo-linear-gradient-17" x1="273.56" y1="116.44" x2="31.36" y2="273.37" gradientTransform="translate(93.4 445.87) rotate(-134.99)" xlink:href="#green-planet-logo-linear-gradient"/><linearGradient id="green-planet-logo-linear-gradient-18" x1="239" y1="63.1" x2="-3.2" y2="220.03" gradientTransform="translate(235.54 300.28) rotate(-135)" xlink:href="#green-planet-logo-linear-gradient"/><linearGradient id="green-planet-logo-linear-gradient-19" x1="253.41" y1="85.34" x2="11.21" y2="242.26" gradientTransform="translate(207.69 355.19) rotate(-135)" xlink:href="#green-planet-logo-linear-gradient"/><linearGradient id="green-planet-logo-linear-gradient-20" x1="253.38" y1="85.28" x2="11.17" y2="242.21" gradientTransform="translate(19.59 389.73) rotate(-135)" xlink:href="#green-planet-logo-linear-gradient"/><linearGradient id="green-planet-logo-linear-gradient-21" x1="245.57" y1="73.24" x2="3.37" y2="230.17" gradientTransform="translate(141.32 -56.67) rotate(45)" xlink:href="#green-planet-logo-linear-gradient"/><linearGradient id="green-planet-logo-linear-gradient-22" x1="241.84" y1="67.48" x2="-0.36" y2="224.41" gradientTransform="translate(146.1 -1.76) rotate(45)" xlink:href="#green-planet-logo-linear-gradient"/><linearGradient id="green-planet-logo-linear-gradient-23" x1="231.99" y1="52.27" x2="-10.21" y2="209.2" gradientTransform="translate(120.69 -63.1) rotate(45)" xlink:href="#green-planet-logo-linear-gradient"/><linearGradient id="green-planet-logo-linear-gradient-24" x1="195.06" y1="-39.34" x2="-107.69" y2="156.82" xlink:href="#green-planet-logo-linear-gradient"/><linearGradient id="green-planet-logo-linear-gradient-25" x1="335.59" y1="115.96" x2="32.83" y2="312.12" xlink:href="#green-planet-logo-linear-gradient"/><linearGradient id="green-planet-logo-linear-gradient-26" x1="315.62" y1="139.57" x2="12.87" y2="335.73" xlink:href="#green-planet-logo-linear-gradient"/><linearGradient id="green-planet-logo-linear-gradient-27" x1="239.95" y1="55.95" x2="-62.8" y2="252.11" xlink:href="#green-planet-logo-linear-gradient"/><linearGradient id="green-planet-logo-linear-gradient-28" x1="215.03" y1="-62.95" x2="-87.73" y2="133.21" xlink:href="#green-planet-logo-linear-gradient"/><linearGradient id="green-planet-logo-linear-gradient-29" x1="290.69" y1="20.67" x2="-12.06" y2="216.83" xlink:href="#green-planet-logo-linear-gradient"/></defs><title>green-planet-logo</title><g id="Layer_2" data-name="Layer 2"><g id="Layer_1-2" data-name="Layer 1"><path class="green-planet-logo-cls-1" d="M116.07,260.56a2.37,2.37,0,0,1-2.37-2.37v-37.9a2.37,2.37,0,0,1,4.74,0v37.9A2.37,2.37,0,0,1,116.07,260.56Z"/><path class="green-planet-logo-cls-2" d="M116.07,52.11a2.37,2.37,0,0,1-2.37-2.37V11.84a2.37,2.37,0,1,1,4.74,0v37.9A2.37,2.37,0,0,1,116.07,52.11Z"/><path class="green-planet-logo-cls-3" d="M40.27,89.15A2.36,2.36,0,0,1,39,88.78L10.57,70.69a2.37,2.37,0,1,1,2.54-4L41.54,84.78a2.37,2.37,0,0,1-1.27,4.37Z"/><path class="green-planet-logo-cls-4" d="M220.29,203.71a2.36,2.36,0,0,1-1.27-.37l-28.42-18.09a2.37,2.37,0,1,1,2.54-4l28.42,18.09a2.37,2.37,0,0,1-1.27,4.37Z"/><path class="green-planet-logo-cls-5" d="M191.87,89.15a2.37,2.37,0,0,1-1.27-4.37L219,66.69a2.37,2.37,0,0,1,2.54,4L193.14,88.78A2.36,2.36,0,0,1,191.87,89.15Z"/><path class="green-planet-logo-cls-6" d="M11.85,203.71a2.37,2.37,0,0,1-1.27-4.37L39,181.25a2.37,2.37,0,1,1,2.54,4L13.12,203.34A2.36,2.36,0,0,1,11.85,203.71Z"/><path class="green-planet-logo-cls-7" d="M116.07,260.89,9.47,202.75V67.29L116.07,9.15,222.66,67.29V202.75Zm-101.85-61,101.85,55.56,101.85-55.56V70.1L116.07,14.54,14.21,70.1Z"/><rect class="green-planet-logo-cls-8" x="33.48" y="89.02" width="57.83" height="14.46" rx="7.23" ry="7.23" transform="translate(-49.78 72.31) rotate(-45)"/><rect class="green-planet-logo-cls-9" x="60.97" y="81.35" width="79.52" height="14.46" rx="7.23" ry="7.23" transform="translate(-33.13 97.17) rotate(-45)"/><rect class="green-planet-logo-cls-10" x="85.84" y="58.35" width="14.46" height="14.46" rx="7.23" ry="7.23" transform="translate(-19.11 85.01) rotate(-45)"/><rect class="green-planet-logo-cls-11" x="44.94" y="160.58" width="14.46" height="14.46" rx="7.23" ry="7.23" transform="translate(-103.38 86.04) rotate(-45)"/><rect class="green-planet-logo-cls-12" x="36.66" y="127.35" width="36.14" height="14.46" rx="7.23" ry="7.23" transform="translate(-79.13 78.12) rotate(-45)"/><rect class="green-planet-logo-cls-13" x="123.55" y="71.13" width="36.14" height="14.46" rx="7.23" ry="7.23" transform="translate(-13.92 123.09) rotate(-45)"/><rect class="green-planet-logo-cls-14" x="49.69" y="119.69" width="86.74" height="14.46" rx="7.23" ry="7.23" transform="translate(-62.48 102.98) rotate(-45)"/><rect class="green-planet-logo-cls-15" x="140.82" y="165.69" width="57.83" height="14.46" rx="7.23" ry="7.23" transform="translate(412.03 175.17) rotate(135)"/><rect class="green-planet-logo-cls-16" x="91.64" y="173.36" width="79.52" height="14.46" rx="7.23" ry="7.23" transform="translate(352.01 215.36) rotate(135)"/><rect class="green-planet-logo-cls-17" x="131.84" y="196.36" width="14.46" height="14.46" rx="7.23" ry="7.23" transform="translate(381.37 249.16) rotate(134.99)"/><rect class="green-planet-logo-cls-18" x="172.73" y="94.13" width="14.46" height="14.46" rx="7.23" ry="7.23" transform="translate(378.88 45.78) rotate(135)"/><rect class="green-planet-logo-cls-19" x="159.33" y="127.35" width="36.14" height="14.46" rx="7.23" ry="7.23" transform="translate(398.01 104.3) rotate(135)"/><rect class="green-planet-logo-cls-20" x="72.44" y="183.58" width="36.14" height="14.46" rx="7.23" ry="7.23" transform="translate(289.43 261.73) rotate(135)"/><rect class="green-planet-logo-cls-21" x="95.7" y="135.02" width="86.74" height="14.46" rx="7.23" ry="7.23" transform="translate(-59.85 140) rotate(-45)"/><rect class="green-planet-logo-cls-22" x="49.87" y="168.24" width="50.6" height="14.46" rx="7.23" ry="7.23" transform="translate(-102.06 104.55) rotate(-45)"/><rect class="green-planet-logo-cls-23" x="82.3" y="106.91" width="108.43" height="14.46" rx="7.23" ry="7.23" transform="translate(-40.72 129.96) rotate(-45)"/><circle class="green-planet-logo-cls-24" cx="116.07" cy="11.84" r="11.84"/><circle class="green-planet-logo-cls-25" cx="116.07" cy="258.19" r="11.84"/><circle class="green-planet-logo-cls-26" cx="220.29" cy="201.34" r="11.84"/><circle class="green-planet-logo-cls-27" cx="220.29" cy="68.69" r="11.84"/><circle class="green-planet-logo-cls-28" cx="11.84" cy="68.69" r="11.84"/><circle class="green-planet-logo-cls-29" cx="11.84" cy="201.34" r="11.84"/><path class="green-planet-logo-cls-30" d="M427,49.32c38.43,0,58.94,19.33,58.94,19.33l-8.72,12.26s-19.33-16.5-49.51-16.5c-40.08,0-67.19,30.88-67.19,70.25,0,40.78,28.05,71,65.77,71,32.3,0,52.1-24.28,52.1-24.28V153.29H450.05V138.67H493.9v79.21H478.82V205.39c0-3.54.24-7.07.24-7.07h-.47s-19.1,22.4-54,22.4c-45.26,0-81.1-36.54-81.1-85.81C343.5,87,379.33,49.32,427,49.32Z"/><path class="green-planet-logo-cls-30" d="M528.54,99.3h15.8v21c0,5.19-.47,9.43-.47,9.43h.47C550,111.8,563.2,98.12,581.82,98.12a32.1,32.1,0,0,1,6.37.71v15.79a40.72,40.72,0,0,0-5.89-.47c-16.74,0-29.23,13.2-34.42,30.65a78.22,78.22,0,0,0-3.3,23.1v50h-16Z"/><path class="green-planet-logo-cls-30" d="M661.26,96.47c32.77,0,49.51,25.22,49.51,54.69,0,2.83-.47,8.25-.47,8.25h-91c.71,30.41,21.45,46.91,46,46.91,21.69,0,36.07-14.38,36.07-14.38l7.31,12.26a68,68,0,0,1-43.85,16.5c-35.36,0-62-25.46-62-62C602.79,119.81,629.2,96.47,661.26,96.47Zm33.24,49.74c-.94-24.75-16-36.31-33.71-36.31-19.8,0-37,12.49-40.78,36.31Z"/><path class="green-planet-logo-cls-30" d="M791.62,96.47c32.77,0,49.51,25.22,49.51,54.69,0,2.83-.47,8.25-.47,8.25h-91c.71,30.41,21.45,46.91,46,46.91,21.69,0,36.07-14.38,36.07-14.38L839,204.21a68,68,0,0,1-43.85,16.5c-35.36,0-62-25.46-62-62C733.15,119.81,759.56,96.47,791.62,96.47Zm33.24,49.74c-.94-24.75-16-36.31-33.71-36.31-19.8,0-37,12.49-40.78,36.31Z"/><path class="green-planet-logo-cls-30" d="M871.76,99.3h15.8V117c0,5.19-.47,9.43-.47,9.43h.47c4.24-10.85,19.33-29.94,47.39-29.94,29.23,0,39.61,16.74,39.61,46v75.44h-16v-71.2c0-18.62-2.83-35.13-25.7-35.13-20.27,0-37.72,13.91-43.14,33.48a58.61,58.61,0,0,0-1.89,16v56.82h-16Z"/><path class="green-planet-logo-cls-30" d="M1079.67,52.15H1137c29.71,0,51.16,19.33,51.16,50,0,30.89-21.45,50.69-51.16,50.69h-41v65.07h-16.27Zm55.17,86c22.16,0,36.54-13.44,36.54-36.07,0-22.39-14.38-35.36-36.31-35.36h-39.13V138.2Z"/><path class="green-planet-logo-cls-30" d="M1214.74,52.15h16V186.29c0,15.56,7.08,17.91,13.2,17.91a36.76,36.76,0,0,0,4-.23v14.38a40.44,40.44,0,0,1-5.89.47c-9.9,0-27.35-3.07-27.35-29Z"/><path class="green-planet-logo-cls-30" d="M1337.08,144.57h6.6V141.5c0-22.87-12.49-30.65-29.47-30.65a57.74,57.74,0,0,0-33.48,11.32l-7.55-12.26s15.56-13.44,42.2-13.44c28.53,0,44.32,15.79,44.32,45.5v75.91h-15.32v-13a93.37,93.37,0,0,1,.47-9.9h-.47s-9.9,25.7-39.6,25.7c-19.8,0-40.31-11.55-40.31-35.13C1264.47,145.51,1316.57,144.57,1337.08,144.57ZM1307.38,207c22.63,0,36.31-23.57,36.31-44.08v-5.19h-6.84c-18.62,0-55.87.71-55.87,26.87C1281,195.72,1289.7,207,1307.38,207Z"/><path class="green-planet-logo-cls-30" d="M1396.72,99.3h15.79V117c0,5.19-.47,9.43-.47,9.43h.47c4.25-10.85,19.33-29.94,47.39-29.94,29.23,0,39.6,16.74,39.6,46v75.44h-16v-71.2c0-18.62-2.83-35.13-25.7-35.13-20.27,0-37.72,13.91-43.14,33.48a58.67,58.67,0,0,0-1.89,16v56.82h-16Z"/><path class="green-planet-logo-cls-30" d="M1586.72,96.47c32.77,0,49.51,25.22,49.51,54.69,0,2.83-.47,8.25-.47,8.25h-91c.71,30.41,21.45,46.91,46,46.91,21.69,0,36.07-14.38,36.07-14.38l7.31,12.26a68,68,0,0,1-43.85,16.5c-35.37,0-62-25.46-62-62C1528.25,119.81,1554.66,96.47,1586.72,96.47ZM1620,146.21c-.94-24.75-16-36.31-33.71-36.31-19.8,0-37,12.49-40.78,36.31Z"/><path class="green-planet-logo-cls-30" d="M1671.34,114.15h-15.56V100.71h15.79V66.53h15.79v34.18h29.71v13.44h-29.71v58.94c0,27.82,17.68,31.36,26.64,31.36a27.63,27.63,0,0,0,5.42-.47v14.38a42,42,0,0,1-6.84.47c-13.67,0-41.26-4.48-41.26-44.08Z"/></g></g></svg>
