<svg xmlns="http://www.w3.org/2000/svg" viewBox="0 0 1060.12 322">
  <defs>
    <style>
      .spacing-lightgray{fill:#eee;}.spacing-dark{fill:#404041;}.triangle{fill:#0860b8;}.spacing-border{fill:none;stroke:#ccc;stroke-miterlimit:10;stroke-width:4px;}.spacing-measurements{fill:#ccc;}
    </style>
  </defs>
  <title>
    adaptiva-spacing
  </title>
  <g id="Layer_2" data-name="Layer 2">
    <g id="Layer_1-2" data-name="Layer 1">
      <path class="spacing-lightgray" d="M209.87 53.9V33c0-21.59-13.29-30.82-34-30.82-11.07 0-24.36 4.24-32.48 12l6.46 7.57a38.5 38.5 0 0 1 26-9.6c13.66 0 24 5.9 24 20.67V38H187c-16.8 0-47.25 2.58-47.25 28.61 0 18.09 15.5 25.28 30.08 25.28 14.4 0 23.62-5.17 29.9-16.06h.37a82.63 82.63 0 0 0 1.11 13.84h10.34c-1.31-9.74-1.68-19.15-1.68-35.77zm-10-1.29c0 14.21-6.09 29.35-29.72 29.35-9.23 0-19.38-5.35-19.38-15.87 0-14.58 18.46-19.19 36.91-19.19h12.18zm706 1.29V33c0-21.59-13.29-30.82-34-30.82-11.07 0-24.36 4.24-32.48 12l6.46 7.57a38.5 38.5 0 0 1 26-9.6c13.66 0 24 5.9 24 20.67V38H883c-16.8 0-47.25 2.58-47.25 28.61 0 18.09 15.5 25.28 30.08 25.28 14.4 0 23.62-5.17 29.9-16.06h.37a82.63 82.63 0 0 0 1.11 13.84h10.34c-1.31-9.74-1.68-19.15-1.68-35.77zm-10-1.29c0 14.21-6.09 29.35-29.72 29.35-9.23 0-19.38-5.35-19.38-15.87 0-14.58 18.46-19.19 36.91-19.19h12.18z"/>
      <path class="spacing-dark" d="M386.2 226.71a82.63 82.63 0 0 1-1.11-13.84h-.37c-6.28 10.89-15.5 16.06-29.9 16.06-14.58 0-30.08-7.2-30.08-25.28 0-26 30.45-28.61 47.25-28.61h12.92v-5.17c0-14.77-10.34-20.67-24-20.67a38.5 38.5 0 0 0-26 9.6l-6.46-7.57c8.12-7.75 21.41-12 32.48-12 20.67 0 34 9.23 34 30.82v20.85c0 16.61.37 26 1.66 35.81zm-1.29-42.82h-12.18c-18.46 0-36.91 4.61-36.91 19.19 0 10.52 10.15 15.87 19.38 15.87 23.62 0 29.72-15.14 29.72-29.35v-5.72zm100.22 42.82v-15h-.37c-6.83 11.81-21.41 17.16-34.14 17.16-26.21 0-44.85-18.82-44.85-44.85s18.64-44.85 44.85-44.85c12.74 0 27.32 5.35 34.14 17.16h.37V87.18h11.07v139.53zm-34.51-77.52c-20.86 0-33.78 15.69-33.78 34.88S429.76 219 450.61 219c20.12 0 35.62-15.69 35.62-34.88s-15.5-34.88-35.62-34.88zm116.46 77.52a82.54 82.54 0 0 1-1.08-13.84h-.37c-6.27 10.89-15.5 16.06-29.9 16.06-14.58 0-30.08-7.2-30.08-25.28 0-26 30.45-28.61 47.25-28.61h12.92v-5.17c0-14.77-10.34-20.67-24-20.67a38.5 38.5 0 0 0-26 9.6l-6.46-7.57c8.12-7.75 21.41-12 32.48-12 20.67 0 34 9.23 34 30.82v20.85c0 16.61.37 26 1.66 35.81zm-1.29-42.82H553.6c-18.46 0-36.91 4.61-36.91 19.19 0 10.52 10.15 15.87 19.38 15.87 23.62 0 29.71-15.14 29.71-29.35v-5.72zm68.84 45c-12.74 0-27.32-5.35-34.15-17.16h-.37v57H589V141.44h11.07v14.95h.37c6.83-11.81 21.41-17.16 34.15-17.16 26.21 0 44.85 18.83 44.85 44.85s-18.64 44.85-44.85 44.85zm0-79.73c-20.12 0-35.62 15.69-35.62 34.88S614.5 219 634.62 219c20.85 0 33.77-15.69 33.77-34.88s-12.92-34.88-33.77-34.88zM719.52 219a32.89 32.89 0 0 0 12.55-3l.92 10c-4.06 1.48-10.15 3-14.4 3-15.87 0-22-9.78-22-22v-55.59h-18.42v-10h18.46v-24.52h11.07v24.55h24.36v10H707.7V207c0 7.57 4.43 12 11.81 12zm25.84-103a8.31 8.31 0 1 1 8.31-8.3 8.27 8.27 0 0 1-8.31 8.3zm5.54 110.74h-11.08v-85.3h11.07v85.27zm51.86 0h-11.45l-34.88-85.27H769l28.42 73.27 27.68-73.27h11.26l-33.59 85.27zm94.87 0a82.55 82.55 0 0 1-1.11-13.84h-.37c-6.27 10.89-15.5 16.06-29.9 16.06-14.58 0-30.08-7.2-30.08-25.28 0-26 30.45-28.61 47.25-28.61h12.92v-5.17c0-14.77-10.34-20.67-24-20.67a38.51 38.51 0 0 0-26 9.6l-6.46-7.57c8.12-7.75 21.41-12 32.48-12 20.67 0 34 9.23 34 30.82v20.82c0 16.61.37 26 1.66 35.81zm-1.29-42.82h-12.2c-18.46 0-36.91 4.61-36.91 19.19 0 10.52 10.15 15.87 19.38 15.87 23.62 0 29.71-15.14 29.71-29.35v-5.72zm14.53-42.3v6.13h-.62v-6.13H908v-.57h5.2v.57zm8.63 6.13v-5.9l-2.55 5.9h-.28l-2.59-5.9v5.9h-.62v-6.7h.94l2.44 5.62 2.44-5.62h.89v6.7z"/>
      <path class="triangle" d="M279.68 91.68v40.96h-41.77l41.77-40.96zm-85.26 84.25h85.26v-31.85h-52.96l-32.3 31.85zM140 229.68h139.68v-42.31h-97L140 229.68z"/>
      <path class="spacing-lightgray" d="M139.68 90.68v40.96H97.91l41.77-40.96zm-85.26 84.25h85.26v-31.85H86.72l-32.3 31.85zM0 228.68h139.68v-42.31h-97L0 228.68zm1059.68-138v40.96h-41.77l41.77-40.96zm-85.26 84.25h85.26v-31.85h-52.96l-32.3 31.85zM920 228.68h139.68v-42.31h-97L920 228.68zM209.87 281.9V261c0-21.59-13.29-30.82-34-30.82-11.07 0-24.36 4.24-32.48 12l6.46 7.57a38.5 38.5 0 0 1 26-9.6c13.66 0 24 5.9 24 20.67V266H187c-16.8 0-47.25 2.58-47.25 28.61 0 18.09 15.5 25.28 30.08 25.28 14.4 0 23.62-5.17 29.9-16.06h.37a82.63 82.63 0 0 0 1.11 13.84h10.34c-1.31-9.74-1.68-19.15-1.68-35.77zm-10-1.29c0 14.21-6.09 29.35-29.72 29.35-9.23 0-19.38-5.35-19.38-15.87 0-14.58 18.46-19.19 36.91-19.19h12.18zm706 1.29V261c0-21.59-13.29-30.82-34-30.82-11.07 0-24.36 4.24-32.48 12l6.46 7.57a38.5 38.5 0 0 1 26-9.6c13.66 0 24 5.9 24 20.67V266H883c-16.8 0-47.25 2.58-47.25 28.61 0 18.09 15.5 25.28 30.08 25.28 14.4 0 23.62-5.17 29.9-16.06h.37a82.63 82.63 0 0 0 1.11 13.84h10.34c-1.31-9.74-1.68-19.15-1.68-35.77zm-10-1.29c0 14.21-6.09 29.35-29.72 29.35-9.23 0-19.38-5.35-19.38-15.87 0-14.58 18.46-19.19 36.91-19.19h12.18z"/>
      <path class="spacing-border" d="M.12 229h1060M.12 320h1060m-1060 0h1060M.12 2h1060M.12 92h1060"/>
      <path class="spacing-measurements" d="M55.06 287.87h5.69v-19.98h-.07a6.15 6.15 0 0 1-1.26 1.51l-2.7 2.7-1.58-1.62 5.72-5.69h2.3v23.07h5.58v2.23H55.06zm23.54-5.58s-.29.54-.61 1l-4.39 6.8h-2.88l6.37-9.43-5.83-8.66h2.88l3.86 6.08c.29.47.61 1 .61 1s.32-.58.61-1l3.95-6.08H86l-5.83 8.67 6.37 9.43h-2.83l-4.39-6.8c-.32-.47-.61-1-.61-1h-.11zm896.46 5.58h5.69v-19.98h-.07a6.15 6.15 0 0 1-1.26 1.51l-2.7 2.7-1.58-1.62 5.72-5.69h2.3v23.07h5.58v2.23h-13.68zm23.54-5.58s-.29.54-.61 1l-4.39 6.8h-2.88l6.37-9.43-5.83-8.66h2.88l3.89 6.08c.29.47.61 1 .61 1s.32-.58.61-1l3.89-6.08h2.86l-5.83 8.67 6.37 9.43h-2.88l-4.39-6.8c-.32-.47-.61-1-.61-1h-.11zM55.06 59.87h5.69V39.89h-.07a6.15 6.15 0 0 1-1.26 1.51l-2.7 2.7-1.58-1.62 5.72-5.69h2.3v23.08h5.58v2.23H55.06zm23.54-5.58s-.29.54-.61 1l-4.39 6.8h-2.88l6.37-9.43L71.26 44h2.88L78 50.08c.29.47.61 1 .61 1s.32-.58.61-1L83.17 44H86l-5.83 8.67 6.37 9.43h-2.83l-4.39-6.8c-.32-.47-.61-1-.61-1h-.11zm896.46 5.58h5.69V39.89h-.07a6.15 6.15 0 0 1-1.26 1.51l-2.7 2.7-1.58-1.62 5.72-5.69h2.3v23.08h5.58v2.23h-13.68zm23.54-5.58s-.29.54-.61 1l-4.39 6.8h-2.88l6.37-9.43-5.83-8.66h2.88l3.86 6.08c.29.47.61 1 .61 1s.32-.58.61-1l3.89-6.08h2.89l-5.83 8.67 6.37 9.43h-2.88l-4.39-6.8c-.32-.47-.61-1-.61-1h-.11z"/>
    </g>
  </g>
</svg>
