<?xml version="1.0" encoding="utf-8"?>
<!-- Generator: Adobe Illustrator 21.1.0, SVG Export Plug-In . SVG Version: 6.00 Build 0)  -->
<svg version="1.1" id="Layer_1" xmlns="http://www.w3.org/2000/svg" xmlns:xlink="http://www.w3.org/1999/xlink" x="0px" y="0px"
	 viewBox="0 0 1060.1 503" style="enable-background:new 0 0 1060.1 503;" xml:space="preserve">
<style type="text/css">
	.st0{fill:#EEEEEE;}
	.st1{fill:none;stroke:#CCCCCC;stroke-width:4;stroke-miterlimit:10;}
	.st2{fill:#404041;}
	.st3{fill:#0860B8;}
	.st4{fill:#CCCCCC;}
</style>
<title>adaptiva-spacing-tagline</title>
<g id="Layer_2">
	<g id="Layer_1-2">
		<path class="st0" d="M209.9,418v-20.9c0-21.6-13.3-30.8-34-30.8c-11.1,0-24.4,4.2-32.5,12l6.5,7.6c7.2-6.3,16.4-9.7,26-9.6
			c13.7,0,24,5.9,24,20.7v5.2H187c-16.8,0-47.3,2.6-47.3,28.6c0,18.1,15.5,25.3,30.1,25.3c14.4,0,23.6-5.2,29.9-16.1h0.4
			c0,4.6,0.4,9.3,1.1,13.8h10.3C210.2,444,209.9,434.6,209.9,418z M199.9,416.7c0,14.2-6.1,29.4-29.7,29.4
			c-9.2,0-19.4-5.4-19.4-15.9c0-14.6,18.5-19.2,36.9-19.2h12.2L199.9,416.7z M905.9,418v-20.9c0-21.6-13.3-30.8-34-30.8
			c-11.1,0-24.4,4.2-32.5,12l6.5,7.6c7.2-6.3,16.4-9.7,26-9.6c13.7,0,24,5.9,24,20.7v5.2H883c-16.8,0-47.3,2.6-47.3,28.6
			c0,18.1,15.5,25.3,30.1,25.3c14.4,0,23.6-5.2,29.9-16.1h0.4c0,4.6,0.4,9.3,1.1,13.8h10.3C906.2,444,905.9,434.6,905.9,418
			L905.9,418z M895.9,416.7c0,14.2-6.1,29.4-29.7,29.4c-9.2,0-19.4-5.4-19.4-15.9c0-14.6,18.5-19.2,36.9-19.2h12.2L895.9,416.7z"/>
		<path class="st1" d="M0.1,456.1h1060"/>
		<path class="st0" d="M209.9,53.9V33c0-21.6-13.3-30.8-34-30.8c-11.1,0-24.4,4.2-32.5,12l6.5,7.6c7.2-6.3,16.4-9.7,26-9.6
			c13.7,0,24,5.9,24,20.7V38H187c-16.8,0-47.3,2.6-47.3,28.6c0,18.1,15.5,25.3,30.1,25.3c14.4,0,23.6-5.2,29.9-16.1h0.4
			c0,4.6,0.4,9.3,1.1,13.8h10.3C210.2,79.9,209.9,70.5,209.9,53.9z M199.9,52.6c0,14.2-6.1,29.3-29.7,29.3
			c-9.2,0-19.4-5.3-19.4-15.9c0-14.6,18.5-19.2,36.9-19.2h12.2L199.9,52.6z M905.9,53.9V33c0-21.6-13.3-30.8-34-30.8
			c-11.1,0-24.4,4.2-32.5,12l6.5,7.6c7.2-6.3,16.4-9.7,26-9.6c13.7,0,24,5.9,24,20.7V38H883c-16.8,0-47.3,2.6-47.3,28.6
			c0,18.1,15.5,25.3,30.1,25.3c14.4,0,23.6-5.2,29.9-16.1h0.4c0,4.6,0.4,9.3,1.1,13.8h10.3C906.2,79.9,905.9,70.5,905.9,53.9
			L905.9,53.9z M895.9,52.6c0,14.2-6.1,29.3-29.7,29.3c-9.2,0-19.4-5.3-19.4-15.9c0-14.6,18.5-19.2,36.9-19.2h12.2L895.9,52.6z"/>
		<path class="st2" d="M386.2,226.7c-0.8-4.6-1.1-9.2-1.1-13.8h-0.4c-6.3,10.9-15.5,16.1-29.9,16.1c-14.6,0-30.1-7.2-30.1-25.3
			c0-26,30.5-28.6,47.3-28.6h12.9v-5.2c0-14.8-10.3-20.7-24-20.7c-9.6-0.1-18.8,3.3-26,9.6l-6.5-7.6c8.1-7.8,21.4-12,32.5-12
			c20.7,0,34,9.2,34,30.8v20.9c0,16.6,0.4,26,1.7,35.8L386.2,226.7z M384.9,183.9h-12.2c-18.5,0-36.9,4.6-36.9,19.2
			c0,10.5,10.1,15.9,19.4,15.9c23.6,0,29.7-15.1,29.7-29.4L384.9,183.9L384.9,183.9z M485.1,226.7v-15h-0.4
			c-6.8,11.8-21.4,17.2-34.1,17.2c-26.2,0-44.9-18.8-44.9-44.9s18.6-44.9,44.9-44.9c12.7,0,27.3,5.4,34.1,17.2h0.4V87.2h11.1v139.5
			L485.1,226.7z M450.6,149.2c-20.9,0-33.8,15.7-33.8,34.9s12.9,34.9,33.8,34.9c20.1,0,35.6-15.7,35.6-34.9S470.7,149.2,450.6,149.2
			L450.6,149.2z M567.1,226.7c-0.7-4.6-1.1-9.2-1.1-13.8h-0.4c-6.3,10.9-15.5,16.1-29.9,16.1c-14.6,0-30.1-7.2-30.1-25.3
			c0-26,30.4-28.6,47.3-28.6h12.9v-5.2c0-14.8-10.3-20.7-24-20.7c-9.6-0.1-18.8,3.3-26,9.6l-6.5-7.6c8.1-7.8,21.4-12,32.5-12
			c20.7,0,34,9.2,34,30.8v20.9c0,16.6,0.4,26,1.7,35.8H567.1z M565.8,183.9h-12.2c-18.5,0-36.9,4.6-36.9,19.2
			c0,10.5,10.2,15.9,19.4,15.9c23.6,0,29.7-15.1,29.7-29.4L565.8,183.9L565.8,183.9z M634.6,228.9c-12.7,0-27.3-5.4-34.2-17.2h-0.4
			v57H589V141.4h11.1v14.9h0.4c6.8-11.8,21.4-17.2,34.2-17.2c26.2,0,44.8,18.8,44.8,44.8S660.8,228.9,634.6,228.9L634.6,228.9z
			 M634.6,149.2c-20.1,0-35.6,15.7-35.6,34.9s15.5,35,35.6,35c20.8,0,33.8-15.7,33.8-34.9S655.5,149.2,634.6,149.2L634.6,149.2z
			 M719.5,219c4.3-0.2,8.6-1.2,12.5-3l0.9,10c-4.1,1.5-10.2,3-14.4,3c-15.9,0-22-9.8-22-22v-55.6h-18.4v-10h18.5v-24.5h11.1v24.6
			h24.4v10h-24.4V207C707.7,214.6,712.1,219,719.5,219L719.5,219z M745.4,116c-4.6,0-8.3-3.7-8.3-8.3s3.7-8.3,8.3-8.3
			s8.3,3.7,8.3,8.3c0,0,0,0,0,0C753.7,112.3,750,116,745.4,116C745.4,116,745.4,116,745.4,116z M750.9,226.7h-11.1v-85.3h11.1
			L750.9,226.7L750.9,226.7z M802.8,226.7h-11.5l-34.9-85.3H769l28.4,73.3l27.7-73.3h11.3L802.8,226.7L802.8,226.7z M897.6,226.7
			c-0.8-4.6-1.1-9.2-1.1-13.8h-0.4c-6.3,10.9-15.5,16.1-29.9,16.1c-14.6,0-30.1-7.2-30.1-25.3c0-26,30.5-28.6,47.3-28.6h12.9v-5.2
			c0-14.8-10.3-20.7-24-20.7c-9.6-0.1-18.8,3.3-26,9.6l-6.5-7.6c8.1-7.8,21.4-12,32.5-12c20.7,0,34,9.2,34,30.8v20.8
			c0,16.6,0.4,26,1.7,35.8L897.6,226.7z M896.3,183.9h-12.2c-18.5,0-36.9,4.6-36.9,19.2c0,10.5,10.2,15.9,19.4,15.9
			c23.6,0,29.7-15.1,29.7-29.4L896.3,183.9L896.3,183.9z M910.9,141.6v6.1h-0.6v-6.1H908V141h5.2v0.6H910.9z M919.5,147.7v-5.9
			l-2.5,5.9h-0.3l-2.6-5.9v5.9h-0.6V141h0.9l2.4,5.6l2.4-5.6h0.9v6.7H919.5z"/>
		<path class="st3" d="M279.7,91.7v41h-41.8L279.7,91.7z M194.4,175.9h85.3v-31.9h-53L194.4,175.9L194.4,175.9z M140,229.7h139.7
			v-42.3h-97L140,229.7z"/>
		<path class="st0" d="M139.7,90.7v41H97.9L139.7,90.7L139.7,90.7z M54.4,174.9h85.3v-31.9h-53L54.4,174.9L54.4,174.9z M0,228.7
			h139.7v-42.3h-97L0,228.7z M1059.7,90.7v41h-41.8C1017.9,131.6,1059.7,90.7,1059.7,90.7z M974.4,174.9h85.3v-31.9h-53L974.4,174.9
			z M920,228.7h139.7v-42.3h-97L920,228.7z M209.9,281.9V261c0-21.6-13.3-30.8-34-30.8c-11.1,0-24.4,4.2-32.5,12l6.5,7.6
			c7.2-6.3,16.4-9.7,26-9.6c13.7,0,24,5.9,24,20.7v5.2H187c-16.8,0-47.3,2.6-47.3,28.6c0,18.1,15.5,25.3,30.1,25.3
			c14.4,0,23.6-5.2,29.9-16.1h0.4c0,4.6,0.4,9.3,1.1,13.8h10.3C210.2,307.9,209.9,298.5,209.9,281.9z M199.9,280.6
			c0,14.2-6.1,29.4-29.7,29.4c-9.2,0-19.4-5.4-19.4-15.9c0-14.6,18.5-19.2,36.9-19.2h12.2L199.9,280.6z M905.9,281.9V261
			c0-21.6-13.3-30.8-34-30.8c-11.1,0-24.4,4.2-32.5,12l6.5,7.6c7.2-6.3,16.4-9.7,26-9.6c13.7,0,24,5.9,24,20.7v5.2H883
			c-16.8,0-47.3,2.6-47.3,28.6c0,18.1,15.5,25.3,30.1,25.3c14.4,0,23.6-5.2,29.9-16.1h0.4c0,4.6,0.4,9.3,1.1,13.8h10.3
			C906.2,307.9,905.9,298.5,905.9,281.9L905.9,281.9z M895.9,280.6c0,14.2-6.1,29.4-29.7,29.4c-9.2,0-19.4-5.4-19.4-15.9
			c0-14.6,18.5-19.2,36.9-19.2h12.2L895.9,280.6z"/>
		<path class="st1" d="M0.1,229h1060 M0.1,320h1060 M0.1,320h1060 M0.1,365h1060 M0.1,2h1060 M0.1,92h1060"/>
		<path class="st4" d="M55.1,287.9h5.7v-20h-0.1c-0.3,0.6-0.8,1.1-1.3,1.5l-2.7,2.7l-1.6-1.6l5.7-5.7h2.3v23.1h5.6v2.2H55.1V287.9z
			 M78.6,282.3c0,0-0.3,0.5-0.6,1l-4.4,6.8h-2.9l6.4-9.4l-5.8-8.7h2.9l3.9,6.1c0.3,0.5,0.6,1,0.6,1s0.3-0.6,0.6-1l3.9-6.1H86
			l-5.8,8.7l6.4,9.4h-2.8l-4.4-6.8c-0.3-0.5-0.6-1-0.6-1L78.6,282.3L78.6,282.3z M975.1,287.9h5.7v-20h-0.1
			c-0.3,0.6-0.8,1.1-1.3,1.5l-2.7,2.7l-1.6-1.6l5.7-5.7h2.3v23.1h5.6v2.2h-13.7L975.1,287.9z M998.6,282.3c0,0-0.3,0.5-0.6,1
			l-4.4,6.8h-2.9l6.4-9.4l-5.8-8.7h2.9l3.9,6.1c0.3,0.5,0.6,1,0.6,1s0.3-0.6,0.6-1l3.9-6.1h2.9l-5.8,8.7l6.4,9.4h-2.9l-4.4-6.8
			C998.9,282.8,998.7,282.3,998.6,282.3L998.6,282.3L998.6,282.3z"/>
		<path class="st4" d="M55.1,424h5.7v-20h-0.1c-0.3,0.6-0.8,1.1-1.3,1.5l-2.7,2.7l-1.6-1.6l5.7-5.7h2.3V424h5.6v2.2H55.1V424z
			 M78.6,418.4c0,0-0.3,0.5-0.6,1l-4.4,6.8h-2.9l6.4-9.4l-5.8-8.7h2.9l3.9,6.1c0.3,0.5,0.6,1,0.6,1s0.3-0.6,0.6-1l3.9-6.1H86
			l-5.8,8.7l6.4,9.4h-2.8l-4.4-6.8c-0.3-0.5-0.6-1-0.6-1L78.6,418.4L78.6,418.4z M975.1,424h5.7v-20h-0.1c-0.3,0.6-0.8,1.1-1.3,1.5
			l-2.7,2.7l-1.6-1.6l5.7-5.7h2.3V424h5.6v2.2h-13.7L975.1,424z M998.6,418.4c0,0-0.3,0.5-0.6,1l-4.4,6.8h-2.9l6.4-9.4l-5.8-8.7h2.9
			l3.9,6.1c0.3,0.5,0.6,1,0.6,1s0.3-0.6,0.6-1l3.9-6.1h2.9l-5.8,8.7l6.4,9.4h-2.9l-4.4-6.8C998.9,418.9,998.7,418.4,998.6,418.4
			L998.6,418.4L998.6,418.4z M38.6,341.4c0-7.3,2.2-13.1,8.8-13.1s8.7,5.8,8.7,13.1s-2.1,13.1-8.7,13.1S38.6,348.8,38.6,341.4z
			 M53.5,341.4c0-6-1.3-10.7-6.1-10.7s-6.2,4.7-6.2,10.7s1.3,10.8,6.2,10.8S53.5,347.5,53.5,341.4z M60.8,351.2h2.8v2.9h-2.8V351.2z
			 M70.2,349.2c1.3,1.9,3.4,3,5.7,3c3.3,0.2,6.1-2.4,6.3-5.7c0-0.1,0-0.2,0-0.2c0-3.5-2.8-5.9-6.4-5.9c-1.6,0-3.2,0.5-4.6,1.4
			l-1.6-0.6l1.4-12.3h12.2v2.2H73.1l-0.7,6.5c-0.1,0.5-0.1,1-0.3,1.4h0.1c1.2-0.7,2.5-1,3.8-1c5.1,0,8.7,3.7,8.7,8.2
			c0,4.7-3.9,8.4-8.5,8.4c-0.1,0-0.2,0-0.3,0c-2.9,0.1-5.7-1.3-7.4-3.6L70.2,349.2z M95.5,346.3c0,0-0.3,0.5-0.6,1l-4.4,6.8h-2.9
			l6.4-9.4l-5.8-8.7h2.9l3.9,6.1c0.3,0.5,0.6,1,0.6,1s0.3-0.6,0.6-1l3.9-6.1h2.9l-5.8,8.7l6.4,9.4h-2.9l-4.4-6.8
			c-0.3-0.5-0.6-1-0.6-1L95.5,346.3L95.5,346.3z M958.6,341.4c0-7.3,2.2-13.1,8.8-13.1s8.7,5.8,8.7,13.1s-2.1,13.1-8.7,13.1
			S958.6,348.8,958.6,341.4z M973.5,341.4c0-6-1.3-10.7-6.1-10.7s-6.2,4.7-6.2,10.7s1.3,10.8,6.2,10.8S973.5,347.5,973.5,341.4z
			 M980.8,351.2h2.8v2.9h-2.8V351.2z M990.2,349.2c1.3,1.9,3.4,3,5.7,3c3.3,0.2,6.1-2.4,6.3-5.7c0-0.1,0-0.2,0-0.2
			c0-3.5-2.8-5.9-6.4-5.9c-1.6,0-3.2,0.5-4.6,1.4l-1.6-0.6l1.4-12.3h12.2v2.2h-10.1l-0.7,6.5c-0.1,0.5-0.1,1-0.3,1.4h0.1
			c1.2-0.7,2.5-1,3.8-1c5.1,0,8.7,3.7,8.7,8.2c-0.1,4.7-3.9,8.4-8.6,8.3c-0.1,0-0.1,0-0.2,0c-2.9,0.1-5.7-1.3-7.4-3.6L990.2,349.2z
			 M1015.5,346.3c0,0-0.3,0.5-0.6,1l-4.4,6.8h-2.9l6.4-9.4l-5.8-8.7h2.9l3.9,6.1c0.3,0.5,0.6,1,0.6,1s0.3-0.6,0.6-1l3.9-6.1h2.9
			l-5.8,8.7l6.4,9.4h-2.9l-4.4-6.8c-0.3-0.5-0.6-1-0.6-1H1015.5L1015.5,346.3z M55.1,59.9h5.7v-20h-0.1c-0.3,0.6-0.8,1.1-1.3,1.5
			l-2.7,2.7l-1.6-1.6l5.7-5.7h2.3v23.1h5.6v2.2H55.1V59.9z M78.6,54.3c0,0-0.3,0.5-0.6,1l-4.4,6.8h-2.9l6.4-9.4L71.3,44h2.9l3.9,6.1
			c0.3,0.5,0.6,1,0.6,1s0.3-0.6,0.6-1l3.9-6.1H86l-5.8,8.7l6.4,9.4h-2.8l-4.4-6.8c-0.3-0.5-0.6-1-0.6-1L78.6,54.3L78.6,54.3z
			 M975.1,59.9h5.7v-20h-0.1c-0.3,0.6-0.8,1.1-1.3,1.5l-2.7,2.7l-1.6-1.6l5.7-5.7h2.3v23.1h5.6v2.2h-13.7L975.1,59.9z M998.6,54.3
			c0,0-0.3,0.5-0.6,1l-4.4,6.8h-2.9l6.4-9.4l-5.8-8.7h2.9l3.9,6.1c0.3,0.5,0.6,1,0.6,1s0.3-0.6,0.6-1l3.9-6.1h2.9l-5.8,8.7l6.4,9.4
			h-2.9l-4.4-6.8C998.9,54.8,998.7,54.3,998.6,54.3L998.6,54.3L998.6,54.3z"/>
		<path class="st3" d="M144,356.6c2.8,1.7,6.1,2.6,9.4,2.6c5.3,0,8.5-2.8,8.5-6.9c0-3.8-2.2-5.9-7.6-8c-6.6-2.3-10.7-5.8-10.7-11.5
			c0-6.3,5.2-11,13.1-11c3.1-0.1,6.2,0.6,8.9,2l-1.4,4.3c-2.4-1.3-5-1.9-7.7-1.9c-5.5,0-7.6,3.3-7.6,6.1c0,3.8,2.5,5.6,8,7.8
			c6.8,2.6,10.3,5.9,10.3,11.9c0,6.2-4.6,11.6-14.2,11.6c-3.9,0-8.2-1.1-10.3-2.6L144,356.6z M174.1,341.8c0-3-0.1-5.5-0.2-7.9h4.6
			l0.2,4.7h0.2c1.8-3.4,5.3-5.4,9.1-5.3c3.7,0,7,2.3,8.2,5.8h0.1c0.8-1.5,1.9-2.8,3.2-3.8c1.8-1.4,4.1-2.1,6.4-2
			c3.8,0,9.5,2.5,9.5,12.6V363h-5.2v-16.4c0-5.6-2-8.9-6.3-8.9c-2.9,0.1-5.4,2-6.2,4.8c-0.3,0.9-0.4,1.7-0.4,2.6V363h-5.2v-17.4
			c0-4.6-2-8-6.1-8c-3.3,0-5.7,2.6-6.5,5.3c-0.3,0.8-0.4,1.7-0.4,2.6V363h-5.2L174.1,341.8z M240.2,363l-0.4-3.7h-0.2
			c-2.1,2.8-5.4,4.4-8.9,4.3c-5.9,0-8.9-4.1-8.9-8.3c0-7,6.2-10.9,17.5-10.8v-0.6c0-2.4-0.7-6.7-6.6-6.7c-2.7,0-5.3,0.8-7.6,2.2
			l-1.2-3.5c2.9-1.7,6.2-2.6,9.5-2.6c8.9,0,11,6.1,11,11.9V356c0,2.3,0.1,4.7,0.5,7H240.2z M239.4,348.2c-5.8-0.1-12.3,0.9-12.3,6.5
			c-0.2,2.6,1.7,4.8,4.3,5c0.2,0,0.5,0,0.7,0c3.1,0.1,6-1.9,7-4.9c0.2-0.5,0.3-1.1,0.3-1.7V348.2z M253,343c0-3.4-0.1-6.4-0.2-9.1
			h4.6l0.2,5.7h0.2c1.3-3.9,4.5-6.4,8-6.4c0.5,0,1,0.1,1.5,0.2v5c-0.6-0.1-1.2-0.2-1.8-0.2c-3.7,0-6.4,2.8-7.1,6.8
			c-0.1,0.8-0.2,1.6-0.2,2.5V363H253V343z M280.5,325.6v8.4h7.5v4h-7.6v15.7c0,3.6,1,5.6,4,5.6c1,0,2.1-0.1,3.1-0.4l0.2,4
			c-1.5,0.5-3.1,0.8-4.7,0.7c-2.1,0.1-4.2-0.7-5.7-2.2c-1.5-1.6-2-4.1-2-7.6V338h-4.5v-4h4.5v-7L280.5,325.6z M305.9,344.8v3.9
			h-14.8v-3.9H305.9z M311.4,357.6c2.1,1.3,4.5,2,7,2.1c3.8,0,5.6-1.9,5.6-4.3s-1.5-3.9-5.4-5.3c-5.2-1.9-7.7-4.7-7.7-8.2
			c0-4.7,3.8-8.5,10-8.5c2.5,0,5,0.6,7.1,1.8l-1.3,3.8c-1.8-1.1-3.8-1.7-5.9-1.7c-3.1,0-4.9,1.8-4.9,4c0,2.4,1.7,3.5,5.5,4.9
			c5,1.9,7.6,4.4,7.6,8.8c0,5.1-4,8.7-10.9,8.7c-2.8,0-5.7-0.6-8.2-2L311.4,357.6z M356.5,361.9c-2.6,1.2-5.5,1.7-8.3,1.7
			c-8.8,0-14.5-5.9-14.5-14.8s6.1-15.4,15.6-15.4c2.5,0,5,0.5,7.3,1.5l-1.2,4.1c-1.9-1-4-1.5-6.1-1.4c-6.7,0-10.3,4.9-10.3,11
			c0,6.7,4.3,10.9,10.1,10.9c2.2,0,4.5-0.5,6.5-1.4L356.5,361.9z M378.8,363l-0.4-3.7h-0.2c-2.1,2.8-5.4,4.4-8.9,4.3
			c-5.9,0-8.9-4.1-8.9-8.3c0-7,6.2-10.9,17.5-10.8v-0.6c0-2.4-0.7-6.7-6.6-6.7c-2.7,0-5.3,0.8-7.6,2.2l-1.2-3.5
			c2.9-1.7,6.2-2.6,9.5-2.6c8.9,0,11,6.1,11,11.9V356c0,2.3,0.1,4.7,0.5,7H378.8z M378,348.2c-5.8-0.1-12.3,0.9-12.3,6.5
			c-0.2,2.6,1.7,4.8,4.3,5c0.2,0,0.5,0,0.7,0c3.1,0.1,6-1.9,7-4.9c0.2-0.5,0.3-1.1,0.3-1.7V348.2z M391.6,320.4h5.3V363h-5.3V320.4z
			 M411.7,325.8c0,1.8-1.5,3.3-3.3,3.3c-1.8,0-3.3-1.5-3.3-3.3l0,0c0-1.8,1.4-3.3,3.1-3.3c0.1,0,0.1,0,0.2,0c1.7-0.1,3.2,1.3,3.2,3
			C411.7,325.6,411.7,325.7,411.7,325.8L411.7,325.8z M405.8,363v-29h5.3v29H405.8z M419.8,341.8c0-3-0.1-5.5-0.2-7.9h4.7l0.3,4.8
			h0.1c1.9-3.5,5.6-5.6,9.6-5.5c4,0,10.3,2.4,10.3,12.4V363h-5.3v-16.7c0-4.7-1.7-8.6-6.7-8.6c-3.3,0.1-6.2,2.2-7.1,5.4
			c-0.3,0.8-0.4,1.6-0.4,2.5V363h-5.3L419.8,341.8z M478.2,334c-0.1,2.1-0.2,4.4-0.2,8v16.8c0,6.7-1.3,10.7-4.1,13.3
			s-6.9,3.5-10.6,3.5c-3.5,0-7.3-0.8-9.7-2.4l1.3-4c2.6,1.5,5.5,2.3,8.5,2.3c5.4,0,9.4-2.8,9.4-10.1V358h-0.1c-2,3.2-5.5,5-9.2,4.9
			c-7.2,0-12.4-6.1-12.4-14.2c0-9.8,6.4-15.4,13.1-15.4c5,0,7.8,2.6,9.1,5h0.1l0.2-4.4L478.2,334z M472.7,345.5
			c0-0.8-0.1-1.6-0.3-2.4c-0.9-3.3-3.9-5.6-7.4-5.6c-5,0-8.6,4.3-8.6,11c0,5.7,2.9,10.4,8.6,10.4c3.4,0,6.3-2.2,7.3-5.4
			c0.3-0.9,0.4-1.9,0.4-2.8V345.5z M499.9,363v-25h-4.1v-4h4.1v-1.4c0-4.1,0.9-7.8,3.4-10.1c1.9-1.8,4.5-2.8,7.1-2.7
			c1.5,0,3.1,0.3,4.5,0.8l-0.7,4.1c-1.1-0.5-2.2-0.7-3.4-0.7c-4.5,0-5.6,4-5.6,8.4v1.6h7v4h-7v25H499.9z M542.4,348.2
			c0,10.7-7.4,15.4-14.5,15.4c-7.9,0-13.9-5.8-13.9-14.9c0-9.7,6.4-15.4,14.4-15.4C536.8,333.3,542.4,339.4,542.4,348.2z
			 M519.4,348.5c0,6.4,3.7,11.2,8.8,11.2s8.8-4.7,8.8-11.3c0-4.9-2.5-11.2-8.7-11.2S519.4,343,519.4,348.5L519.4,348.5z M549.1,343
			c0-3.4-0.1-6.4-0.2-9.1h4.6l0.2,5.7h0.2c1.3-3.9,4.5-6.4,8-6.4c0.5,0,1,0.1,1.5,0.2v5c-0.6-0.1-1.2-0.2-1.8-0.2
			c-3.7,0-6.4,2.8-7.1,6.8c-0.1,0.8-0.2,1.6-0.2,2.5V363H549L549.1,343z M602.5,344h-15.7v14.6h17.5v4.4h-22.7v-40.4h21.8v4.4h-16.6
			v12.8h15.7V344z M610.9,341.8c0-3-0.1-5.5-0.2-7.9h4.7l0.3,4.8h0.1c1.9-3.5,5.6-5.6,9.6-5.5c4,0,10.3,2.4,10.3,12.4V363h-5.3
			v-16.7c0-4.7-1.7-8.6-6.7-8.6c-3.3,0.1-6.2,2.2-7.1,5.4c-0.3,0.8-0.4,1.6-0.4,2.5V363h-5.3L610.9,341.8z M650.4,325.6v8.4h7.6v4
			h-7.6v15.7c0,3.6,1,5.6,4,5.6c1,0,2.1-0.1,3.1-0.4l0.2,4c-1.5,0.5-3.1,0.8-4.7,0.7c-2.1,0.1-4.2-0.7-5.7-2.2c-1.5-1.6-2-4.1-2-7.6
			V338h-4.5v-4h4.5v-7L650.4,325.6z M666.4,349.4c0.1,7.1,4.7,10.1,10,10.1c2.7,0.1,5.5-0.4,8-1.5l0.9,3.8c-3.1,1.3-6.3,1.9-9.7,1.8
			c-8.9,0-14.3-5.9-14.3-14.6s5.2-15.7,13.6-15.7c9.5,0,12,8.3,12,13.7c0,0.8-0.1,1.6-0.2,2.5L666.4,349.4z M681.9,345.7
			c0.1-3.4-1.4-8.6-7.3-8.6c-5.3,0-7.7,4.9-8.1,8.6H681.9z M693.6,343c0-3.4-0.1-6.4-0.2-9.1h4.6l0.2,5.7h0.2c1.3-3.9,4.5-6.4,8-6.4
			c0.5,0,1,0.1,1.5,0.2v5c-0.6-0.1-1.2-0.2-1.8-0.2c-3.7,0-6.4,2.8-7.1,6.8c-0.1,0.8-0.2,1.6-0.2,2.5V363h-5.2L693.6,343z
			 M713.4,343.4c0-3.7-0.1-6.7-0.2-9.5h4.7l0.2,5h0.1c2.1-3.6,6.1-5.8,10.3-5.6c7,0,12.3,5.9,12.3,14.8c0,10.4-6.4,15.6-13.2,15.6
			c-3.6,0.2-7-1.6-8.9-4.6h-0.1v15.8h-5.2V343.4z M718.6,351.2c0,0.7,0.1,1.4,0.2,2.2c0.9,3.6,4.2,6.2,7.9,6.2
			c5.6,0,8.8-4.6,8.8-11.2c0-5.8-3.1-10.8-8.6-10.8c-3.8,0.1-7.1,2.8-8,6.5c-0.2,0.7-0.3,1.4-0.4,2.2L718.6,351.2z M747.5,343
			c0-3.4-0.1-6.4-0.2-9.1h4.6l0.2,5.7h0.2c1.3-3.9,4.5-6.4,8-6.4c0.5,0,1,0.1,1.5,0.2v5c-0.6-0.1-1.2-0.2-1.8-0.2
			c-3.7,0-6.4,2.8-7.1,6.8c-0.1,0.8-0.2,1.6-0.2,2.5V363h-5.2L747.5,343z M773.3,325.8c0,1.8-1.5,3.3-3.3,3.3
			c-1.8,0-3.3-1.5-3.3-3.3c0-1.8,1.4-3.3,3.1-3.3c0.1,0,0.1,0,0.2,0c1.7-0.1,3.2,1.3,3.2,3C773.3,325.6,773.3,325.7,773.3,325.8z
			 M767.4,363v-29h5.3v29H767.4z M780.7,357.6c2.1,1.3,4.5,2,7,2.1c3.8,0,5.6-1.9,5.6-4.3s-1.5-3.9-5.4-5.3
			c-5.2-1.9-7.7-4.7-7.7-8.2c0-4.7,3.8-8.5,10-8.5c2.5,0,5,0.6,7.1,1.8l-1.3,3.8c-1.8-1.1-3.8-1.7-5.9-1.7c-3.1,0-4.9,1.8-4.9,4
			c0,2.4,1.7,3.5,5.5,4.9c5,1.9,7.6,4.4,7.6,8.8c0,5.1-4,8.7-10.9,8.7c-2.8,0-5.7-0.6-8.2-2L780.7,357.6z M808.1,349.4
			c0.1,7.1,4.7,10.1,10,10.1c2.7,0.1,5.5-0.4,8-1.5l0.9,3.8c-3.1,1.3-6.3,1.9-9.7,1.8c-8.9,0-14.3-5.9-14.3-14.6s5.2-15.7,13.6-15.7
			c9.5,0,12,8.3,12,13.7c0,0.8-0.1,1.6-0.2,2.5L808.1,349.4z M823.6,345.7c0.1-3.4-1.4-8.6-7.3-8.6c-5.3,0-7.7,4.9-8.1,8.6H823.6z
			 M853.4,322.6V363h-5.2v-40.4L853.4,322.6z M870.2,327h-12.3v-4.4h29.9v4.4h-12.4v36h-5.3V327z M901.2,322v2.3h-4.5v11.8h-2.8
			v-11.8h-4.5V322L901.2,322z M916.5,336.1l-0.5-8.3c0-1.1,0-2.4-0.1-4h-0.2c-0.4,1.3-0.8,2.9-1.2,4.2l-2.5,7.9h-3l-2.5-8.1
			c-0.3-1.1-0.7-2.8-1-4h-0.2c0,1.3,0,2.6-0.1,4l-0.5,8.3H902l1-14.1h4.2l2.4,6.9c0.3,1.1,0.6,2.1,0.9,3.6h0c0.4-1.3,0.7-2.5,1-3.5
			l2.4-7h4.1l1.1,14.1L916.5,336.1z"/>
	</g>
</g>
</svg>
