<svg xmlns="http://www.w3.org/2000/svg" xmlns:xlink="http://www.w3.org/1999/xlink" viewBox="0 0 1561.12 647.79"><defs><style>.green-planet-logo-v-cls-1{fill:url(#green-planet-logo-v-linear-gradient);}.green-planet-logo-v-cls-2{fill:url(#green-planet-logo-v-linear-gradient-2);}.green-planet-logo-v-cls-3{fill:url(#green-planet-logo-v-linear-gradient-3);}.green-planet-logo-v-cls-4{fill:url(#green-planet-logo-v-linear-gradient-4);}.green-planet-logo-v-cls-5{fill:url(#green-planet-logo-v-linear-gradient-5);}.green-planet-logo-v-cls-6{fill:url(#green-planet-logo-v-linear-gradient-6);}.green-planet-logo-v-cls-7{fill:url(#green-planet-logo-v-linear-gradient-7);}.green-planet-logo-v-cls-8{fill:url(#green-planet-logo-v-linear-gradient-8);}.green-planet-logo-v-cls-9{fill:url(#green-planet-logo-v-linear-gradient-9);}.green-planet-logo-v-cls-10{fill:url(#green-planet-logo-v-linear-gradient-10);}.green-planet-logo-v-cls-11{fill:url(#green-planet-logo-v-linear-gradient-11);}.green-planet-logo-v-cls-12{fill:url(#green-planet-logo-v-linear-gradient-12);}.green-planet-logo-v-cls-13{fill:url(#green-planet-logo-v-linear-gradient-13);}.green-planet-logo-v-cls-14{fill:url(#green-planet-logo-v-linear-gradient-14);}.green-planet-logo-v-cls-15{fill:url(#green-planet-logo-v-linear-gradient-15);}.green-planet-logo-v-cls-16{fill:url(#green-planet-logo-v-linear-gradient-16);}.green-planet-logo-v-cls-17{fill:url(#green-planet-logo-v-linear-gradient-17);}.green-planet-logo-v-cls-18{fill:url(#green-planet-logo-v-linear-gradient-18);}.green-planet-logo-v-cls-19{fill:url(#green-planet-logo-v-linear-gradient-19);}.green-planet-logo-v-cls-20{fill:url(#green-planet-logo-v-linear-gradient-20);}.green-planet-logo-v-cls-21{fill:url(#green-planet-logo-v-linear-gradient-21);}.green-planet-logo-v-cls-22{fill:url(#green-planet-logo-v-linear-gradient-22);}.green-planet-logo-v-cls-23{fill:url(#green-planet-logo-v-linear-gradient-23);}.green-planet-logo-v-cls-24{fill:url(#green-planet-logo-v-linear-gradient-24);}.green-planet-logo-v-cls-25{fill:url(#green-planet-logo-v-linear-gradient-25);}.green-planet-logo-v-cls-26{fill:url(#green-planet-logo-v-linear-gradient-26);}.green-planet-logo-v-cls-27{fill:url(#green-planet-logo-v-linear-gradient-27);}.green-planet-logo-v-cls-28{fill:url(#green-planet-logo-v-linear-gradient-28);}.green-planet-logo-v-cls-29{fill:url(#green-planet-logo-v-linear-gradient-29);}.green-planet-logo-v-cls-30{fill:#404041;}</style><linearGradient id="green-planet-logo-v-linear-gradient" x1="793.21" y1="258.79" x2="767.91" y2="284.09" gradientUnits="userSpaceOnUse"><stop offset="0" stop-color="#4cdf83"/><stop offset="1" stop-color="#2cb565"/></linearGradient><linearGradient id="green-planet-logo-v-linear-gradient-2" x1="793.21" y1="22.29" x2="767.91" y2="47.59" gradientUnits="userSpaceOnUse"><stop offset="0" stop-color="#2cb565"/><stop offset="1" stop-color="#4cdf83"/></linearGradient><linearGradient id="green-planet-logo-v-linear-gradient-3" x1="683.27" y1="83.37" x2="673.6" y2="93.03" xlink:href="#green-planet-logo-v-linear-gradient"/><linearGradient id="green-planet-logo-v-linear-gradient-4" x1="872.71" y1="223.94" x2="892.67" y2="212.42" xlink:href="#green-planet-logo-v-linear-gradient"/><linearGradient id="green-planet-logo-v-linear-gradient-5" x1="897.78" y1="73.11" x2="867.59" y2="103.29" xlink:href="#green-planet-logo-v-linear-gradient"/><linearGradient id="green-planet-logo-v-linear-gradient-6" x1="693.53" y1="203.08" x2="663.34" y2="233.27" xlink:href="#green-planet-logo-v-linear-gradient"/><linearGradient id="green-planet-logo-v-linear-gradient-7" x1="879.45" y1="54.3" x2="681.67" y2="252.08" xlink:href="#green-planet-logo-v-linear-gradient"/><linearGradient id="green-planet-logo-v-linear-gradient-8" x1="877.96" y1="6.64" x2="603.16" y2="184.69" gradientTransform="translate(288 -476.9) rotate(45)" xlink:href="#green-planet-logo-v-linear-gradient"/><linearGradient id="green-planet-logo-v-linear-gradient-9" x1="886.85" y1="20.36" x2="612.05" y2="198.41" gradientTransform="translate(294.59 -510.2) rotate(45)" xlink:href="#green-planet-logo-v-linear-gradient"/><linearGradient id="green-planet-logo-v-linear-gradient-10" x1="872.37" y1="-1.99" x2="597.57" y2="176.06" gradientTransform="translate(273.59 -511.7) rotate(45)" xlink:href="#green-planet-logo-v-linear-gradient"/><linearGradient id="green-planet-logo-v-linear-gradient-11" x1="911.58" y1="58.53" x2="636.78" y2="236.58" gradientTransform="translate(342.02 -444.92) rotate(45)" xlink:href="#green-planet-logo-v-linear-gradient"/><linearGradient id="green-planet-logo-v-linear-gradient-12" x1="895.24" y1="33.3" x2="620.44" y2="211.35" gradientTransform="translate(316.21 -458.01) rotate(45)" xlink:href="#green-planet-logo-v-linear-gradient"/><linearGradient id="green-planet-logo-v-linear-gradient-13" x1="895.27" y1="33.36" x2="620.48" y2="211.41" gradientTransform="translate(299.98 -546.41) rotate(45)" xlink:href="#green-planet-logo-v-linear-gradient"/><linearGradient id="green-planet-logo-v-linear-gradient-14" x1="904.13" y1="47.03" x2="629.33" y2="225.07" gradientTransform="translate(322.8 -491.31) rotate(45)" xlink:href="#green-planet-logo-v-linear-gradient"/><linearGradient id="green-planet-logo-v-linear-gradient-15" x1="953.67" y1="123.49" x2="678.87" y2="301.53" gradientTransform="translate(1297.73 929.92) rotate(-135)" xlink:href="#green-planet-logo-v-linear-gradient"/><linearGradient id="green-planet-logo-v-linear-gradient-16" x1="944.78" y1="109.76" x2="669.98" y2="287.81" gradientTransform="translate(1217.32 914.01) rotate(-135)" xlink:href="#green-planet-logo-v-linear-gradient"/><linearGradient id="green-planet-logo-v-linear-gradient-17" x1="959.26" y1="132.12" x2="684.46" y2="310.16" gradientTransform="translate(1213.59 964.79) rotate(-134.99)" xlink:href="#green-planet-logo-v-linear-gradient"/><linearGradient id="green-planet-logo-v-linear-gradient-18" x1="920.04" y1="71.59" x2="645.25" y2="249.64" gradientTransform="translate(1374.94 799.51) rotate(-135)" xlink:href="#green-planet-logo-v-linear-gradient"/><linearGradient id="green-planet-logo-v-linear-gradient-19" x1="936.39" y1="96.82" x2="661.59" y2="274.87" gradientTransform="translate(1343.34 861.82) rotate(-135)" xlink:href="#green-planet-logo-v-linear-gradient"/><linearGradient id="green-planet-logo-v-linear-gradient-20" x1="936.35" y1="96.76" x2="661.55" y2="274.81" gradientTransform="translate(1129.92 901.01) rotate(-135)" xlink:href="#green-planet-logo-v-linear-gradient"/><linearGradient id="green-planet-logo-v-linear-gradient-21" x1="927.5" y1="83.1" x2="652.7" y2="261.15" gradientTransform="translate(350.39 -523.12) rotate(45)" xlink:href="#green-planet-logo-v-linear-gradient"/><linearGradient id="green-planet-logo-v-linear-gradient-22" x1="923.27" y1="76.57" x2="648.47" y2="254.62" gradientTransform="translate(355.81 -460.82) rotate(45)" xlink:href="#green-planet-logo-v-linear-gradient"/><linearGradient id="green-planet-logo-v-linear-gradient-23" x1="912.09" y1="59.31" x2="637.29" y2="237.36" gradientTransform="translate(326.98 -530.42) rotate(45)" xlink:href="#green-planet-logo-v-linear-gradient"/><linearGradient id="green-planet-logo-v-linear-gradient-24" x1="870.19" y1="-44.63" x2="526.69" y2="177.93" xlink:href="#green-planet-logo-v-linear-gradient"/><linearGradient id="green-planet-logo-v-linear-gradient-25" x1="1029.63" y1="131.57" x2="686.13" y2="354.13" xlink:href="#green-planet-logo-v-linear-gradient"/><linearGradient id="green-planet-logo-v-linear-gradient-26" x1="1006.98" y1="158.36" x2="663.48" y2="380.92" xlink:href="#green-planet-logo-v-linear-gradient"/><linearGradient id="green-planet-logo-v-linear-gradient-27" x1="921.12" y1="63.48" x2="577.63" y2="286.04" xlink:href="#green-planet-logo-v-linear-gradient"/><linearGradient id="green-planet-logo-v-linear-gradient-28" x1="892.84" y1="-71.43" x2="549.34" y2="151.13" xlink:href="#green-planet-logo-v-linear-gradient"/><linearGradient id="green-planet-logo-v-linear-gradient-29" x1="978.69" y1="23.45" x2="635.19" y2="246.01" xlink:href="#green-planet-logo-v-linear-gradient"/></defs><title>green-planet-logo-v</title><g id="Layer_2" data-name="Layer 2"><g id="Layer_1-2" data-name="Layer 1"><path class="green-planet-logo-v-cls-1" d="M780.56,295.63a2.69,2.69,0,0,1-2.69-2.69v-43a2.69,2.69,0,0,1,5.38,0v43A2.69,2.69,0,0,1,780.56,295.63Z"/><path class="green-planet-logo-v-cls-2" d="M780.56,59.13a2.69,2.69,0,0,1-2.69-2.69v-43a2.69,2.69,0,0,1,5.38,0v43A2.69,2.69,0,0,1,780.56,59.13Z"/><path class="green-planet-logo-v-cls-3" d="M694.56,101.15a2.68,2.68,0,0,1-1.44-.42L660.87,80.21a2.69,2.69,0,1,1,2.89-4.54L696,96.19a2.69,2.69,0,0,1-1.45,5Z"/><path class="green-planet-logo-v-cls-4" d="M898.81,231.13a2.68,2.68,0,0,1-1.44-.42l-32.25-20.52a2.69,2.69,0,1,1,2.89-4.54l32.25,20.52a2.69,2.69,0,0,1-1.45,5Z"/><path class="green-planet-logo-v-cls-5" d="M866.57,101.15a2.69,2.69,0,0,1-1.45-5l32.25-20.52a2.69,2.69,0,0,1,2.89,4.54L868,100.73A2.68,2.68,0,0,1,866.57,101.15Z"/><path class="green-planet-logo-v-cls-6" d="M662.31,231.13a2.69,2.69,0,0,1-1.45-5l32.25-20.52a2.69,2.69,0,1,1,2.89,4.54l-32.25,20.52A2.68,2.68,0,0,1,662.31,231.13Z"/><path class="green-planet-logo-v-cls-7" d="M780.56,296,659.62,230V76.34l120.94-66,120.94,66V230ZM665,226.84l115.56,63,115.56-63V79.53l-115.56-63L665,79.53Z"/><rect class="green-planet-logo-v-cls-8" x="686.86" y="101" width="65.61" height="16.4" rx="8.2" ry="8.2" transform="translate(133.57 540.87) rotate(-45)"/><rect class="green-planet-logo-v-cls-9" x="718.05" y="92.3" width="90.22" height="16.4" rx="8.2" ry="8.2" transform="translate(152.46 569.07) rotate(-45)"/><rect class="green-planet-logo-v-cls-10" x="746.26" y="66.2" width="16.4" height="16.4" rx="8.2" ry="8.2" transform="translate(168.37 555.28) rotate(-45)"/><rect class="green-planet-logo-v-cls-11" x="699.87" y="182.19" width="16.4" height="16.4" rx="8.2" ry="8.2" transform="translate(72.76 556.44) rotate(-45)"/><rect class="green-planet-logo-v-cls-12" x="690.46" y="144.49" width="41.01" height="16.4" rx="8.2" ry="8.2" transform="translate(100.27 547.45) rotate(-45)"/><rect class="green-planet-logo-v-cls-13" x="789.06" y="80.7" width="41.01" height="16.4" rx="8.2" ry="8.2" transform="translate(174.25 598.48) rotate(-45)"/><rect class="green-planet-logo-v-cls-14" x="705.25" y="135.79" width="98.42" height="16.4" rx="8.2" ry="8.2" transform="translate(119.16 575.66) rotate(-45)"/><rect class="green-planet-logo-v-cls-15" x="808.65" y="187.99" width="65.61" height="16.4" rx="8.2" ry="8.2" transform="translate(1575.18 -260.08) rotate(135)"/><rect class="green-planet-logo-v-cls-16" x="752.85" y="196.69" width="90.22" height="16.4" rx="8.2" ry="8.2" transform="translate(1507.08 -214.47) rotate(135)"/><rect class="green-planet-logo-v-cls-17" x="798.46" y="222.79" width="16.4" height="16.4" rx="8.2" ry="8.2" transform="translate(1540.31 -176.21) rotate(134.99)"/><rect class="green-planet-logo-v-cls-18" x="844.85" y="106.8" width="16.4" height="16.4" rx="8.2" ry="8.2" transform="translate(1537.57 -406.89) rotate(135)"/><rect class="green-planet-logo-v-cls-19" x="829.65" y="144.49" width="41.01" height="16.4" rx="8.2" ry="8.2" transform="translate(1559.28 -340.48) rotate(135)"/><rect class="green-planet-logo-v-cls-20" x="731.06" y="208.29" width="41.01" height="16.4" rx="8.2" ry="8.2" transform="translate(1436.08 -161.87) rotate(135)"/><rect class="green-planet-logo-v-cls-21" x="757.45" y="153.19" width="98.42" height="16.4" rx="8.2" ry="8.2" transform="translate(122.14 617.67) rotate(-45)"/><rect class="green-planet-logo-v-cls-22" x="705.46" y="190.89" width="57.41" height="16.4" rx="8.2" ry="8.2" transform="translate(74.25 577.45) rotate(-45)"/><rect class="green-planet-logo-v-cls-23" x="742.25" y="121.3" width="123.03" height="16.4" rx="8.2" ry="8.2" transform="translate(143.85 606.27) rotate(-45)"/><circle class="green-planet-logo-v-cls-24" cx="780.56" cy="13.44" r="13.44"/><circle class="green-planet-logo-v-cls-25" cx="780.56" cy="292.94" r="13.44"/><circle class="green-planet-logo-v-cls-26" cx="898.81" cy="228.44" r="13.44"/><circle class="green-planet-logo-v-cls-27" cx="898.81" cy="77.94" r="13.44"/><circle class="green-planet-logo-v-cls-28" cx="662.31" cy="77.94" r="13.44"/><circle class="green-planet-logo-v-cls-29" cx="662.31" cy="228.44" r="13.44"/><path class="green-planet-logo-v-cls-30" d="M94.69,453.34c43.6,0,66.87,21.93,66.87,21.93l-9.9,13.91s-21.93-18.72-56.17-18.72c-45.47,0-76.23,35-76.23,79.71,0,46.27,31.83,80.51,74.63,80.51,36.65,0,59.11-27.55,59.11-27.55V571.29H120.9V554.71h49.75v89.87H153.53V630.41c0-4,.27-8,.27-8h-.54S131.6,647.79,92,647.79c-51.36,0-92-41.46-92-97.36C0,496.13,40.66,453.34,94.69,453.34Z"/><path class="green-planet-logo-v-cls-30" d="M210,510h17.92v23.8c0,5.88-.54,10.7-.54,10.7h.54c6.42-20.33,21.4-35.84,42.53-35.84a36.42,36.42,0,0,1,7.22.8v17.92a46.2,46.2,0,0,0-6.69-.53c-19,0-33.17,15-39.05,34.77a88.75,88.75,0,0,0-3.75,26.21v56.71H210Z"/><path class="green-planet-logo-v-cls-30" d="M360.53,506.83c37.18,0,56.17,28.62,56.17,62.05,0,3.21-.54,9.36-.54,9.36H312.92c.8,34.51,24.34,53.23,52.16,53.23,24.61,0,40.92-16.32,40.92-16.32l8.29,13.91a77.11,77.11,0,0,1-49.75,18.73c-40.12,0-70.35-28.89-70.35-70.35C294.2,533.31,324.16,506.83,360.53,506.83Zm37.71,56.44c-1.07-28.08-18.19-41.19-38.25-41.19-22.47,0-42,14.18-46.27,41.19Z"/><path class="green-planet-logo-v-cls-30" d="M508.43,506.83c37.18,0,56.17,28.62,56.17,62.05,0,3.21-.54,9.36-.54,9.36H460.82c.8,34.51,24.34,53.23,52.16,53.23,24.61,0,40.92-16.32,40.92-16.32l8.29,13.91a77.11,77.11,0,0,1-49.75,18.73c-40.12,0-70.35-28.89-70.35-70.35C442.1,533.31,472.06,506.83,508.43,506.83Zm37.71,56.44c-1.07-28.08-18.19-41.19-38.25-41.19-22.47,0-42,14.18-46.27,41.19Z"/><path class="green-planet-logo-v-cls-30" d="M599.36,510h17.92V530.1c0,5.88-.54,10.7-.54,10.7h.54c4.81-12.3,21.93-34,53.76-34,33.17,0,44.94,19,44.94,52.16v85.59H697.8V563.8c0-21.13-3.21-39.85-29.16-39.85-23,0-42.8,15.78-48.95,38a66.5,66.5,0,0,0-2.14,18.19v64.46H599.36Z"/><path class="green-planet-logo-v-cls-30" d="M835.25,456.55h65c33.7,0,58,21.93,58,56.7,0,35-24.34,57.51-58,57.51H853.71v73.83H835.25Zm62.59,97.63c25.14,0,41.46-15.25,41.46-40.93,0-25.41-16.32-40.12-41.2-40.12h-44.4v81Z"/><path class="green-planet-logo-v-cls-30" d="M988.51,456.55h18.19v152.2c0,17.65,8,20.33,15,20.33a41.71,41.71,0,0,0,4.55-.26v16.31a45.89,45.89,0,0,1-6.69.54c-11.23,0-31-3.48-31-32.9Z"/><path class="green-planet-logo-v-cls-30" d="M1127.32,561.4h7.49v-3.48c0-25.94-14.18-34.77-33.44-34.77-22.2,0-38,12.84-38,12.84l-8.56-13.91s17.66-15.25,47.88-15.25c32.37,0,50.29,17.92,50.29,51.62v86.13h-17.39V629.87a105.94,105.94,0,0,1,.54-11.23h-.54s-11.23,29.16-44.94,29.16c-22.47,0-45.74-13.11-45.74-39.86C1044.93,562.47,1104,561.4,1127.32,561.4Zm-33.7,70.88c25.68,0,41.19-26.75,41.19-50v-5.88h-7.76c-21.13,0-63.39.8-63.39,30.49C1063.66,619.44,1073.56,632.28,1093.62,632.28Z"/><path class="green-planet-logo-v-cls-30" d="M1195,510h17.92V530.1c0,5.88-.53,10.7-.53,10.7h.53c4.82-12.3,21.94-34,53.76-34,33.17,0,44.94,19,44.94,52.16v85.59h-18.19V563.8c0-21.13-3.21-39.85-29.16-39.85-23,0-42.79,15.78-48.95,38a66.57,66.57,0,0,0-2.14,18.19v64.46H1195Z"/><path class="green-planet-logo-v-cls-30" d="M1410.55,506.83c37.18,0,56.17,28.62,56.17,62.05,0,3.21-.54,9.36-.54,9.36H1362.94c.8,34.51,24.34,53.23,52.16,53.23,24.61,0,40.92-16.32,40.92-16.32l8.29,13.91a77.1,77.1,0,0,1-49.75,18.73c-40.12,0-70.35-28.89-70.35-70.35C1344.22,533.31,1374.17,506.83,1410.55,506.83Zm37.71,56.44c-1.07-28.08-18.19-41.19-38.25-41.19-22.47,0-42,14.18-46.27,41.19Z"/><path class="green-planet-logo-v-cls-30" d="M1506.56,526.89h-17.65V511.65h17.92V472.86h17.92v38.78h33.7v15.25h-33.7v66.87c0,31.56,20.06,35.58,30.23,35.58a31.35,31.35,0,0,0,6.15-.53v16.31a47.69,47.69,0,0,1-7.76.54c-15.52,0-46.81-5.08-46.81-50Z"/></g></g></svg>
