<svg xmlns="http://www.w3.org/2000/svg" viewBox="0 0 1561.12 647.79"><defs><style>.green-planet-logo-v-white-cls-1{fill:#fff;}</style></defs><title>green-planet-logo-v-white</title><g id="Layer_2" data-name="Layer 2"><g id="Layer_1-2" data-name="Layer 1"><path class="green-planet-logo-v-white-cls-1" d="M708.07,132.4l34.8-34.8a8.2,8.2,0,0,0,0-11.6h0a8.2,8.2,0,0,0-11.6,0l-34.8,34.8a8.2,8.2,0,0,0,11.6,11.6Z"/><path class="green-planet-logo-v-white-cls-1" d="M731.27,132.4a8.2,8.2,0,0,0,11.6,0l52.19-52.2a8.2,8.2,0,0,0-11.6-11.6l-52.2,52.2A8.2,8.2,0,0,0,731.27,132.4Z"/><path class="green-planet-logo-v-white-cls-1" d="M748.67,80.2a8.2,8.2,0,1,0,0-11.6h0a8.2,8.2,0,0,0,0,11.6Z"/><path class="green-planet-logo-v-white-cls-1" d="M713.87,184.59h0a8.2,8.2,0,0,0-11.6,0h0a8.2,8.2,0,1,0,11.6,0Z"/><path class="green-planet-logo-v-white-cls-1" d="M708.07,167.19l17.4-17.4a8.2,8.2,0,1,0-11.6-11.6l-17.4,17.4a8.2,8.2,0,0,0,11.6,11.6Z"/><path class="green-planet-logo-v-white-cls-1" d="M795.06,103.4h0a8.2,8.2,0,0,0,11.6,0L824.06,86a8.2,8.2,0,0,0-11.6-11.6l-17.4,17.4A8.2,8.2,0,0,0,795.06,103.4Z"/><path class="green-planet-logo-v-white-cls-1" d="M789.26,109.2a8.2,8.2,0,0,0-11.6,0l-58,58a8.2,8.2,0,1,0,11.6,11.6l58-58A8.2,8.2,0,0,0,789.26,109.2Z"/><path class="green-planet-logo-v-white-cls-1" d="M864.65,173h0a8.2,8.2,0,0,0-11.6,0l-34.8,34.8a8.2,8.2,0,0,0,0,11.6h0a8.2,8.2,0,0,0,11.6,0l34.8-34.8A8.2,8.2,0,0,0,864.65,173Z"/><path class="green-planet-logo-v-white-cls-1" d="M829.86,173h0a8.2,8.2,0,0,0-11.6,0l-52.19,52.2a8.2,8.2,0,0,0,0,11.6h0a8.2,8.2,0,0,0,11.6,0l52.2-52.2A8.2,8.2,0,0,0,829.86,173Z"/><circle class="green-planet-logo-v-white-cls-1" cx="806.66" cy="230.99" r="8.2" transform="translate(72.93 638.04) rotate(-45)"/><path class="green-planet-logo-v-white-cls-1" d="M847.26,109.2a8.2,8.2,0,0,0,0,11.6h0a8.2,8.2,0,0,0,11.6,0h0a8.2,8.2,0,1,0-11.6-11.6Z"/><path class="green-planet-logo-v-white-cls-1" d="M853.06,138.2l-17.4,17.4a8.2,8.2,0,0,0,11.6,11.6l17.4-17.4a8.2,8.2,0,0,0,0-11.6h0A8.2,8.2,0,0,0,853.06,138.2Z"/><path class="green-planet-logo-v-white-cls-1" d="M766.06,202h0a8.2,8.2,0,0,0-11.6,0l-17.4,17.4a8.2,8.2,0,1,0,11.6,11.6l17.4-17.4A8.2,8.2,0,0,0,766.06,202Z"/><path class="green-planet-logo-v-white-cls-1" d="M841.46,126.6a8.2,8.2,0,0,0-11.6,0l-58,58a8.2,8.2,0,1,0,11.6,11.6l58-58A8.2,8.2,0,0,0,841.46,126.6Z"/><path class="green-planet-logo-v-white-cls-1" d="M754.46,178.79a8.2,8.2,0,0,0-11.6,0l-29,29a8.2,8.2,0,0,0,0,11.6h0a8.2,8.2,0,0,0,11.6,0l29-29A8.2,8.2,0,0,0,754.46,178.79Z"/><path class="green-planet-logo-v-white-cls-1" d="M760.26,173a8.2,8.2,0,0,0,11.6,0L847.26,97.6a8.2,8.2,0,0,0,0-11.6h0a8.2,8.2,0,0,0-11.6,0l-75.39,75.39A8.2,8.2,0,0,0,760.26,173Z"/><path class="green-planet-logo-v-white-cls-1" d="M901.5,215.27V91.11a13.44,13.44,0,1,0-13-21.83L793.41,17.38a13.44,13.44,0,1,0-25.69,0L672.58,69.28a13.44,13.44,0,1,0-13,21.83V215.27a13.44,13.44,0,1,0,13,21.83L767.72,289a13.44,13.44,0,1,0,25.69,0l95.14-51.89a13.44,13.44,0,1,0,13-21.83Zm-110.67,69a13.42,13.42,0,0,0-7.58-4.51V249.94a2.69,2.69,0,0,0-5.37,0v29.83a13.42,13.42,0,0,0-7.58,4.51l-95.14-51.89a13.35,13.35,0,0,0-.31-8.74L696,210.18a2.69,2.69,0,1,0-2.89-4.54L672,219.11a13.4,13.4,0,0,0-7-3.84V91.11a13.4,13.4,0,0,0,7-3.84l21.15,13.46A2.69,2.69,0,0,0,696,96.19L674.85,82.73a13.35,13.35,0,0,0,.31-8.74L770.3,22.1a13.42,13.42,0,0,0,7.58,4.51V56.44a2.69,2.69,0,0,0,5.38,0V26.61a13.42,13.42,0,0,0,7.58-4.51L886,74a13.35,13.35,0,0,0,.31,8.74L865.12,96.19a2.69,2.69,0,0,0,2.89,4.54l21.15-13.46a13.4,13.4,0,0,0,7,3.84V215.27a13.4,13.4,0,0,0-7,3.84L868,205.65a2.69,2.69,0,1,0-2.89,4.54l21.15,13.46a13.35,13.35,0,0,0-.31,8.74Z"/><path class="green-planet-logo-v-white-cls-1" d="M94.69,453.34c43.6,0,66.87,21.93,66.87,21.93l-9.9,13.91s-21.93-18.72-56.17-18.72c-45.47,0-76.23,35-76.23,79.71,0,46.27,31.83,80.51,74.63,80.51,36.65,0,59.11-27.55,59.11-27.55V571.29H120.9V554.71h49.75v89.87H153.53V630.41c0-4,.27-8,.27-8h-.54S131.6,647.79,92,647.79c-51.36,0-92-41.46-92-97.36C0,496.13,40.66,453.34,94.69,453.34Z"/><path class="green-planet-logo-v-white-cls-1" d="M210,510h17.92v23.8c0,5.88-.54,10.7-.54,10.7h.54c6.42-20.33,21.4-35.84,42.53-35.84a36.42,36.42,0,0,1,7.22.8v17.92a46.2,46.2,0,0,0-6.69-.53c-19,0-33.17,15-39.05,34.77a88.75,88.75,0,0,0-3.75,26.21v56.71H210Z"/><path class="green-planet-logo-v-white-cls-1" d="M360.53,506.83c37.18,0,56.17,28.62,56.17,62.05,0,3.21-.54,9.36-.54,9.36H312.92c.8,34.51,24.34,53.23,52.16,53.23,24.61,0,40.92-16.32,40.92-16.32l8.29,13.91a77.11,77.11,0,0,1-49.75,18.73c-40.12,0-70.35-28.89-70.35-70.35C294.2,533.31,324.16,506.83,360.53,506.83Zm37.71,56.44c-1.07-28.08-18.19-41.19-38.25-41.19-22.47,0-42,14.18-46.27,41.19Z"/><path class="green-planet-logo-v-white-cls-1" d="M508.43,506.83c37.18,0,56.17,28.62,56.17,62.05,0,3.21-.54,9.36-.54,9.36H460.82c.8,34.51,24.34,53.23,52.16,53.23,24.61,0,40.92-16.32,40.92-16.32l8.29,13.91a77.11,77.11,0,0,1-49.75,18.73c-40.12,0-70.35-28.89-70.35-70.35C442.1,533.31,472.06,506.83,508.43,506.83Zm37.71,56.44c-1.07-28.08-18.19-41.19-38.25-41.19-22.47,0-42,14.18-46.27,41.19Z"/><path class="green-planet-logo-v-white-cls-1" d="M599.36,510h17.92V530.1c0,5.88-.54,10.7-.54,10.7h.54c4.81-12.3,21.93-34,53.76-34,33.17,0,44.94,19,44.94,52.16v85.59H697.8V563.8c0-21.13-3.21-39.85-29.16-39.85-23,0-42.8,15.78-48.95,38a66.5,66.5,0,0,0-2.14,18.19v64.46H599.36Z"/><path class="green-planet-logo-v-white-cls-1" d="M835.25,456.55h65c33.7,0,58,21.93,58,56.7,0,35-24.34,57.51-58,57.51H853.71v73.83H835.25Zm62.59,97.63c25.14,0,41.46-15.25,41.46-40.93,0-25.41-16.32-40.12-41.2-40.12h-44.4v81Z"/><path class="green-planet-logo-v-white-cls-1" d="M988.51,456.55h18.19v152.2c0,17.65,8,20.33,15,20.33a41.71,41.71,0,0,0,4.55-.26v16.31a45.89,45.89,0,0,1-6.69.54c-11.23,0-31-3.48-31-32.9Z"/><path class="green-planet-logo-v-white-cls-1" d="M1127.32,561.4h7.49v-3.48c0-25.94-14.18-34.77-33.44-34.77-22.2,0-38,12.84-38,12.84l-8.56-13.91s17.66-15.25,47.88-15.25c32.37,0,50.29,17.92,50.29,51.62v86.13h-17.39V629.87a105.94,105.94,0,0,1,.54-11.23h-.54s-11.23,29.16-44.94,29.16c-22.47,0-45.74-13.11-45.74-39.86C1044.93,562.47,1104,561.4,1127.32,561.4Zm-33.7,70.88c25.68,0,41.19-26.75,41.19-50v-5.88h-7.76c-21.13,0-63.39.8-63.39,30.49C1063.66,619.44,1073.56,632.28,1093.62,632.28Z"/><path class="green-planet-logo-v-white-cls-1" d="M1195,510h17.92V530.1c0,5.88-.53,10.7-.53,10.7h.53c4.82-12.3,21.94-34,53.76-34,33.17,0,44.94,19,44.94,52.16v85.59h-18.19V563.8c0-21.13-3.21-39.85-29.16-39.85-23,0-42.79,15.78-48.95,38a66.57,66.57,0,0,0-2.14,18.19v64.46H1195Z"/><path class="green-planet-logo-v-white-cls-1" d="M1410.55,506.83c37.18,0,56.17,28.62,56.17,62.05,0,3.21-.54,9.36-.54,9.36H1362.94c.8,34.51,24.34,53.23,52.16,53.23,24.61,0,40.92-16.32,40.92-16.32l8.29,13.91a77.1,77.1,0,0,1-49.75,18.73c-40.12,0-70.35-28.89-70.35-70.35C1344.22,533.31,1374.17,506.83,1410.55,506.83Zm37.71,56.44c-1.07-28.08-18.19-41.19-38.25-41.19-22.47,0-42,14.18-46.27,41.19Z"/><path class="green-planet-logo-v-white-cls-1" d="M1506.56,526.89h-17.65V511.65h17.92V472.86h17.92v38.78h33.7v15.25h-33.7v66.87c0,31.56,20.06,35.58,30.23,35.58a31.35,31.35,0,0,0,6.15-.53v16.31a47.69,47.69,0,0,1-7.76.54c-15.52,0-46.81-5.08-46.81-50Z"/></g></g></svg>
