<svg xmlns="http://www.w3.org/2000/svg" viewBox="0 0 263.38 306.38"><defs><style>.green-planet-icon-white-cls-1{fill:#fff;}</style></defs><title>green-planet-icon-white</title><g id="Layer_2" data-name="Layer 2"><g id="Layer_1-2" data-name="Layer 1"><path class="green-planet-icon-white-cls-1" d="M59.2,132.4,94,97.6A8.2,8.2,0,0,0,94,86h0a8.2,8.2,0,0,0-11.6,0L47.6,120.8a8.2,8.2,0,0,0,11.6,11.6Z"/><path class="green-planet-icon-white-cls-1" d="M82.39,132.4a8.2,8.2,0,0,0,11.6,0l52.19-52.2a8.2,8.2,0,1,0-11.6-11.6l-52.2,52.2A8.2,8.2,0,0,0,82.39,132.4Z"/><path class="green-planet-icon-white-cls-1" d="M99.79,80.2a8.2,8.2,0,1,0,0-11.6h0a8.2,8.2,0,0,0,0,11.6Z"/><path class="green-planet-icon-white-cls-1" d="M65,184.59h0a8.2,8.2,0,0,0-11.6,0h0a8.2,8.2,0,1,0,11.6,0Z"/><path class="green-planet-icon-white-cls-1" d="M59.2,167.19l17.4-17.4A8.2,8.2,0,1,0,65,138.2l-17.4,17.4a8.2,8.2,0,0,0,11.6,11.6Z"/><path class="green-planet-icon-white-cls-1" d="M146.19,103.4h0a8.2,8.2,0,0,0,11.6,0L175.18,86a8.2,8.2,0,0,0-11.6-11.6l-17.4,17.4A8.2,8.2,0,0,0,146.19,103.4Z"/><path class="green-planet-icon-white-cls-1" d="M140.39,109.2a8.2,8.2,0,0,0-11.6,0l-58,58a8.2,8.2,0,1,0,11.6,11.6l58-58A8.2,8.2,0,0,0,140.39,109.2Z"/><path class="green-planet-icon-white-cls-1" d="M215.78,173h0a8.2,8.2,0,0,0-11.6,0l-34.8,34.8a8.2,8.2,0,0,0,0,11.6h0a8.2,8.2,0,0,0,11.6,0l34.8-34.8A8.2,8.2,0,0,0,215.78,173Z"/><path class="green-planet-icon-white-cls-1" d="M181,173h0a8.2,8.2,0,0,0-11.6,0l-52.19,52.2a8.2,8.2,0,0,0,0,11.6h0a8.2,8.2,0,0,0,11.6,0l52.2-52.2A8.2,8.2,0,0,0,181,173Z"/><circle class="green-planet-icon-white-cls-1" cx="157.79" cy="230.99" r="8.2" transform="translate(-117.12 179.22) rotate(-45)"/><path class="green-planet-icon-white-cls-1" d="M198.38,109.2a8.2,8.2,0,0,0,0,11.6h0a8.2,8.2,0,0,0,11.6,0h0a8.2,8.2,0,1,0-11.6-11.6Z"/><path class="green-planet-icon-white-cls-1" d="M204.18,138.2l-17.4,17.4a8.2,8.2,0,0,0,11.6,11.6l17.4-17.4a8.2,8.2,0,0,0,0-11.6h0A8.2,8.2,0,0,0,204.18,138.2Z"/><path class="green-planet-icon-white-cls-1" d="M117.19,202h0a8.2,8.2,0,0,0-11.6,0l-17.4,17.4A8.2,8.2,0,1,0,99.79,231l17.4-17.4A8.2,8.2,0,0,0,117.19,202Z"/><path class="green-planet-icon-white-cls-1" d="M192.58,126.6a8.2,8.2,0,0,0-11.6,0l-58,58a8.2,8.2,0,0,0,11.6,11.6l58-58A8.2,8.2,0,0,0,192.58,126.6Z"/><path class="green-planet-icon-white-cls-1" d="M105.59,178.79a8.2,8.2,0,0,0-11.6,0l-29,29a8.2,8.2,0,0,0,0,11.6h0a8.2,8.2,0,0,0,11.6,0l29-29A8.2,8.2,0,0,0,105.59,178.79Z"/><path class="green-planet-icon-white-cls-1" d="M111.39,173a8.2,8.2,0,0,0,11.6,0L198.38,97.6a8.2,8.2,0,0,0,0-11.6h0a8.2,8.2,0,0,0-11.6,0l-75.39,75.39A8.2,8.2,0,0,0,111.39,173Z"/><path class="green-planet-icon-white-cls-1" d="M252.63,215.27V91.11a13.44,13.44,0,1,0-13-21.83L144.53,17.38a13.44,13.44,0,1,0-25.69,0L23.7,69.28a13.44,13.44,0,1,0-13,21.83V215.27a13.44,13.44,0,1,0,13,21.83L118.84,289a13.44,13.44,0,1,0,25.69,0l95.14-51.89a13.44,13.44,0,1,0,13-21.83ZM142,284.28a13.42,13.42,0,0,0-7.58-4.51V249.94a2.69,2.69,0,0,0-5.37,0v29.83a13.42,13.42,0,0,0-7.58,4.51L26.28,232.38a13.35,13.35,0,0,0-.31-8.74l21.15-13.46a2.69,2.69,0,1,0-2.89-4.54L23.09,219.11a13.4,13.4,0,0,0-7-3.84V91.11a13.4,13.4,0,0,0,7-3.84l21.15,13.46a2.69,2.69,0,0,0,2.89-4.54L26,82.73A13.35,13.35,0,0,0,26.28,74L121.42,22.1A13.42,13.42,0,0,0,129,26.61V56.44a2.69,2.69,0,0,0,5.38,0V26.61A13.42,13.42,0,0,0,142,22.1L237.09,74a13.35,13.35,0,0,0,.31,8.74L216.25,96.19a2.69,2.69,0,0,0,2.89,4.54l21.15-13.46a13.4,13.4,0,0,0,7,3.84V215.27a13.4,13.4,0,0,0-7,3.84l-21.15-13.46a2.69,2.69,0,1,0-2.89,4.54l21.15,13.46a13.35,13.35,0,0,0-.31,8.74Z"/></g></g></svg>
