<svg xmlns="http://www.w3.org/2000/svg" viewBox="0 0 25 25">
  <defs>
    <style>
      .info-1 {
        fill: #222;
      }
    </style>
  </defs>
  <title>info</title>
  <g id="Layer_2" data-name="Layer 2">
    <g id="Layer_1-2" data-name="Layer 1"><path class="info-1" d="M25,25H0V0H25ZM1,24H24V1H1Z"/><path
      class="info-1"
      d="M11.78,11H8.85V9.62h4.67V18.1h3v1.43H8.53V18.1h3.26Zm.6-5.58a1.37,1.37,0,0,1,.53.1,1.29,1.29,0,0,1,.43.29,1.38,1.38,0,0,1,.29.43,1.37,1.37,0,0,1,0,1.05,1.37,1.37,0,0,1-.29.43,1.28,1.28,0,0,1-.43.29,1.43,1.43,0,0,1-1.07,0,1.28,1.28,0,0,1-.43-.29,1.38,1.38,0,0,1-.29-.43,1.39,1.39,0,0,1,0-1.05,1.4,1.4,0,0,1,.29-.43,1.29,1.29,0,0,1,.43-.29A1.36,1.36,0,0,1,12.39,5.47Z"/></g>
  </g>
</svg>
