<svg xmlns="http://www.w3.org/2000/svg" viewBox="0 0 21.64 27.87"><defs><style>.links-1{opacity:0.5;}.links-2{fill:#222;}</style></defs><title>links</title><g id="Layer_2" data-name="Layer 2"><g id="Layer_1-2" data-name="Layer 1"><g class="links-1"><path class="links-2" d="M4.9,27.87A4.9,4.9,0,0,1,1.44,19.5l5-5a4.9,4.9,0,0,1,1.18-.87l.47.88a3.91,3.91,0,0,0-.94.69l-5,5a3.9,3.9,0,0,0,5.52,5.52l5-5a3.91,3.91,0,0,0-1.32-6.39l.37-.93a4.91,4.91,0,0,1,1.66,8l-5,5A4.89,4.89,0,0,1,4.9,27.87Z"/></g><path class="links-2" d="M10,14.45a4.91,4.91,0,0,1-1.66-8l5-5a4.9,4.9,0,0,1,6.94,6.94l-5,5a4.89,4.89,0,0,1-1.18.87l-.47-.88a3.9,3.9,0,0,0,.94-.69l5-5a3.91,3.91,0,0,0,0-5.52,4,4,0,0,0-5.52,0l-5,5a3.91,3.91,0,0,0,1.32,6.39Z"/></g></g></svg>
