<svg xmlns="http://www.w3.org/2000/svg" viewBox="0 0 1377.16 347.61">
  <defs>
    <style>
      .floor-plan-1 {
        fill: none;
        stroke: #ff902c;
        stroke-miterlimit: 10;
        stroke-width: 2px;
      }
      .floor-plan-2 {
        fill: #0860b8;
      }
      .floor-plan-3 {
        fill: #e1e1e1;
      }
      .floor-plan-4 {
        fill: #fff;
      }
    </style>
  </defs>
  <title>Asset 1MMS-2017-booth</title>
  <g id="Layer_2" data-name="Layer 2">
    <g id="Layer_1-2" data-name="Layer 1"><polyline class="floor-plan-1" points="1377.15 274.94 1252.76 274.94 1252.76 346.61 114.69 346.61 114.69 279.06 0 279.06"/><path class="floor-plan-1" d="M114.69,1"/><polyline class="floor-plan-1" points="1377.15 64.43 1252.76 64.43 1252.76 1 119.1 1 119.1 64.43 0 64.43"/><rect class="floor-plan-2" x="1001.24" y="237.23" width="204.08" height="50.96"/><rect class="floor-plan-3" x="165.61" y="59.86" width="84.89" height="49.83"/><path class="floor-plan-4" d="M201.27,94.39h5.62V78c0-.79,0-1.58,0-1.58h-.07a6.31,6.31,0,0,1-1.22,1.48l-2.38,2.34L201.09,78l6.08-5.9h3.17V94.39h5.54v3.1H201.27Z"/><rect class="floor-plan-3" x="285" y="59.86" width="84.89" height="49.83"/><path class="floor-plan-4" d="M319.44,96c0-8.89,13-10,13-16.88,0-2.77-2.09-4.86-5.26-4.86-3.71,0-5.65,3.46-5.65,3.46l-1.87-1.26a8.91,8.91,0,0,1,7.67-4.57c4.82,0,7.7,3.13,7.7,7.09,0,8.49-12.78,9.68-12.81,16.41h13.21v2.23h-15.8A8.73,8.73,0,0,1,319.44,96Z"/><rect class="floor-plan-3" x="404.39" y="59.86" width="84.89" height="49.83"/><path
      class="floor-plan-4"
      d="M440,91.54a9.05,9.05,0,0,0,6.15,2.77c2.84,0,5.18-1.91,5.18-4.64,0-3.13-2.77-4.68-5.9-4.68h-1.76l-.83-1.91,5.54-6.52A19.65,19.65,0,0,1,450,74.91v-.07a17,17,0,0,1-2.16.11h-8.6v-3.1h15.19v2.27l-6.91,8c3.35.36,7.45,2.52,7.45,7.45,0,4.36-3.42,8.17-8.64,8.17a11.66,11.66,0,0,1-8.24-3.46Z"/><rect class="floor-plan-3" x="523.78" y="59.86" width="84.89" height="49.83"/><path class="floor-plan-4" d="M556.43,88.45l11.73-16.38h4.07V87.66h3.46v3h-3.46v6.8h-3.49v-6.8H556.43Zm12.31-.79V78.4c0-1.19.14-2.52.14-2.52h-.07A14.51,14.51,0,0,1,567.55,78l-7.2,9.61v.07Z"/><rect class="floor-plan-3" x="643.17" y="59.86" width="84.89" height="49.83"/><path
      class="floor-plan-4"
      d="M679.19,91.58a7.28,7.28,0,0,0,5.58,2.74c3,0,5.58-2.05,5.58-5.15s-2.52-5.22-5.8-5.22a8.14,8.14,0,0,0-4.28,1.26l-2.05-.76,1.26-12.6h12.81v3.1h-9.72L682,80.31a7.55,7.55,0,0,1-.18,1.33h.07a7.31,7.31,0,0,1,3.28-.79c5.36,0,8.85,3.71,8.85,8.28,0,4.9-3.85,8.57-9,8.57a9.87,9.87,0,0,1-7.78-3.53Z"/><rect class="floor-plan-3" x="762.56" y="59.86" width="84.89" height="49.83"/><path
      class="floor-plan-4"
      d="M796.34,85.93c0-6.52,3.56-14.29,11.45-14.29a11.27,11.27,0,0,1,4.93,1l-1.15,3.06a8.84,8.84,0,0,0-3.63-.83c-4.68,0-7.09,4.32-7.63,8.53h.07A7.31,7.31,0,0,1,806,81c4.82,0,8,3.67,8,8.39,0,5-3.42,8.5-8.17,8.5C800.41,97.91,796.34,93.16,796.34,85.93Zm14.15,3.49a5,5,0,0,0-5.22-5.36c-2.88,0-5.18,1.73-5.18,3.56,0,3.31,2.48,7,5.72,7C808.73,94.64,810.49,92.37,810.49,89.42Z"/><rect class="floor-plan-3" x="881.94" y="59.86" width="84.89" height="49.83"/><path class="floor-plan-4" d="M927.86,77.47a13.07,13.07,0,0,1,1.48-2.34v-.07a11.53,11.53,0,0,1-1.87.11H916.13v-3.1h17v2.45l-11.48,23H918Z"/><rect class="floor-plan-3" x="1001.33" y="59.86" width="84.89" height="49.83"/><path
      class="floor-plan-4"
      d="M1039,83.37a6,6,0,0,1-2.84-5.08c0-3.38,2.56-6.66,7.92-6.66,4.71,0,8,2.63,8,6.8,0,3.38-2.7,6.26-3,6.62,1.94,1.19,3.46,2.77,3.46,5.4,0,4-3.42,7.45-8.71,7.45-5.08,0-8.86-3.17-8.86-7.78C1034.9,86.25,1038.29,83.84,1039,83.37Zm2.63,1.51c-.83.58-3.06,2.3-3.06,5a5,5,0,0,0,5.22,4.79c2.66,0,5-1.73,5-4.36S1045,86.54,1041.6,84.88Zm4.72-1.22a7.53,7.53,0,0,0,2.23-5c0-2.34-1.87-3.82-4.54-3.82s-4.36,1.58-4.36,3.53C1039.66,81.18,1043,82.26,1046.31,83.66Z"/><rect class="floor-plan-3" x="1120.72" y="59.86" width="84.89" height="49.83"/><path
      class="floor-plan-4"
      d="M1155.44,96.87l1.15-3.1a8.56,8.56,0,0,0,3.64.86c4.68,0,7.09-4.32,7.63-8.53h-.07c-1,1.44-3.38,2.38-5.62,2.38-4.82,0-8-3.64-8-8.35,0-5,3.42-8.5,8.17-8.5,5.4,0,9.5,4.72,9.5,12,0,6.52-3.56,14.29-11.45,14.29A11.08,11.08,0,0,1,1155.44,96.87Zm12.63-14.94c0-3.31-2.48-7-5.72-7-3,0-4.68,2.27-4.68,5.22s1.94,5.36,5.22,5.36C1165.77,85.5,1168.08,83.73,1168.08,81.93Z"/><rect class="floor-plan-3" x="285" y="238.35" width="84.89" height="49.83"/><rect class="floor-plan-3" x="404.43" y="238.35" width="84.89" height="49.83"/><path class="floor-plan-4" d="M429.88,272.66h5.62V256.25c0-.79,0-1.58,0-1.58h-.07a6.32,6.32,0,0,1-1.22,1.48l-2.38,2.34-2.16-2.23,6.08-5.9h3.17v22.32h5.54v3.1H429.88Z"/><path
      class="floor-plan-4"
      d="M448.85,270A9.05,9.05,0,0,0,455,272.8c2.84,0,5.18-1.91,5.18-4.64,0-3.13-2.77-4.68-5.9-4.68h-1.76l-.83-1.91,5.54-6.52a19.68,19.68,0,0,1,1.58-1.66v-.07a16.93,16.93,0,0,1-2.16.11h-8.6v-3.1h15.19v2.27l-6.91,8c3.35.36,7.45,2.52,7.45,7.45,0,4.36-3.42,8.17-8.64,8.17a11.66,11.66,0,0,1-8.24-3.46Z"/><path class="floor-plan-4" d="M310.08,272.88h5.62V256.46c0-.79,0-1.58,0-1.58h-.07a6.32,6.32,0,0,1-1.22,1.48l-2.38,2.34-2.16-2.23,6.08-5.9h3.17v22.32h5.54V276H310.08Z"/><path class="floor-plan-4" d="M326.13,266.94l11.73-16.38h4.07v15.59h3.46v3h-3.46V276h-3.49v-6.8H326.13Zm12.31-.79V256.9c0-1.19.14-2.52.14-2.52h-.07a14.49,14.49,0,0,1-1.26,2.09l-7.2,9.61v.07Z"/><rect class="floor-plan-3" x="643.15" y="238.13" width="84.89" height="49.83"/><path class="floor-plan-4" d="M668.51,272.88h5.62V256.46c0-.79,0-1.58,0-1.58h-.07a6.32,6.32,0,0,1-1.22,1.48l-2.38,2.34-2.16-2.23,6.08-5.9h3.17v22.32h5.54V276H668.51Z"/><path class="floor-plan-4" d="M686.08,274c0-9.07,12.45-10.37,12.45-16.34,0-2.52-1.91-4.21-4.57-4.21-3.35,0-5.15,3.24-5.15,3.24L686.19,255a9.12,9.12,0,0,1,8-4.82c4.68,0,8,2.92,8,7.31,0,8.35-12.13,9.65-12.2,15.44h12.6V276H686.26A12.6,12.6,0,0,1,686.08,274Z"/><rect class="floor-plan-3" x="762.73" y="238.13" width="84.89" height="49.83"/><path class="floor-plan-4" d="M789.59,272.66h5.62V256.25c0-.79,0-1.58,0-1.58h-.07a6.32,6.32,0,0,1-1.22,1.48l-2.37,2.34-2.16-2.23,6.08-5.9h3.17v22.32h5.54v3.1H789.59Z"/><path class="floor-plan-4" d="M807.19,272.66h5.62V256.25c0-.79,0-1.58,0-1.58h-.07a6.32,6.32,0,0,1-1.22,1.48l-2.38,2.34L807,256.25l6.08-5.9h3.17v22.32h5.54v3.1H807.19Z"/><path class="floor-plan-4" d="M1085.46,272.32h5.62V255.9c0-.79,0-1.58,0-1.58H1091a6.29,6.29,0,0,1-1.22,1.48l-2.38,2.34-2.16-2.23,6.08-5.9h3.17v22.32h5.54v3.1h-14.61Z"/><path class="floor-plan-4" d="M1103.32,262.67c0-7.31,2.2-13.1,9-13.1s9,5.8,9,13.1-2.2,13.17-9,13.17S1103.32,270,1103.32,262.67Zm14.33,0c0-5.51-1.19-9.83-5.36-9.83s-5.33,4.32-5.33,9.83,1.19,9.9,5.33,9.9S1117.65,268.21,1117.65,262.67Z"/><path class="floor-plan-1" d="M118.42,279.06"/><path class="floor-plan-1" d="M2.89,279.06"/><path class="floor-plan-1" d="M119.1,274.94"/><path class="floor-plan-1" d="M0,64.43"/><path
      class="floor-plan-2"
      d="M475.39,159.17h3.74L485,172.92c.58,1.4,1.26,3.42,1.26,3.42h.07s.68-2,1.26-3.42l5.83-13.75h3.74l2.05,25.41h-3.53l-1.26-16c-.11-1.55,0-3.74,0-3.74h-.07s-.76,2.34-1.37,3.74L487.84,180h-3.17l-5-11.45c-.58-1.37-1.37-3.82-1.37-3.82h-.07s0,2.27-.07,3.82l-1.22,16h-3.56Z"/><path
      class="floor-plan-2"
      d="M506.56,159.17h3.74l5.83,13.75c.58,1.4,1.26,3.42,1.26,3.42h.07s.68-2,1.26-3.42l5.83-13.75h3.74l2.05,25.41h-3.53l-1.26-16c-.11-1.55,0-3.74,0-3.74h-.07s-.76,2.34-1.37,3.74L519,180h-3.17l-5-11.45c-.58-1.37-1.37-3.82-1.37-3.82h-.07s0,2.27-.07,3.82l-1.22,16h-3.56Z"/><path
      class="floor-plan-2"
      d="M536.55,179A10,10,0,0,0,543,181.7c2.38,0,4.39-1.33,4.39-3.74,0-5.51-12.31-4.32-12.31-12.13,0-4,3.42-7.09,8.21-7.09a10.41,10.41,0,0,1,7.2,2.56l-1.62,3a9,9,0,0,0-5.58-2.2c-2.7,0-4.61,1.69-4.61,3.71,0,5.26,12.31,3.85,12.31,12.09,0,3.92-3,7.16-8.06,7.16a11.89,11.89,0,0,1-8.42-3.35Z"/><path
      class="floor-plan-2"
      d="M563.91,182.64c0-9.07,12.45-10.37,12.45-16.34,0-2.52-1.91-4.21-4.57-4.21-3.35,0-5.15,3.24-5.15,3.24L564,163.56a9.13,9.13,0,0,1,8-4.82c4.68,0,8,2.92,8,7.31,0,8.35-12.13,9.65-12.2,15.44h12.6v3.1H564.09A12.6,12.6,0,0,1,563.91,182.64Z"/><path class="floor-plan-2" d="M584.79,171.84c0-7.31,2.2-13.1,9-13.1s9,5.8,9,13.1-2.2,13.17-9,13.17S584.79,179.18,584.79,171.84Zm14.33,0c0-5.51-1.19-9.83-5.36-9.83s-5.33,4.32-5.33,9.83,1.19,9.9,5.33,9.9S599.12,177.38,599.12,171.84Z"/><path class="floor-plan-2" d="M607,181.49h5.62V165.07c0-.79,0-1.58,0-1.58h-.07A6.31,6.31,0,0,1,611.4,165L609,167.3l-2.16-2.23,6.08-5.9h3.17v22.32h5.54v3.1H607Z"/><path class="floor-plan-2" d="M635.62,164.57a13.06,13.06,0,0,1,1.48-2.34v-.07a11.53,11.53,0,0,1-1.87.11H623.89v-3.1h17v2.45l-11.48,23h-3.67Z"/><path class="floor-plan-2" d="M667,177.28H657.4l-2.52,7.31h-3.67l9.14-25.41h3.74l9.14,25.41h-3.71Zm-4.79-14.61s-.58,2.3-1,3.6l-2.84,8.06H666l-2.81-8.06c-.43-1.3-1-3.6-1-3.6Z"/><path
      class="floor-plan-2"
      d="M683.32,165.94c4.21,0,5.62,2.88,5.62,2.88H689a10.34,10.34,0,0,1-.07-1.22v-8.42h3.49v25.41h-3.31v-1.73c0-.72,0-1.22,0-1.22h-.07a6.38,6.38,0,0,1-6,3.38c-4.93,0-8-3.89-8-9.54S678.5,165.94,683.32,165.94Zm.47,16.05c2.7,0,5.26-1.91,5.26-6.55,0-3.24-1.69-6.48-5.15-6.48-2.88,0-5.26,2.38-5.26,6.51C678.64,179.43,680.77,182,683.79,182Z"/><path
      class="floor-plan-2"
      d="M707.4,173.21h.79v-.32c0-3-1.69-4-4-4a9.24,9.24,0,0,0-5.08,1.76l-1.44-2.56a11.43,11.43,0,0,1,6.8-2.16c4.61,0,7.2,2.52,7.2,7.13v11.52h-3.24v-1.73a13.63,13.63,0,0,1,.07-1.44h-.07a6.3,6.3,0,0,1-5.83,3.6c-3.13,0-6.19-1.91-6.19-5.54C696.43,173.46,704.35,173.21,707.4,173.21Zm-4,9c3,0,4.86-3.1,4.86-5.79v-.58h-.9c-2.63,0-7.38.18-7.38,3.46C700,180.77,701.11,182.21,703.37,182.21Z"/><path
      class="floor-plan-2"
      d="M716.91,166.37h3.2v1.55a12.73,12.73,0,0,1-.07,1.33h.07a6.61,6.61,0,0,1,6.12-3.31c4.9,0,8,3.89,8,9.54S730.73,185,726,185a6.34,6.34,0,0,1-5.58-3h-.07a15.8,15.8,0,0,1,.07,1.58v8.17h-3.49ZM725.44,182c2.88,0,5.26-2.38,5.26-6.52,0-4-2.12-6.51-5.15-6.51-2.74,0-5.26,1.91-5.26,6.55C720.29,178.79,722.09,182,725.44,182Z"/><path class="floor-plan-2" d="M739.27,169.43h-2.38v-2.81h2.48v-5.26h3.38v5.26h4.39v2.81h-4.39v8.1c0,3.63,2.56,4.1,3.89,4.1a4.19,4.19,0,0,0,.83-.07v3.1a9.67,9.67,0,0,1-1.22.07c-2.34,0-7-.72-7-6.8Z"/><path class="floor-plan-2" d="M751.36,159.17h3.53v3.56h-3.53Zm0,7.2h3.49v18.21H751.4Z"/><path class="floor-plan-2" d="M757.88,166.37h3.71L766,178.68c.36,1,.58,2.48.61,2.48h.07s.29-1.48.65-2.48l4.43-12.31h3.67l-6.73,18.21h-4Z"/><path
      class="floor-plan-2"
      d="M787.94,173.21h.79v-.32c0-3-1.69-4-4-4a9.24,9.24,0,0,0-5.08,1.76l-1.44-2.56a11.43,11.43,0,0,1,6.8-2.16c4.61,0,7.2,2.52,7.2,7.13v11.52H789v-1.73a13.63,13.63,0,0,1,.07-1.44H789a6.3,6.3,0,0,1-5.83,3.6c-3.13,0-6.19-1.91-6.19-5.54C777,173.46,784.88,173.21,787.94,173.21Zm-4,9c3,0,4.86-3.1,4.86-5.79v-.58h-.9c-2.63,0-7.38.18-7.38,3.46C780.49,180.77,781.64,182.21,783.9,182.21Z"/><path
      class="floor-plan-2"
      d="M807.41,159.17h8.89c4.28,0,7.38,2.38,7.38,6.48a6,6,0,0,1-3.17,5.47v.07a6.12,6.12,0,0,1,4.18,6.15c0,4.79-3.71,7.24-8.17,7.24h-9.11Zm8.89,10.69A3.6,3.6,0,0,0,820,166a3.5,3.5,0,0,0-3.82-3.74H811v7.6Zm.4,11.63a4,4,0,0,0,4.36-4.32,4.13,4.13,0,0,0-4.39-4.36H811v8.67Z"/><path class="floor-plan-2" d="M838,165.94a9.54,9.54,0,1,1-9.83,9.5A9.5,9.5,0,0,1,838,165.94ZM838,182a6.52,6.52,0,1,0-6.26-6.55A6.29,6.29,0,0,0,838,182Z"/><path class="floor-plan-2" d="M860.48,165.94a9.54,9.54,0,1,1-9.83,9.5A9.5,9.5,0,0,1,860.48,165.94Zm0,16.05a6.52,6.52,0,1,0-6.26-6.55A6.29,6.29,0,0,0,860.48,182Z"/><path class="floor-plan-2" d="M875.2,169.43h-2.37v-2.81h2.48v-5.26h3.38v5.26h4.39v2.81h-4.39v8.1c0,3.63,2.56,4.1,3.89,4.1a4.17,4.17,0,0,0,.83-.07v3.1a9.66,9.66,0,0,1-1.22.07c-2.34,0-7-.72-7-6.8Z"/><path class="floor-plan-2" d="M887.33,159.17h3.49v9.32c0,.86-.07,1.51-.07,1.51h.07a7.35,7.35,0,0,1,6.73-4.07c4.28,0,6.26,2.34,6.26,7v11.66h-3.49V173.71c0-2.56-.54-4.57-3.46-4.57a6,6,0,0,0-5.76,4.5,8.49,8.49,0,0,0-.29,2.41v8.53h-3.49Z"/></g>
  </g>
</svg>
