<svg xmlns="http://www.w3.org/2000/svg" viewBox="0 0 25 27.01"><defs><style>.prizes-1{fill:#222;}</style></defs><title>prizes</title><g id="Layer_2" data-name="Layer 2"><g id="Layer_1-2" data-name="Layer 1"><path class="prizes-1" d="M24.5,6H21.3A2.91,2.91,0,0,0,22.8,4.89a1.84,1.84,0,0,0,0-1.89C20.94-.71,18.9-.54,15.56,1.14a6.26,6.26,0,0,0-3.06,3.2,6.26,6.26,0,0,0-3.06-3.2C6.1-.53,4.06-.71,2.21,3a1.84,1.84,0,0,0,0,1.89A2.92,2.92,0,0,0,3.7,6H.5a.5.5,0,0,0-.5.5v4a.5.5,0,0,0,.5.5H2v15.5a.5.5,0,0,0,.5.5h20a.5.5,0,0,0,.5-.5V11h1.5a.5.5,0,0,0,.5-.5v-4A.5.5,0,0,0,24.5,6ZM16,7v3H9V7Zm0-5a7.62,7.62,0,0,1,3.11-1c1.12,0,1.92.72,2.78,2.45a.86.86,0,0,1,.05.91C21.58,5,19.93,6,13,6A5.31,5.31,0,0,1,16,2ZM3,4.36a.86.86,0,0,1,.05-.91C4,1.72,4.76,1,5.89,1A7.62,7.62,0,0,1,9,2a5.31,5.31,0,0,1,3,4C5.07,6,3.42,5,3,4.36ZM1,7H8v3H1Zm2,4h7V26H3Zm8,15V11h3V26Zm11,0H15V11h7Zm2-16H17V7h7Z"/></g></g></svg>
