<svg xmlns="http://www.w3.org/2000/svg" viewBox="0 0 31.17 31.17">
  <defs>
    <style>
      .refresh-1 {
        fill: #fff;
      }
    </style>
  </defs>
  <title>refresh</title>
  <g id="Layer_2" data-name="Layer 2">
    <g id="Layer_1-2" data-name="Layer 1"><path class="refresh-1" d="M28.88,20.48l-.06,0h0a1.57,1.57,0,0,0-.94-.12H21.78a1.58,1.58,0,1,0,0,3.15H25.2A12.43,12.43,0,0,1,3.15,15.58a1.58,1.58,0,0,0-3.15,0,15.59,15.59,0,0,0,26.6,11v1.7a1.58,1.58,0,1,0,3.15,0V21.88A1.57,1.57,0,0,0,28.88,20.48Z"/><path
      class="refresh-1"
      d="M15.58,0a15.48,15.48,0,0,0-11,4.55V3A1.58,1.58,0,1,0,1.42,3V9.39A1.57,1.57,0,0,0,2,10.62l0,0,.18.12.07,0h0l.12,0,.21.06h0a1.56,1.56,0,0,0,.38,0H9.39a1.58,1.58,0,0,0,0-3.15H5.87A12.44,12.44,0,0,1,28,15.58a1.58,1.58,0,1,0,3.15,0A15.6,15.6,0,0,0,15.58,0Z"/></g>
  </g>
</svg>
