<svg xmlns="http://www.w3.org/2000/svg" viewBox="0 0 78 86.6"><defs><style>.refresh-1{fill:#fff;}</style></defs><title>refresh</title><g id="Layer_2" data-name="Layer 2"><g id="Layer_1-2" data-name="Layer 1"><path class="refresh-1" d="M78,43.38a39,39,0,0,0-39-39v6A33,33,0,0,1,55.15,72.15l4.51-7.34-8.4,2L43.74,79.07,56,86.6l8.4-2L55.13,78.9A39,39,0,0,0,78,43.38Z"/><path class="refresh-1" d="M6,43.38A32.89,32.89,0,0,1,23.13,14.46l-4.59,7.3L27,19.83,34.61,7.65,22.43,0,14,1.93l9.22,5.78A39,39,0,0,0,39,82.38v-6A33,33,0,0,1,6,43.38Z"/></g></g></svg>
