<svg xmlns="http://www.w3.org/2000/svg" viewBox="0 0 16 13">
  <defs>
    <style>
      .twitter-icon-1 {
        fill: #fff;
      }
    </style>
  </defs>
  <title>twitter-icon</title>
  <g id="Layer_2" data-name="Layer 2">
    <g id="Layer_1-2" data-name="Layer 1">
      <g id="twitter-icon"><path
        class="twitter-icon-1"
        d="M16,1.54a6.56,6.56,0,0,1-1.88.52A3.29,3.29,0,0,0,15.56.24a6.54,6.54,0,0,1-2.08.8A3.28,3.28,0,0,0,7.88,4,9.32,9.32,0,0,1,1.11.6,3.29,3.29,0,0,0,2.13,5,3.26,3.26,0,0,1,.64,4.58,3.29,3.29,0,0,0,3.28,7.84a3.33,3.33,0,0,1-1.48.06,3.28,3.28,0,0,0,3.07,2.28A6.62,6.62,0,0,1,0,11.53,9.29,9.29,0,0,0,5,13a9.28,9.28,0,0,0,9.33-9.76A6.68,6.68,0,0,0,16,1.54Z"/></g>
    </g>
  </g>
</svg>
