<svg xmlns="http://www.w3.org/2000/svg" viewBox="0 0 154.95 40.89"><defs><style>.cls-1{fill:#fff;}</style></defs><title>adaptiva-design-lab</title><g id="Layer_2" data-name="Layer 2"><g id="Layer_1-2" data-name="Layer 1"><polygon class="cls-1" points="32.46 0 32.46 9.52 22.75 9.52 32.46 0"/><polygon class="cls-1" points="12.65 19.58 32.46 19.58 32.46 12.18 20.15 12.18 12.65 19.58"/><polygon class="cls-1" points="0 32.07 32.46 32.07 32.46 22.24 9.92 22.24 0 32.07"/><path class="cls-1" d="M54.49,10.44a7.46,7.46,0,0,1,6.89,4h.08a15.24,15.24,0,0,1-.08-1.6V2.54h2.86V32.07H61.46V29.85a11.81,11.81,0,0,1,.08-1.51h-.08a7.64,7.64,0,0,1-7.27,4.24C48.52,32.58,45,28,45,21.49S48.94,10.44,54.49,10.44ZM54.61,30c3.53,0,6.85-2.52,6.85-8.53,0-4.29-2.18-8.49-6.72-8.49-3.74,0-6.81,3.15-6.81,8.49S50.67,30,54.61,30Z"/><path class="cls-1" d="M78,10.44c5.84,0,8.82,4.5,8.82,9.75,0,.5-.08,1.47-.08,1.47H70.49c.13,5.42,3.82,8.36,8.19,8.36a9.82,9.82,0,0,0,6.43-2.56l1.3,2.18a12.11,12.11,0,0,1-7.81,2.94,10.68,10.68,0,0,1-11-11C67.55,14.6,72.25,10.44,78,10.44Zm5.92,8.86c-.17-4.41-2.86-6.47-6-6.47a7.16,7.16,0,0,0-7.27,6.47Z"/><path class="cls-1" d="M90,27.45A9.07,9.07,0,0,0,96.28,30c2.27,0,4.24-1.13,4.24-3.36,0-4.62-11.38-3.49-11.38-10.38,0-3.78,3.4-5.84,7.23-5.84,4.45,0,6.51,2.31,6.51,2.31l-1.3,2.18A7.49,7.49,0,0,0,96.28,13c-2.14,0-4.2.92-4.2,3.28,0,4.66,11.38,3.4,11.38,10.38,0,3.44-3,5.92-7.23,5.92a10.76,10.76,0,0,1-7.81-3.07Z"/><path class="cls-1" d="M106.57,2.54h3V6.11h-3Zm.08,8.4h2.86V32.07h-2.86Z"/><path class="cls-1" d="M121.6,38.33c4.12,0,7.39-1.93,7.39-6.64V29.76a14.59,14.59,0,0,1,.08-1.51H129c-1.26,2.35-3.4,3.7-6.68,3.7-5.67,0-9.41-4.5-9.41-10.84s3.49-10.67,9.16-10.67S129,14,129,14h.08a4.82,4.82,0,0,1,0-.71V10.94h2.77V31.57c0,6.72-5,9.33-10.12,9.33a15.49,15.49,0,0,1-6.93-1.68l1.09-2.35A13,13,0,0,0,121.6,38.33ZM129,21.11c0-6.17-2.94-8.07-6.68-8.07-4.12,0-6.51,3-6.51,8s2.73,8.32,6.93,8.32C126.1,29.38,129,27.33,129,21.11Z"/><path class="cls-1" d="M136.64,10.94h2.81v3.15c0,.92-.08,1.68-.08,1.68h.08a9,9,0,0,1,8.44-5.33c5.21,0,7.06,3,7.06,8.19V32.07H152.1V19.39c0-3.32-.5-6.26-4.58-6.26a8,8,0,0,0-7.69,6,10.46,10.46,0,0,0-.34,2.86V32.07h-2.86Z"/></g></g></svg>